STARTFONT 2.1
COMMENT
COMMENT Converted from OpenType font "Q:\font stuff\winfont\lucida.ttf" by "otf2bdf 3.0".
COMMENT
FONT -FreeType-Lucida Sans Unicode-Medium-R-Normal--14-140-72-72-P-76-ISO10646-1
SIZE 14 72 72
FONTBOUNDINGBOX 29 22 -9 -6
STARTPROPERTIES 19
FOUNDRY "FreeType"
FAMILY_NAME "Lucida Sans Unicode"
WEIGHT_NAME "Medium"
SLANT "R"
SETWIDTH_NAME "Normal"
ADD_STYLE_NAME ""
PIXEL_SIZE 14
POINT_SIZE 140
RESOLUTION_X 72
RESOLUTION_Y 72
SPACING "P"
AVERAGE_WIDTH 76
CHARSET_REGISTRY "ISO10646"
CHARSET_ENCODING "1"
FONT_ASCENT 15
FONT_DESCENT 6
COPYRIGHT "Copyright © 1993 Bigelow & Holmes Inc. All rights reserved. Pat. Des. 289,420. Pats. Pend."
_OTF_FONTFILE "Q:\font stuff\winfont\lucida.ttf"
_OTF_PSNAME "LucidaSansUnicode"
ENDPROPERTIES
CHARS 1753
STARTCHAR 0020
ENCODING 32
SWIDTH 285 0
DWIDTH 4 0
BBX 0 0 0 0
BITMAP
ENDCHAR
STARTCHAR 0021
ENCODING 33
SWIDTH 285 0
DWIDTH 4 0
BBX 1 10 1 0
BITMAP
80
80
80
80
80
80
80
80
00
80
ENDCHAR
STARTCHAR 0022
ENCODING 34
SWIDTH 357 0
DWIDTH 5 0
BBX 3 3 1 8
BITMAP
A0
A0
A0
ENDCHAR
STARTCHAR 0023
ENCODING 35
SWIDTH 642 0
DWIDTH 9 0
BBX 9 10 1 0
BITMAP
1200
1200
2400
7F80
2400
2400
FF00
4800
4800
4800
ENDCHAR
STARTCHAR 0024
ENCODING 36
SWIDTH 642 0
DWIDTH 9 0
BBX 6 12 1 -1
BITMAP
20
78
A4
A0
A0
60
38
24
24
A4
78
20
ENDCHAR
STARTCHAR 0025
ENCODING 37
SWIDTH 642 0
DWIDTH 9 0
BBX 9 10 0 0
BITMAP
6080
9100
9200
9400
6800
0B00
1480
2480
4480
8300
ENDCHAR
STARTCHAR 0026
ENCODING 38
SWIDTH 714 0
DWIDTH 10 0
BBX 8 10 1 0
BITMAP
18
24
24
28
70
89
89
86
46
3B
ENDCHAR
STARTCHAR 0027
ENCODING 39
SWIDTH 214 0
DWIDTH 3 0
BBX 1 4 1 7
BITMAP
80
80
80
80
ENDCHAR
STARTCHAR 0028
ENCODING 40
SWIDTH 357 0
DWIDTH 5 0
BBX 3 13 1 -2
BITMAP
20
40
40
80
80
80
80
80
80
80
40
40
20
ENDCHAR
STARTCHAR 0029
ENCODING 41
SWIDTH 357 0
DWIDTH 5 0
BBX 3 13 1 -2
BITMAP
80
40
40
20
20
20
20
20
20
20
40
40
80
ENDCHAR
STARTCHAR 002A
ENCODING 42
SWIDTH 500 0
DWIDTH 7 0
BBX 5 5 1 5
BITMAP
20
A8
50
50
50
ENDCHAR
STARTCHAR 002B
ENCODING 43
SWIDTH 785 0
DWIDTH 11 0
BBX 9 9 1 0
BITMAP
0800
0800
0800
0800
FF80
0800
0800
0800
0800
ENDCHAR
STARTCHAR 002C
ENCODING 44
SWIDTH 285 0
DWIDTH 4 0
BBX 2 4 1 -2
BITMAP
C0
C0
40
80
ENDCHAR
STARTCHAR 002D
ENCODING 45
SWIDTH 571 0
DWIDTH 8 0
BBX 6 1 1 4
BITMAP
FC
ENDCHAR
STARTCHAR 002E
ENCODING 46
SWIDTH 285 0
DWIDTH 4 0
BBX 2 2 1 0
BITMAP
C0
C0
ENDCHAR
STARTCHAR 002F
ENCODING 47
SWIDTH 500 0
DWIDTH 7 0
BBX 4 12 2 -2
BITMAP
10
10
20
20
20
40
40
40
40
80
80
80
ENDCHAR
STARTCHAR 0030
ENCODING 48
SWIDTH 642 0
DWIDTH 9 0
BBX 7 10 1 0
BITMAP
38
44
82
82
82
82
82
82
44
38
ENDCHAR
STARTCHAR 0031
ENCODING 49
SWIDTH 642 0
DWIDTH 9 0
BBX 3 10 2 0
BITMAP
E0
20
20
20
20
20
20
20
20
20
ENDCHAR
STARTCHAR 0032
ENCODING 50
SWIDTH 642 0
DWIDTH 9 0
BBX 6 10 1 0
BITMAP
78
84
04
04
08
10
20
40
80
FC
ENDCHAR
STARTCHAR 0033
ENCODING 51
SWIDTH 642 0
DWIDTH 9 0
BBX 6 10 1 0
BITMAP
78
84
04
08
70
08
04
04
84
78
ENDCHAR
STARTCHAR 0034
ENCODING 52
SWIDTH 642 0
DWIDTH 9 0
BBX 7 10 1 0
BITMAP
04
0C
14
24
44
84
FE
04
04
04
ENDCHAR
STARTCHAR 0035
ENCODING 53
SWIDTH 642 0
DWIDTH 9 0
BBX 5 10 2 0
BITMAP
F8
80
80
80
E0
10
08
08
10
E0
ENDCHAR
STARTCHAR 0036
ENCODING 54
SWIDTH 642 0
DWIDTH 9 0
BBX 7 10 1 0
BITMAP
3C
40
80
80
B8
C4
82
82
44
38
ENDCHAR
STARTCHAR 0037
ENCODING 55
SWIDTH 642 0
DWIDTH 9 0
BBX 7 10 2 0
BITMAP
FE
02
04
08
08
10
20
20
40
40
ENDCHAR
STARTCHAR 0038
ENCODING 56
SWIDTH 642 0
DWIDTH 9 0
BBX 7 10 1 0
BITMAP
3C
42
42
64
38
44
82
82
82
7C
ENDCHAR
STARTCHAR 0039
ENCODING 57
SWIDTH 642 0
DWIDTH 9 0
BBX 7 10 1 0
BITMAP
38
44
82
82
46
3A
02
02
04
78
ENDCHAR
STARTCHAR 003A
ENCODING 58
SWIDTH 285 0
DWIDTH 4 0
BBX 1 8 2 0
BITMAP
80
00
00
00
00
00
00
80
ENDCHAR
STARTCHAR 003B
ENCODING 59
SWIDTH 285 0
DWIDTH 4 0
BBX 2 10 1 -2
BITMAP
40
00
00
00
00
00
00
40
40
80
ENDCHAR
STARTCHAR 003C
ENCODING 60
SWIDTH 785 0
DWIDTH 11 0
BBX 8 9 2 0
BITMAP
01
06
08
30
C0
30
08
06
01
ENDCHAR
STARTCHAR 003D
ENCODING 61
SWIDTH 785 0
DWIDTH 11 0
BBX 8 4 2 2
BITMAP
FF
00
00
FF
ENDCHAR
STARTCHAR 003E
ENCODING 62
SWIDTH 785 0
DWIDTH 11 0
BBX 8 9 2 0
BITMAP
80
60
10
0C
03
0C
10
60
80
ENDCHAR
STARTCHAR 003F
ENCODING 63
SWIDTH 428 0
DWIDTH 6 0
BBX 5 10 0 0
BITMAP
F0
08
08
08
10
20
40
40
00
40
ENDCHAR
STARTCHAR 0040
ENCODING 64
SWIDTH 857 0
DWIDTH 12 0
BBX 10 10 1 0
BITMAP
0F00
3080
4E40
5240
A240
A240
A680
BB00
4000
3C00
ENDCHAR
STARTCHAR 0041
ENCODING 65
SWIDTH 714 0
DWIDTH 10 0
BBX 9 10 0 0
BITMAP
0800
1400
1400
2200
2200
2200
7F00
4100
4100
8080
ENDCHAR
STARTCHAR 0042
ENCODING 66
SWIDTH 571 0
DWIDTH 8 0
BBX 6 10 1 0
BITMAP
F8
84
84
88
F0
88
84
84
84
F8
ENDCHAR
STARTCHAR 0043
ENCODING 67
SWIDTH 714 0
DWIDTH 10 0
BBX 8 10 1 0
BITMAP
1E
61
40
80
80
80
80
40
61
1E
ENDCHAR
STARTCHAR 0044
ENCODING 68
SWIDTH 714 0
DWIDTH 10 0
BBX 8 10 1 0
BITMAP
F8
86
82
81
81
81
81
82
86
F8
ENDCHAR
STARTCHAR 0045
ENCODING 69
SWIDTH 571 0
DWIDTH 8 0
BBX 6 10 1 0
BITMAP
FC
80
80
80
F8
80
80
80
80
FC
ENDCHAR
STARTCHAR 0046
ENCODING 70
SWIDTH 571 0
DWIDTH 8 0
BBX 6 10 1 0
BITMAP
FC
80
80
80
F8
80
80
80
80
80
ENDCHAR
STARTCHAR 0047
ENCODING 71
SWIDTH 714 0
DWIDTH 10 0
BBX 8 10 1 0
BITMAP
1F
60
40
80
80
80
81
41
61
1F
ENDCHAR
STARTCHAR 0048
ENCODING 72
SWIDTH 714 0
DWIDTH 10 0
BBX 8 10 1 0
BITMAP
81
81
81
81
FF
81
81
81
81
81
ENDCHAR
STARTCHAR 0049
ENCODING 73
SWIDTH 285 0
DWIDTH 4 0
BBX 1 10 1 0
BITMAP
80
80
80
80
80
80
80
80
80
80
ENDCHAR
STARTCHAR 004A
ENCODING 74
SWIDTH 285 0
DWIDTH 4 0
BBX 4 12 -1 -2
BITMAP
10
10
10
10
10
10
10
10
10
10
10
E0
ENDCHAR
STARTCHAR 004B
ENCODING 75
SWIDTH 642 0
DWIDTH 9 0
BBX 7 10 1 0
BITMAP
84
88
90
A0
C0
A0
90
88
84
82
ENDCHAR
STARTCHAR 004C
ENCODING 76
SWIDTH 500 0
DWIDTH 7 0
BBX 6 10 1 0
BITMAP
80
80
80
80
80
80
80
80
80
FC
ENDCHAR
STARTCHAR 004D
ENCODING 77
SWIDTH 857 0
DWIDTH 12 0
BBX 9 10 1 0
BITMAP
C180
C180
A280
A280
A280
9480
9480
8880
8880
8080
ENDCHAR
STARTCHAR 004E
ENCODING 78
SWIDTH 714 0
DWIDTH 10 0
BBX 8 10 1 0
BITMAP
C1
C1
A1
91
91
89
89
85
83
83
ENDCHAR
STARTCHAR 004F
ENCODING 79
SWIDTH 785 0
DWIDTH 11 0
BBX 9 10 1 0
BITMAP
1C00
6300
4100
8080
8080
8080
8080
4100
6300
1C00
ENDCHAR
STARTCHAR 0050
ENCODING 80
SWIDTH 571 0
DWIDTH 8 0
BBX 6 10 1 0
BITMAP
F8
84
84
84
88
F0
80
80
80
80
ENDCHAR
STARTCHAR 0051
ENCODING 81
SWIDTH 785 0
DWIDTH 11 0
BBX 10 12 1 -2
BITMAP
1C00
6300
4100
8080
8080
8080
8080
4100
6300
1C00
0300
00C0
ENDCHAR
STARTCHAR 0052
ENCODING 82
SWIDTH 642 0
DWIDTH 9 0
BBX 7 10 1 0
BITMAP
F8
84
84
84
88
F0
90
88
84
82
ENDCHAR
STARTCHAR 0053
ENCODING 83
SWIDTH 571 0
DWIDTH 8 0
BBX 6 10 1 0
BITMAP
78
80
80
40
30
18
04
04
04
F8
ENDCHAR
STARTCHAR 0054
ENCODING 84
SWIDTH 642 0
DWIDTH 9 0
BBX 9 10 0 0
BITMAP
FF80
0800
0800
0800
0800
0800
0800
0800
0800
0800
ENDCHAR
STARTCHAR 0055
ENCODING 85
SWIDTH 714 0
DWIDTH 10 0
BBX 8 10 1 0
BITMAP
81
81
81
81
81
81
81
81
42
3C
ENDCHAR
STARTCHAR 0056
ENCODING 86
SWIDTH 642 0
DWIDTH 9 0
BBX 9 10 0 0
BITMAP
8080
4100
4100
4100
2200
2200
1400
1400
1400
0800
ENDCHAR
STARTCHAR 0057
ENCODING 87
SWIDTH 857 0
DWIDTH 12 0
BBX 12 10 0 0
BITMAP
8610
C630
4620
4620
4920
2940
2940
2940
1080
1080
ENDCHAR
STARTCHAR 0058
ENCODING 88
SWIDTH 642 0
DWIDTH 9 0
BBX 8 10 0 0
BITMAP
81
42
24
24
18
18
24
24
42
81
ENDCHAR
STARTCHAR 0059
ENCODING 89
SWIDTH 642 0
DWIDTH 9 0
BBX 9 10 0 0
BITMAP
8080
4100
2200
2200
1400
0800
0800
0800
0800
0800
ENDCHAR
STARTCHAR 005A
ENCODING 90
SWIDTH 571 0
DWIDTH 8 0
BBX 7 10 0 0
BITMAP
FE
02
04
08
10
10
20
40
80
FE
ENDCHAR
STARTCHAR 005B
ENCODING 91
SWIDTH 357 0
DWIDTH 5 0
BBX 3 13 2 -2
BITMAP
E0
80
80
80
80
80
80
80
80
80
80
80
E0
ENDCHAR
STARTCHAR 005C
ENCODING 92
SWIDTH 500 0
DWIDTH 7 0
BBX 4 12 2 -2
BITMAP
80
80
80
40
40
40
40
20
20
20
10
10
ENDCHAR
STARTCHAR 005D
ENCODING 93
SWIDTH 357 0
DWIDTH 5 0
BBX 3 13 0 -2
BITMAP
E0
20
20
20
20
20
20
20
20
20
20
20
E0
ENDCHAR
STARTCHAR 005E
ENCODING 94
SWIDTH 642 0
DWIDTH 9 0
BBX 7 7 1 3
BITMAP
10
10
28
28
44
44
82
ENDCHAR
STARTCHAR 005F
ENCODING 95
SWIDTH 500 0
DWIDTH 7 0
BBX 5 1 1 -1
BITMAP
F8
ENDCHAR
STARTCHAR 0060
ENCODING 96
SWIDTH 642 0
DWIDTH 9 0
BBX 3 2 3 9
BITMAP
C0
60
ENDCHAR
STARTCHAR 0061
ENCODING 97
SWIDTH 571 0
DWIDTH 8 0
BBX 7 8 1 0
BITMAP
38
44
04
7C
84
84
8C
76
ENDCHAR
STARTCHAR 0062
ENCODING 98
SWIDTH 642 0
DWIDTH 9 0
BBX 7 11 1 0
BITMAP
80
80
80
B8
C4
82
82
82
82
C4
B8
ENDCHAR
STARTCHAR 0063
ENCODING 99
SWIDTH 500 0
DWIDTH 7 0
BBX 6 8 1 0
BITMAP
3C
40
80
80
80
80
40
3C
ENDCHAR
STARTCHAR 0064
ENCODING 100
SWIDTH 642 0
DWIDTH 9 0
BBX 7 11 1 0
BITMAP
02
02
02
3A
46
82
82
82
82
46
3A
ENDCHAR
STARTCHAR 0065
ENCODING 101
SWIDTH 571 0
DWIDTH 8 0
BBX 6 8 1 0
BITMAP
30
48
84
FC
80
80
40
3C
ENDCHAR
STARTCHAR 0066
ENCODING 102
SWIDTH 357 0
DWIDTH 5 0
BBX 5 11 1 0
BITMAP
38
40
40
F0
40
40
40
40
40
40
40
ENDCHAR
STARTCHAR 0067
ENCODING 103
SWIDTH 642 0
DWIDTH 9 0
BBX 7 11 1 -3
BITMAP
3A
46
82
82
82
82
46
3A
02
04
78
ENDCHAR
STARTCHAR 0068
ENCODING 104
SWIDTH 642 0
DWIDTH 9 0
BBX 6 11 1 0
BITMAP
80
80
80
B8
C4
84
84
84
84
84
84
ENDCHAR
STARTCHAR 0069
ENCODING 105
SWIDTH 285 0
DWIDTH 4 0
BBX 1 10 1 0
BITMAP
80
00
80
80
80
80
80
80
80
80
ENDCHAR
STARTCHAR 006A
ENCODING 106
SWIDTH 285 0
DWIDTH 4 0
BBX 4 13 -1 -3
BITMAP
10
00
10
10
10
10
10
10
10
10
10
10
E0
ENDCHAR
STARTCHAR 006B
ENCODING 107
SWIDTH 571 0
DWIDTH 8 0
BBX 6 11 1 0
BITMAP
80
80
80
88
90
A0
C0
A0
90
88
84
ENDCHAR
STARTCHAR 006C
ENCODING 108
SWIDTH 285 0
DWIDTH 4 0
BBX 1 11 1 0
BITMAP
80
80
80
80
80
80
80
80
80
80
80
ENDCHAR
STARTCHAR 006D
ENCODING 109
SWIDTH 928 0
DWIDTH 13 0
BBX 11 8 1 0
BITMAP
B9C0
C620
8420
8420
8420
8420
8420
8420
ENDCHAR
STARTCHAR 006E
ENCODING 110
SWIDTH 642 0
DWIDTH 9 0
BBX 6 8 1 0
BITMAP
B8
C4
84
84
84
84
84
84
ENDCHAR
STARTCHAR 006F
ENCODING 111
SWIDTH 642 0
DWIDTH 9 0
BBX 7 8 1 0
BITMAP
38
44
82
82
82
82
44
38
ENDCHAR
STARTCHAR 0070
ENCODING 112
SWIDTH 642 0
DWIDTH 9 0
BBX 7 11 1 -3
BITMAP
B8
C4
82
82
82
82
C4
B8
80
80
80
ENDCHAR
STARTCHAR 0071
ENCODING 113
SWIDTH 642 0
DWIDTH 9 0
BBX 7 11 1 -3
BITMAP
3A
46
82
82
82
82
46
3A
02
02
02
ENDCHAR
STARTCHAR 0072
ENCODING 114
SWIDTH 428 0
DWIDTH 6 0
BBX 4 8 1 0
BITMAP
B0
C0
80
80
80
80
80
80
ENDCHAR
STARTCHAR 0073
ENCODING 115
SWIDTH 500 0
DWIDTH 7 0
BBX 5 8 1 0
BITMAP
70
80
80
70
08
08
08
F0
ENDCHAR
STARTCHAR 0074
ENCODING 116
SWIDTH 357 0
DWIDTH 5 0
BBX 4 9 0 0
BITMAP
40
F0
40
40
40
40
40
40
30
ENDCHAR
STARTCHAR 0075
ENCODING 117
SWIDTH 642 0
DWIDTH 9 0
BBX 6 8 1 0
BITMAP
84
84
84
84
84
84
8C
74
ENDCHAR
STARTCHAR 0076
ENCODING 118
SWIDTH 500 0
DWIDTH 7 0
BBX 7 8 0 0
BITMAP
82
44
44
44
28
28
28
10
ENDCHAR
STARTCHAR 0077
ENCODING 119
SWIDTH 785 0
DWIDTH 11 0
BBX 10 8 0 0
BITMAP
8C40
8C40
4C80
5280
5280
5280
2100
2100
ENDCHAR
STARTCHAR 0078
ENCODING 120
SWIDTH 642 0
DWIDTH 9 0
BBX 7 8 1 0
BITMAP
82
44
28
10
10
28
44
82
ENDCHAR
STARTCHAR 0079
ENCODING 121
SWIDTH 500 0
DWIDTH 7 0
BBX 7 11 0 -3
BITMAP
82
44
44
44
28
28
28
10
10
10
20
ENDCHAR
STARTCHAR 007A
ENCODING 122
SWIDTH 571 0
DWIDTH 8 0
BBX 6 8 1 0
BITMAP
FC
04
08
10
20
40
80
FC
ENDCHAR
STARTCHAR 007B
ENCODING 123
SWIDTH 357 0
DWIDTH 5 0
BBX 3 13 1 -2
BITMAP
20
40
40
40
40
40
80
40
40
40
40
40
20
ENDCHAR
STARTCHAR 007C
ENCODING 124
SWIDTH 357 0
DWIDTH 5 0
BBX 1 13 2 -2
BITMAP
80
80
80
80
80
80
80
80
80
80
80
80
80
ENDCHAR
STARTCHAR 007D
ENCODING 125
SWIDTH 357 0
DWIDTH 5 0
BBX 3 13 1 -2
BITMAP
80
40
40
40
40
40
20
40
40
40
40
40
80
ENDCHAR
STARTCHAR 007E
ENCODING 126
SWIDTH 642 0
DWIDTH 9 0
BBX 7 3 1 3
BITMAP
62
92
8C
ENDCHAR
STARTCHAR 00A0
ENCODING 160
SWIDTH 285 0
DWIDTH 4 0
BBX 0 0 0 0
BITMAP
ENDCHAR
STARTCHAR 00A1
ENCODING 161
SWIDTH 285 0
DWIDTH 4 0
BBX 1 11 1 -3
BITMAP
80
00
80
80
80
80
80
80
80
80
80
ENDCHAR
STARTCHAR 00A2
ENCODING 162
SWIDTH 642 0
DWIDTH 9 0
BBX 6 10 1 0
BITMAP
10
3C
50
90
90
90
90
50
3C
10
ENDCHAR
STARTCHAR 00A3
ENCODING 163
SWIDTH 642 0
DWIDTH 9 0
BBX 6 10 2 0
BITMAP
3C
40
40
40
F0
40
40
40
80
FC
ENDCHAR
STARTCHAR 00A4
ENCODING 164
SWIDTH 642 0
DWIDTH 9 0
BBX 6 6 1 2
BITMAP
B4
48
84
84
48
B4
ENDCHAR
STARTCHAR 00A5
ENCODING 165
SWIDTH 642 0
DWIDTH 9 0
BBX 7 10 1 0
BITMAP
82
44
28
28
10
7C
10
7C
10
10
ENDCHAR
STARTCHAR 00A6
ENCODING 166
SWIDTH 357 0
DWIDTH 5 0
BBX 1 13 2 -2
BITMAP
80
80
80
80
80
00
00
00
80
80
80
80
80
ENDCHAR
STARTCHAR 00A7
ENCODING 167
SWIDTH 642 0
DWIDTH 9 0
BBX 6 12 2 -2
BITMAP
78
84
80
40
78
84
84
78
08
04
84
78
ENDCHAR
STARTCHAR 00A8
ENCODING 168
SWIDTH 642 0
DWIDTH 9 0
BBX 4 1 2 9
BITMAP
90
ENDCHAR
STARTCHAR 00A9
ENCODING 169
SWIDTH 857 0
DWIDTH 12 0
BBX 10 10 1 0
BITMAP
1E00
6180
5E80
A040
A040
A040
A040
5E80
6180
1E00
ENDCHAR
STARTCHAR 00AA
ENCODING 170
SWIDTH 428 0
DWIDTH 6 0
BBX 5 5 1 6
BITMAP
F0
10
70
90
F8
ENDCHAR
STARTCHAR 00AB
ENCODING 171
SWIDTH 500 0
DWIDTH 7 0
BBX 6 7 0 0
BITMAP
24
48
48
90
48
48
24
ENDCHAR
STARTCHAR 00AC
ENCODING 172
SWIDTH 785 0
DWIDTH 11 0
BBX 9 3 1 2
BITMAP
FF80
0080
0080
ENDCHAR
STARTCHAR 00AD
ENCODING 173
SWIDTH 357 0
DWIDTH 5 0
BBX 3 1 1 4
BITMAP
E0
ENDCHAR
STARTCHAR 00AE
ENCODING 174
SWIDTH 642 0
DWIDTH 9 0
BBX 6 6 1 4
BITMAP
78
B4
B4
B4
B4
78
ENDCHAR
STARTCHAR 00AF
ENCODING 175
SWIDTH 500 0
DWIDTH 7 0
BBX 5 1 1 10
BITMAP
F8
ENDCHAR
STARTCHAR 00B0
ENCODING 176
SWIDTH 285 0
DWIDTH 4 0
BBX 3 3 0 7
BITMAP
E0
A0
E0
ENDCHAR
STARTCHAR 00B1
ENCODING 177
SWIDTH 785 0
DWIDTH 11 0
BBX 9 9 1 0
BITMAP
0800
0800
0800
FF80
0800
0800
0800
0000
FF80
ENDCHAR
STARTCHAR 00B2
ENCODING 178
SWIDTH 428 0
DWIDTH 6 0
BBX 4 6 1 4
BITMAP
E0
10
10
60
80
F0
ENDCHAR
STARTCHAR 00B3
ENCODING 179
SWIDTH 428 0
DWIDTH 6 0
BBX 4 6 1 4
BITMAP
E0
10
60
10
10
E0
ENDCHAR
STARTCHAR 00B4
ENCODING 180
SWIDTH 642 0
DWIDTH 9 0
BBX 3 2 3 9
BITMAP
60
C0
ENDCHAR
STARTCHAR 00B5
ENCODING 181
SWIDTH 642 0
DWIDTH 9 0
BBX 6 11 1 -3
BITMAP
84
84
84
84
84
84
8C
F4
80
80
80
ENDCHAR
STARTCHAR 00B6
ENCODING 182
SWIDTH 642 0
DWIDTH 9 0
BBX 6 12 1 -2
BITMAP
7C
F4
F4
F4
74
14
14
14
14
14
14
14
ENDCHAR
STARTCHAR 00B7
ENCODING 183
SWIDTH 642 0
DWIDTH 9 0
BBX 2 2 3 3
BITMAP
C0
C0
ENDCHAR
STARTCHAR 00B8
ENCODING 184
SWIDTH 642 0
DWIDTH 9 0
BBX 2 3 3 -3
BITMAP
40
40
C0
ENDCHAR
STARTCHAR 00B9
ENCODING 185
SWIDTH 428 0
DWIDTH 6 0
BBX 2 6 2 4
BITMAP
C0
40
40
40
40
40
ENDCHAR
STARTCHAR 00BA
ENCODING 186
SWIDTH 428 0
DWIDTH 6 0
BBX 4 5 1 6
BITMAP
60
90
90
90
60
ENDCHAR
STARTCHAR 00BB
ENCODING 187
SWIDTH 500 0
DWIDTH 7 0
BBX 6 7 1 0
BITMAP
90
48
48
24
48
48
90
ENDCHAR
STARTCHAR 00BC
ENCODING 188
SWIDTH 785 0
DWIDTH 11 0
BBX 10 10 1 0
BITMAP
C100
4200
4400
4400
4980
5280
2480
27C0
4080
8080
ENDCHAR
STARTCHAR 00BD
ENCODING 189
SWIDTH 785 0
DWIDTH 11 0
BBX 10 10 1 0
BITMAP
C100
4200
4400
4400
4B80
5040
2040
2180
4200
83C0
ENDCHAR
STARTCHAR 00BE
ENCODING 190
SWIDTH 785 0
DWIDTH 11 0
BBX 10 10 1 0
BITMAP
E080
1100
6200
1200
1580
EA80
1480
17C0
2080
4080
ENDCHAR
STARTCHAR 00BF
ENCODING 191
SWIDTH 428 0
DWIDTH 6 0
BBX 5 11 0 -3
BITMAP
10
00
10
10
20
20
40
80
80
80
78
ENDCHAR
STARTCHAR 00C0
ENCODING 192
SWIDTH 714 0
DWIDTH 10 0
BBX 9 13 0 0
BITMAP
1800
0C00
0000
0800
1400
1400
2200
2200
2200
7F00
4100
4100
8080
ENDCHAR
STARTCHAR 00C1
ENCODING 193
SWIDTH 714 0
DWIDTH 10 0
BBX 9 13 0 0
BITMAP
0600
0C00
0000
0800
1400
1400
2200
2200
2200
7F00
4100
4100
8080
ENDCHAR
STARTCHAR 00C2
ENCODING 194
SWIDTH 714 0
DWIDTH 10 0
BBX 9 13 0 0
BITMAP
1C00
3600
0000
0800
1400
1400
2200
2200
2200
7F00
4100
4100
8080
ENDCHAR
STARTCHAR 00C3
ENCODING 195
SWIDTH 714 0
DWIDTH 10 0
BBX 9 13 0 0
BITMAP
3A00
2E00
0000
0800
1400
1400
2200
2200
2200
7F00
4100
4100
8080
ENDCHAR
STARTCHAR 00C4
ENCODING 196
SWIDTH 714 0
DWIDTH 10 0
BBX 9 12 0 0
BITMAP
1200
0000
0800
1400
1400
2200
2200
2200
7F00
4100
4100
8080
ENDCHAR
STARTCHAR 00C5
ENCODING 197
SWIDTH 714 0
DWIDTH 10 0
BBX 9 14 0 0
BITMAP
1C00
1400
1C00
0000
0800
1400
1400
2200
2200
2200
7F00
4100
4100
8080
ENDCHAR
STARTCHAR 00C6
ENCODING 198
SWIDTH 928 0
DWIDTH 13 0
BBX 13 10 0 0
BITMAP
03F8
0500
0500
0900
11F0
1100
3F00
2100
4100
81F8
ENDCHAR
STARTCHAR 00C7
ENCODING 199
SWIDTH 714 0
DWIDTH 10 0
BBX 8 13 1 -3
BITMAP
1E
61
40
80
80
80
80
40
61
1E
08
08
18
ENDCHAR
STARTCHAR 00C8
ENCODING 200
SWIDTH 571 0
DWIDTH 8 0
BBX 6 13 1 0
BITMAP
60
30
00
FC
80
80
80
F8
80
80
80
80
FC
ENDCHAR
STARTCHAR 00C9
ENCODING 201
SWIDTH 571 0
DWIDTH 8 0
BBX 6 13 1 0
BITMAP
30
60
00
FC
80
80
80
F8
80
80
80
80
FC
ENDCHAR
STARTCHAR 00CA
ENCODING 202
SWIDTH 571 0
DWIDTH 8 0
BBX 6 13 1 0
BITMAP
70
D8
00
FC
80
80
80
F8
80
80
80
80
FC
ENDCHAR
STARTCHAR 00CB
ENCODING 203
SWIDTH 571 0
DWIDTH 8 0
BBX 6 12 1 0
BITMAP
48
00
FC
80
80
80
F8
80
80
80
80
FC
ENDCHAR
STARTCHAR 00CC
ENCODING 204
SWIDTH 285 0
DWIDTH 4 0
BBX 3 13 -1 0
BITMAP
C0
60
00
20
20
20
20
20
20
20
20
20
20
ENDCHAR
STARTCHAR 00CD
ENCODING 205
SWIDTH 285 0
DWIDTH 4 0
BBX 3 13 0 0
BITMAP
60
C0
00
40
40
40
40
40
40
40
40
40
40
ENDCHAR
STARTCHAR 00CE
ENCODING 206
SWIDTH 285 0
DWIDTH 4 0
BBX 5 13 -1 0
BITMAP
70
D8
00
20
20
20
20
20
20
20
20
20
20
ENDCHAR
STARTCHAR 00CF
ENCODING 207
SWIDTH 285 0
DWIDTH 4 0
BBX 4 12 -1 0
BITMAP
90
00
20
20
20
20
20
20
20
20
20
20
ENDCHAR
STARTCHAR 00D0
ENCODING 208
SWIDTH 714 0
DWIDTH 10 0
BBX 10 10 -1 0
BITMAP
3E00
2180
2080
2040
FC40
2040
2040
2080
2180
3E00
ENDCHAR
STARTCHAR 00D1
ENCODING 209
SWIDTH 714 0
DWIDTH 10 0
BBX 8 13 1 0
BITMAP
74
5C
00
C1
C1
A1
91
91
89
89
85
83
83
ENDCHAR
STARTCHAR 00D2
ENCODING 210
SWIDTH 785 0
DWIDTH 11 0
BBX 9 13 1 0
BITMAP
3000
1800
0000
1C00
6300
4100
8080
8080
8080
8080
4100
6300
1C00
ENDCHAR
STARTCHAR 00D3
ENCODING 211
SWIDTH 785 0
DWIDTH 11 0
BBX 9 13 1 0
BITMAP
0C00
1800
0000
1C00
6300
4100
8080
8080
8080
8080
4100
6300
1C00
ENDCHAR
STARTCHAR 00D4
ENCODING 212
SWIDTH 785 0
DWIDTH 11 0
BBX 9 13 1 0
BITMAP
1C00
3600
0000
1C00
6300
4100
8080
8080
8080
8080
4100
6300
1C00
ENDCHAR
STARTCHAR 00D5
ENCODING 213
SWIDTH 785 0
DWIDTH 11 0
BBX 9 13 1 0
BITMAP
3A00
2E00
0000
1C00
6300
4100
8080
8080
8080
8080
4100
6300
1C00
ENDCHAR
STARTCHAR 00D6
ENCODING 214
SWIDTH 785 0
DWIDTH 11 0
BBX 9 12 1 0
BITMAP
1200
0000
1C00
6300
4100
8080
8080
8080
8080
4100
6300
1C00
ENDCHAR
STARTCHAR 00D7
ENCODING 215
SWIDTH 785 0
DWIDTH 11 0
BBX 7 7 2 1
BITMAP
82
44
28
10
28
44
82
ENDCHAR
STARTCHAR 00D8
ENCODING 216
SWIDTH 785 0
DWIDTH 11 0
BBX 9 10 1 0
BITMAP
1C80
6300
4300
8480
8C80
8880
9080
6100
6300
9C00
ENDCHAR
STARTCHAR 00D9
ENCODING 217
SWIDTH 714 0
DWIDTH 10 0
BBX 8 13 1 0
BITMAP
30
18
00
81
81
81
81
81
81
81
81
42
3C
ENDCHAR
STARTCHAR 00DA
ENCODING 218
SWIDTH 714 0
DWIDTH 10 0
BBX 8 13 1 0
BITMAP
0C
18
00
81
81
81
81
81
81
81
81
42
3C
ENDCHAR
STARTCHAR 00DB
ENCODING 219
SWIDTH 714 0
DWIDTH 10 0
BBX 8 13 1 0
BITMAP
38
6C
00
81
81
81
81
81
81
81
81
42
3C
ENDCHAR
STARTCHAR 00DC
ENCODING 220
SWIDTH 714 0
DWIDTH 10 0
BBX 8 12 1 0
BITMAP
24
00
81
81
81
81
81
81
81
81
42
3C
ENDCHAR
STARTCHAR 00DD
ENCODING 221
SWIDTH 642 0
DWIDTH 9 0
BBX 9 13 0 0
BITMAP
0C00
1800
0000
8080
4100
2200
2200
1400
0800
0800
0800
0800
0800
ENDCHAR
STARTCHAR 00DE
ENCODING 222
SWIDTH 571 0
DWIDTH 8 0
BBX 6 10 1 0
BITMAP
80
80
F8
84
84
84
88
F0
80
80
ENDCHAR
STARTCHAR 00DF
ENCODING 223
SWIDTH 571 0
DWIDTH 8 0
BBX 6 11 1 0
BITMAP
70
88
88
90
A0
A0
90
88
84
84
B8
ENDCHAR
STARTCHAR 00E0
ENCODING 224
SWIDTH 571 0
DWIDTH 8 0
BBX 7 11 1 0
BITMAP
30
18
00
38
44
04
7C
84
84
8C
76
ENDCHAR
STARTCHAR 00E1
ENCODING 225
SWIDTH 571 0
DWIDTH 8 0
BBX 7 11 1 0
BITMAP
18
30
00
38
44
04
7C
84
84
8C
76
ENDCHAR
STARTCHAR 00E2
ENCODING 226
SWIDTH 571 0
DWIDTH 8 0
BBX 7 11 1 0
BITMAP
38
6C
00
38
44
04
7C
84
84
8C
76
ENDCHAR
STARTCHAR 00E3
ENCODING 227
SWIDTH 571 0
DWIDTH 8 0
BBX 7 11 1 0
BITMAP
74
5C
00
38
44
04
7C
84
84
8C
76
ENDCHAR
STARTCHAR 00E4
ENCODING 228
SWIDTH 571 0
DWIDTH 8 0
BBX 7 10 1 0
BITMAP
48
00
38
44
04
7C
84
84
8C
76
ENDCHAR
STARTCHAR 00E5
ENCODING 229
SWIDTH 571 0
DWIDTH 8 0
BBX 7 12 1 0
BITMAP
38
28
38
00
38
44
04
7C
84
84
8C
76
ENDCHAR
STARTCHAR 00E6
ENCODING 230
SWIDTH 857 0
DWIDTH 12 0
BBX 10 8 1 0
BITMAP
3380
4C40
0840
7FC0
8800
8800
8C00
73C0
ENDCHAR
STARTCHAR 00E7
ENCODING 231
SWIDTH 500 0
DWIDTH 7 0
BBX 6 11 1 -3
BITMAP
3C
40
80
80
80
80
40
3C
10
10
30
ENDCHAR
STARTCHAR 00E8
ENCODING 232
SWIDTH 571 0
DWIDTH 8 0
BBX 6 11 1 0
BITMAP
60
30
00
30
48
84
FC
80
80
40
3C
ENDCHAR
STARTCHAR 00E9
ENCODING 233
SWIDTH 571 0
DWIDTH 8 0
BBX 6 11 1 0
BITMAP
18
30
00
30
48
84
FC
80
80
40
3C
ENDCHAR
STARTCHAR 00EA
ENCODING 234
SWIDTH 571 0
DWIDTH 8 0
BBX 6 11 1 0
BITMAP
70
D8
00
30
48
84
FC
80
80
40
3C
ENDCHAR
STARTCHAR 00EB
ENCODING 235
SWIDTH 571 0
DWIDTH 8 0
BBX 6 10 1 0
BITMAP
48
00
30
48
84
FC
80
80
40
3C
ENDCHAR
STARTCHAR 00EC
ENCODING 236
SWIDTH 285 0
DWIDTH 4 0
BBX 3 11 -1 0
BITMAP
C0
60
00
20
20
20
20
20
20
20
20
ENDCHAR
STARTCHAR 00ED
ENCODING 237
SWIDTH 285 0
DWIDTH 4 0
BBX 3 11 0 0
BITMAP
60
C0
00
40
40
40
40
40
40
40
40
ENDCHAR
STARTCHAR 00EE
ENCODING 238
SWIDTH 285 0
DWIDTH 4 0
BBX 5 11 -1 0
BITMAP
70
D8
00
20
20
20
20
20
20
20
20
ENDCHAR
STARTCHAR 00EF
ENCODING 239
SWIDTH 285 0
DWIDTH 4 0
BBX 4 10 -1 0
BITMAP
90
00
20
20
20
20
20
20
20
20
ENDCHAR
STARTCHAR 00F0
ENCODING 240
SWIDTH 571 0
DWIDTH 8 0
BBX 7 12 1 0
BITMAP
08
D0
30
48
3C
44
82
82
82
82
44
38
ENDCHAR
STARTCHAR 00F1
ENCODING 241
SWIDTH 642 0
DWIDTH 9 0
BBX 6 11 1 0
BITMAP
E8
B8
00
B8
C4
84
84
84
84
84
84
ENDCHAR
STARTCHAR 00F2
ENCODING 242
SWIDTH 642 0
DWIDTH 9 0
BBX 7 11 1 0
BITMAP
30
18
00
38
44
82
82
82
82
44
38
ENDCHAR
STARTCHAR 00F3
ENCODING 243
SWIDTH 642 0
DWIDTH 9 0
BBX 7 11 1 0
BITMAP
18
30
00
38
44
82
82
82
82
44
38
ENDCHAR
STARTCHAR 00F4
ENCODING 244
SWIDTH 642 0
DWIDTH 9 0
BBX 7 11 1 0
BITMAP
38
6C
00
38
44
82
82
82
82
44
38
ENDCHAR
STARTCHAR 00F5
ENCODING 245
SWIDTH 642 0
DWIDTH 9 0
BBX 7 11 1 0
BITMAP
74
5C
00
38
44
82
82
82
82
44
38
ENDCHAR
STARTCHAR 00F6
ENCODING 246
SWIDTH 642 0
DWIDTH 9 0
BBX 7 10 1 0
BITMAP
24
00
38
44
82
82
82
82
44
38
ENDCHAR
STARTCHAR 00F7
ENCODING 247
SWIDTH 785 0
DWIDTH 11 0
BBX 7 7 2 1
BITMAP
10
00
00
FE
00
00
10
ENDCHAR
STARTCHAR 00F8
ENCODING 248
SWIDTH 642 0
DWIDTH 9 0
BBX 7 8 1 0
BITMAP
3A
44
8A
9A
B2
A2
44
B8
ENDCHAR
STARTCHAR 00F9
ENCODING 249
SWIDTH 642 0
DWIDTH 9 0
BBX 6 11 1 0
BITMAP
60
30
00
84
84
84
84
84
84
8C
74
ENDCHAR
STARTCHAR 00FA
ENCODING 250
SWIDTH 642 0
DWIDTH 9 0
BBX 6 11 1 0
BITMAP
18
30
00
84
84
84
84
84
84
8C
74
ENDCHAR
STARTCHAR 00FB
ENCODING 251
SWIDTH 642 0
DWIDTH 9 0
BBX 6 11 1 0
BITMAP
70
D8
00
84
84
84
84
84
84
8C
74
ENDCHAR
STARTCHAR 00FC
ENCODING 252
SWIDTH 642 0
DWIDTH 9 0
BBX 6 10 1 0
BITMAP
48
00
84
84
84
84
84
84
8C
74
ENDCHAR
STARTCHAR 00FD
ENCODING 253
SWIDTH 500 0
DWIDTH 7 0
BBX 7 14 0 -3
BITMAP
18
30
00
82
44
44
44
28
28
28
10
10
10
20
ENDCHAR
STARTCHAR 00FE
ENCODING 254
SWIDTH 642 0
DWIDTH 9 0
BBX 7 14 1 -3
BITMAP
80
80
80
B8
C4
82
82
82
82
C4
B8
80
80
80
ENDCHAR
STARTCHAR 00FF
ENCODING 255
SWIDTH 500 0
DWIDTH 7 0
BBX 7 13 0 -3
BITMAP
24
00
82
44
44
44
28
28
28
10
10
10
20
ENDCHAR
STARTCHAR 0100
ENCODING 256
SWIDTH 714 0
DWIDTH 10 0
BBX 9 12 0 0
BITMAP
3E00
0000
0800
1400
1400
2200
2200
2200
7F00
4100
4100
8080
ENDCHAR
STARTCHAR 0101
ENCODING 257
SWIDTH 571 0
DWIDTH 8 0
BBX 7 10 1 0
BITMAP
7C
00
38
44
04
7C
84
84
8C
76
ENDCHAR
STARTCHAR 0102
ENCODING 258
SWIDTH 714 0
DWIDTH 10 0
BBX 9 13 0 0
BITMAP
2200
1C00
0000
0800
1400
1400
2200
2200
2200
7F00
4100
4100
8080
ENDCHAR
STARTCHAR 0103
ENCODING 259
SWIDTH 571 0
DWIDTH 8 0
BBX 7 11 1 0
BITMAP
44
38
00
38
44
04
7C
84
84
8C
76
ENDCHAR
STARTCHAR 0104
ENCODING 260
SWIDTH 714 0
DWIDTH 10 0
BBX 9 13 0 -4
BITMAP
0800
1400
1400
2200
2200
2200
7F00
4100
4100
8080
0000
0200
0300
ENDCHAR
STARTCHAR 0105
ENCODING 261
SWIDTH 571 0
DWIDTH 8 0
BBX 7 11 1 -4
BITMAP
38
44
04
7C
84
84
8C
76
00
08
0C
ENDCHAR
STARTCHAR 0106
ENCODING 262
SWIDTH 714 0
DWIDTH 10 0
BBX 8 13 1 0
BITMAP
06
0C
00
1E
61
40
80
80
80
80
40
61
1E
ENDCHAR
STARTCHAR 0107
ENCODING 263
SWIDTH 500 0
DWIDTH 7 0
BBX 6 11 1 0
BITMAP
0C
18
00
3C
40
80
80
80
80
40
3C
ENDCHAR
STARTCHAR 0108
ENCODING 264
SWIDTH 714 0
DWIDTH 10 0
BBX 8 13 1 0
BITMAP
1C
36
00
1E
61
40
80
80
80
80
40
61
1E
ENDCHAR
STARTCHAR 0109
ENCODING 265
SWIDTH 500 0
DWIDTH 7 0
BBX 6 11 1 0
BITMAP
38
6C
00
3C
40
80
80
80
80
40
3C
ENDCHAR
STARTCHAR 010A
ENCODING 266
SWIDTH 714 0
DWIDTH 10 0
BBX 8 12 1 0
BITMAP
08
00
1E
61
40
80
80
80
80
40
61
1E
ENDCHAR
STARTCHAR 010B
ENCODING 267
SWIDTH 500 0
DWIDTH 7 0
BBX 6 10 1 0
BITMAP
10
00
3C
40
80
80
80
80
40
3C
ENDCHAR
STARTCHAR 010C
ENCODING 268
SWIDTH 714 0
DWIDTH 10 0
BBX 8 13 1 0
BITMAP
36
1C
00
1E
61
40
80
80
80
80
40
61
1E
ENDCHAR
STARTCHAR 010D
ENCODING 269
SWIDTH 500 0
DWIDTH 7 0
BBX 6 11 1 0
BITMAP
6C
38
00
3C
40
80
80
80
80
40
3C
ENDCHAR
STARTCHAR 010E
ENCODING 270
SWIDTH 714 0
DWIDTH 10 0
BBX 8 13 1 0
BITMAP
6C
38
00
F8
86
82
81
81
81
81
82
86
F8
ENDCHAR
STARTCHAR 010F
ENCODING 271
SWIDTH 785 0
DWIDTH 11 0
BBX 10 11 1 0
BITMAP
0240
0240
0280
3A00
4600
8200
8200
8200
8200
4600
3A00
ENDCHAR
STARTCHAR 0110
ENCODING 272
SWIDTH 714 0
DWIDTH 10 0
BBX 10 10 -1 0
BITMAP
3E00
2180
2080
2040
FC40
2040
2040
2080
2180
3E00
ENDCHAR
STARTCHAR 0111
ENCODING 273
SWIDTH 642 0
DWIDTH 9 0
BBX 9 11 1 0
BITMAP
0200
0F80
0200
3A00
4600
8200
8200
8200
8200
4600
3A00
ENDCHAR
STARTCHAR 0112
ENCODING 274
SWIDTH 571 0
DWIDTH 8 0
BBX 6 12 1 0
BITMAP
F8
00
FC
80
80
80
F8
80
80
80
80
FC
ENDCHAR
STARTCHAR 0113
ENCODING 275
SWIDTH 571 0
DWIDTH 8 0
BBX 6 10 1 0
BITMAP
7C
00
30
48
84
FC
80
80
40
3C
ENDCHAR
STARTCHAR 0114
ENCODING 276
SWIDTH 571 0
DWIDTH 8 0
BBX 6 13 1 0
BITMAP
88
70
00
FC
80
80
80
F8
80
80
80
80
FC
ENDCHAR
STARTCHAR 0115
ENCODING 277
SWIDTH 571 0
DWIDTH 8 0
BBX 6 11 1 0
BITMAP
44
38
00
30
48
84
FC
80
80
40
3C
ENDCHAR
STARTCHAR 0116
ENCODING 278
SWIDTH 571 0
DWIDTH 8 0
BBX 6 12 1 0
BITMAP
20
00
FC
80
80
80
F8
80
80
80
80
FC
ENDCHAR
STARTCHAR 0117
ENCODING 279
SWIDTH 571 0
DWIDTH 8 0
BBX 6 10 1 0
BITMAP
20
00
30
48
84
FC
80
80
40
3C
ENDCHAR
STARTCHAR 0118
ENCODING 280
SWIDTH 571 0
DWIDTH 8 0
BBX 6 13 1 -4
BITMAP
FC
80
80
80
F8
80
80
80
80
FC
00
08
0C
ENDCHAR
STARTCHAR 0119
ENCODING 281
SWIDTH 571 0
DWIDTH 8 0
BBX 6 11 1 -4
BITMAP
30
48
84
FC
80
80
40
3C
00
20
30
ENDCHAR
STARTCHAR 011A
ENCODING 282
SWIDTH 571 0
DWIDTH 8 0
BBX 6 13 1 0
BITMAP
D8
70
00
FC
80
80
80
F8
80
80
80
80
FC
ENDCHAR
STARTCHAR 011B
ENCODING 283
SWIDTH 571 0
DWIDTH 8 0
BBX 6 11 1 0
BITMAP
6C
38
00
30
48
84
FC
80
80
40
3C
ENDCHAR
STARTCHAR 011C
ENCODING 284
SWIDTH 714 0
DWIDTH 10 0
BBX 8 13 1 0
BITMAP
1C
36
00
1F
60
40
80
80
80
81
41
61
1F
ENDCHAR
STARTCHAR 011D
ENCODING 285
SWIDTH 642 0
DWIDTH 9 0
BBX 7 14 1 -3
BITMAP
38
6C
00
3A
46
82
82
82
82
46
3A
02
04
78
ENDCHAR
STARTCHAR 011E
ENCODING 286
SWIDTH 714 0
DWIDTH 10 0
BBX 8 13 1 0
BITMAP
22
1C
00
1F
60
40
80
80
80
81
41
61
1F
ENDCHAR
STARTCHAR 011F
ENCODING 287
SWIDTH 642 0
DWIDTH 9 0
BBX 7 14 1 -3
BITMAP
44
38
00
3A
46
82
82
82
82
46
3A
02
04
78
ENDCHAR
STARTCHAR 0120
ENCODING 288
SWIDTH 714 0
DWIDTH 10 0
BBX 8 12 1 0
BITMAP
08
00
1F
60
40
80
80
80
81
41
61
1F
ENDCHAR
STARTCHAR 0121
ENCODING 289
SWIDTH 642 0
DWIDTH 9 0
BBX 7 13 1 -3
BITMAP
10
00
3A
46
82
82
82
82
46
3A
02
04
78
ENDCHAR
STARTCHAR 0122
ENCODING 290
SWIDTH 714 0
DWIDTH 10 0
BBX 8 13 1 -3
BITMAP
1F
60
40
80
80
80
81
41
61
1F
08
08
18
ENDCHAR
STARTCHAR 0123
ENCODING 291
SWIDTH 642 0
DWIDTH 9 0
BBX 7 15 1 -3
BITMAP
08
10
10
00
3A
46
82
82
82
82
46
3A
02
04
78
ENDCHAR
STARTCHAR 0124
ENCODING 292
SWIDTH 714 0
DWIDTH 10 0
BBX 8 13 1 0
BITMAP
38
6C
00
81
81
81
81
FF
81
81
81
81
81
ENDCHAR
STARTCHAR 0125
ENCODING 293
SWIDTH 642 0
DWIDTH 9 0
BBX 8 14 -1 0
BITMAP
70
D8
00
20
20
20
2E
31
21
21
21
21
21
21
ENDCHAR
STARTCHAR 0126
ENCODING 294
SWIDTH 785 0
DWIDTH 11 0
BBX 10 10 0 0
BITMAP
4080
4080
FFC0
4080
7F80
4080
4080
4080
4080
4080
ENDCHAR
STARTCHAR 0127
ENCODING 295
SWIDTH 642 0
DWIDTH 9 0
BBX 7 11 0 0
BITMAP
40
F0
40
5C
62
42
42
42
42
42
42
ENDCHAR
STARTCHAR 0128
ENCODING 296
SWIDTH 285 0
DWIDTH 4 0
BBX 5 13 -1 0
BITMAP
E8
B8
00
20
20
20
20
20
20
20
20
20
20
ENDCHAR
STARTCHAR 0129
ENCODING 297
SWIDTH 285 0
DWIDTH 4 0
BBX 5 11 -1 0
BITMAP
E8
B8
00
20
20
20
20
20
20
20
20
ENDCHAR
STARTCHAR 012A
ENCODING 298
SWIDTH 285 0
DWIDTH 4 0
BBX 5 12 -1 0
BITMAP
F8
00
20
20
20
20
20
20
20
20
20
20
ENDCHAR
STARTCHAR 012B
ENCODING 299
SWIDTH 285 0
DWIDTH 4 0
BBX 5 10 -1 0
BITMAP
F8
00
20
20
20
20
20
20
20
20
ENDCHAR
STARTCHAR 012C
ENCODING 300
SWIDTH 285 0
DWIDTH 4 0
BBX 5 13 -1 0
BITMAP
88
70
00
20
20
20
20
20
20
20
20
20
20
ENDCHAR
STARTCHAR 012D
ENCODING 301
SWIDTH 285 0
DWIDTH 4 0
BBX 5 11 -1 0
BITMAP
88
70
00
20
20
20
20
20
20
20
20
ENDCHAR
STARTCHAR 012E
ENCODING 302
SWIDTH 285 0
DWIDTH 4 0
BBX 2 13 0 -4
BITMAP
40
40
40
40
40
40
40
40
40
40
00
80
C0
ENDCHAR
STARTCHAR 012F
ENCODING 303
SWIDTH 285 0
DWIDTH 4 0
BBX 2 13 0 -4
BITMAP
40
00
40
40
40
40
40
40
40
40
00
80
C0
ENDCHAR
STARTCHAR 0130
ENCODING 304
SWIDTH 285 0
DWIDTH 4 0
BBX 1 12 1 0
BITMAP
80
00
80
80
80
80
80
80
80
80
80
80
ENDCHAR
STARTCHAR 0131
ENCODING 305
SWIDTH 285 0
DWIDTH 4 0
BBX 1 8 1 0
BITMAP
80
80
80
80
80
80
80
80
ENDCHAR
STARTCHAR 0132
ENCODING 306
SWIDTH 571 0
DWIDTH 8 0
BBX 6 12 1 -2
BITMAP
84
84
84
84
84
84
84
84
84
84
04
38
ENDCHAR
STARTCHAR 0133
ENCODING 307
SWIDTH 571 0
DWIDTH 8 0
BBX 6 13 1 -3
BITMAP
84
00
84
84
84
84
84
84
84
84
04
04
38
ENDCHAR
STARTCHAR 0134
ENCODING 308
SWIDTH 285 0
DWIDTH 4 0
BBX 6 15 -1 -2
BITMAP
38
6C
00
10
10
10
10
10
10
10
10
10
10
10
E0
ENDCHAR
STARTCHAR 0135
ENCODING 309
SWIDTH 285 0
DWIDTH 4 0
BBX 6 14 -1 -3
BITMAP
38
6C
00
10
10
10
10
10
10
10
10
10
10
E0
ENDCHAR
STARTCHAR 0136
ENCODING 310
SWIDTH 642 0
DWIDTH 9 0
BBX 7 13 1 -3
BITMAP
84
88
90
A0
C0
A0
90
88
84
82
10
10
30
ENDCHAR
STARTCHAR 0137
ENCODING 311
SWIDTH 571 0
DWIDTH 8 0
BBX 6 14 1 -3
BITMAP
80
80
80
88
90
A0
C0
A0
90
88
84
20
20
60
ENDCHAR
STARTCHAR 0138
ENCODING 312
SWIDTH 571 0
DWIDTH 8 0
BBX 6 8 1 0
BITMAP
84
88
90
E0
A0
90
88
84
ENDCHAR
STARTCHAR 0139
ENCODING 313
SWIDTH 500 0
DWIDTH 7 0
BBX 7 13 0 0
BITMAP
60
C0
00
40
40
40
40
40
40
40
40
40
7E
ENDCHAR
STARTCHAR 013A
ENCODING 314
SWIDTH 285 0
DWIDTH 4 0
BBX 3 14 0 0
BITMAP
60
C0
00
40
40
40
40
40
40
40
40
40
40
40
ENDCHAR
STARTCHAR 013B
ENCODING 315
SWIDTH 500 0
DWIDTH 7 0
BBX 6 13 1 -3
BITMAP
80
80
80
80
80
80
80
80
80
FC
20
20
60
ENDCHAR
STARTCHAR 013C
ENCODING 316
SWIDTH 285 0
DWIDTH 4 0
BBX 2 14 0 -3
BITMAP
40
40
40
40
40
40
40
40
40
40
40
40
40
C0
ENDCHAR
STARTCHAR 013D
ENCODING 317
SWIDTH 500 0
DWIDTH 7 0
BBX 6 10 1 0
BITMAP
90
90
A0
80
80
80
80
80
80
FC
ENDCHAR
STARTCHAR 013E
ENCODING 318
SWIDTH 285 0
DWIDTH 4 0
BBX 4 11 1 0
BITMAP
90
90
A0
80
80
80
80
80
80
80
80
ENDCHAR
STARTCHAR 013F
ENCODING 319
SWIDTH 500 0
DWIDTH 7 0
BBX 6 10 1 0
BITMAP
80
80
80
80
90
80
80
80
80
FC
ENDCHAR
STARTCHAR 0140
ENCODING 320
SWIDTH 285 0
DWIDTH 4 0
BBX 4 11 1 0
BITMAP
80
80
80
80
80
90
80
80
80
80
80
ENDCHAR
STARTCHAR 0141
ENCODING 321
SWIDTH 500 0
DWIDTH 7 0
BBX 8 10 -1 0
BITMAP
20
20
20
28
30
60
A0
20
20
3F
ENDCHAR
STARTCHAR 0142
ENCODING 322
SWIDTH 285 0
DWIDTH 4 0
BBX 5 11 -1 0
BITMAP
20
20
20
20
28
70
A0
20
20
20
20
ENDCHAR
STARTCHAR 0143
ENCODING 323
SWIDTH 714 0
DWIDTH 10 0
BBX 8 13 1 0
BITMAP
18
30
00
C1
C1
A1
91
91
89
89
85
83
83
ENDCHAR
STARTCHAR 0144
ENCODING 324
SWIDTH 642 0
DWIDTH 9 0
BBX 6 11 1 0
BITMAP
18
30
00
B8
C4
84
84
84
84
84
84
ENDCHAR
STARTCHAR 0145
ENCODING 325
SWIDTH 714 0
DWIDTH 10 0
BBX 8 13 1 -3
BITMAP
C1
C1
A1
91
91
89
89
85
83
83
08
08
18
ENDCHAR
STARTCHAR 0146
ENCODING 326
SWIDTH 642 0
DWIDTH 9 0
BBX 6 11 1 -3
BITMAP
B8
C4
84
84
84
84
84
84
20
20
60
ENDCHAR
STARTCHAR 0147
ENCODING 327
SWIDTH 714 0
DWIDTH 10 0
BBX 8 13 1 0
BITMAP
6C
38
00
C1
C1
A1
91
91
89
89
85
83
83
ENDCHAR
STARTCHAR 0148
ENCODING 328
SWIDTH 642 0
DWIDTH 9 0
BBX 6 11 1 0
BITMAP
D8
70
00
B8
C4
84
84
84
84
84
84
ENDCHAR
STARTCHAR 0149
ENCODING 329
SWIDTH 642 0
DWIDTH 9 0
BBX 10 11 -1 0
BITMAP
4000
4000
8000
0B80
0C40
0840
0840
0840
0840
0840
0840
ENDCHAR
STARTCHAR 014A
ENCODING 330
SWIDTH 714 0
DWIDTH 10 0
BBX 8 13 1 -3
BITMAP
C1
C1
A1
91
91
89
85
85
83
83
01
01
06
ENDCHAR
STARTCHAR 014B
ENCODING 331
SWIDTH 642 0
DWIDTH 9 0
BBX 6 11 1 -3
BITMAP
B8
C4
84
84
84
84
84
84
04
04
18
ENDCHAR
STARTCHAR 014C
ENCODING 332
SWIDTH 785 0
DWIDTH 11 0
BBX 9 12 1 0
BITMAP
3E00
0000
1C00
6300
4100
8080
8080
8080
8080
4100
6300
1C00
ENDCHAR
STARTCHAR 014D
ENCODING 333
SWIDTH 642 0
DWIDTH 9 0
BBX 7 10 1 0
BITMAP
7C
00
38
44
82
82
82
82
44
38
ENDCHAR
STARTCHAR 014E
ENCODING 334
SWIDTH 785 0
DWIDTH 11 0
BBX 9 13 1 0
BITMAP
2200
1C00
0000
1C00
6300
4100
8080
8080
8080
8080
4100
6300
1C00
ENDCHAR
STARTCHAR 014F
ENCODING 335
SWIDTH 642 0
DWIDTH 9 0
BBX 7 11 1 0
BITMAP
44
38
00
38
44
82
82
82
82
44
38
ENDCHAR
STARTCHAR 0150
ENCODING 336
SWIDTH 785 0
DWIDTH 11 0
BBX 9 13 1 0
BITMAP
1B00
3600
0000
1C00
6300
4100
8080
8080
8080
8080
4100
6300
1C00
ENDCHAR
STARTCHAR 0151
ENCODING 337
SWIDTH 642 0
DWIDTH 9 0
BBX 7 11 1 0
BITMAP
36
6C
00
38
44
82
82
82
82
44
38
ENDCHAR
STARTCHAR 0152
ENCODING 338
SWIDTH 1000 0
DWIDTH 14 0
BBX 13 10 1 0
BITMAP
1DF8
6300
4100
8100
81F0
8100
8100
4100
6300
1DF8
ENDCHAR
STARTCHAR 0153
ENCODING 339
SWIDTH 928 0
DWIDTH 13 0
BBX 11 8 1 0
BITMAP
3180
4A40
8420
87E0
8400
8400
4A00
31E0
ENDCHAR
STARTCHAR 0154
ENCODING 340
SWIDTH 642 0
DWIDTH 9 0
BBX 7 13 1 0
BITMAP
18
30
00
F8
84
84
84
88
F0
90
88
84
82
ENDCHAR
STARTCHAR 0155
ENCODING 341
SWIDTH 428 0
DWIDTH 6 0
BBX 4 11 1 0
BITMAP
30
60
00
B0
C0
80
80
80
80
80
80
ENDCHAR
STARTCHAR 0156
ENCODING 342
SWIDTH 642 0
DWIDTH 9 0
BBX 7 13 1 -3
BITMAP
F8
84
84
84
88
F0
90
88
84
82
10
10
30
ENDCHAR
STARTCHAR 0157
ENCODING 343
SWIDTH 428 0
DWIDTH 6 0
BBX 5 11 0 -3
BITMAP
58
60
40
40
40
40
40
40
40
40
C0
ENDCHAR
STARTCHAR 0158
ENCODING 344
SWIDTH 642 0
DWIDTH 9 0
BBX 7 13 1 0
BITMAP
D8
70
00
F8
84
84
84
88
F0
90
88
84
82
ENDCHAR
STARTCHAR 0159
ENCODING 345
SWIDTH 428 0
DWIDTH 6 0
BBX 5 11 0 0
BITMAP
D8
70
00
58
60
40
40
40
40
40
40
ENDCHAR
STARTCHAR 015A
ENCODING 346
SWIDTH 571 0
DWIDTH 8 0
BBX 6 13 1 0
BITMAP
18
30
00
78
80
80
40
30
18
04
04
04
F8
ENDCHAR
STARTCHAR 015B
ENCODING 347
SWIDTH 500 0
DWIDTH 7 0
BBX 5 11 1 0
BITMAP
30
60
00
70
80
80
70
08
08
08
F0
ENDCHAR
STARTCHAR 015C
ENCODING 348
SWIDTH 571 0
DWIDTH 8 0
BBX 6 13 1 0
BITMAP
70
D8
00
78
80
80
40
30
18
04
04
04
F8
ENDCHAR
STARTCHAR 015D
ENCODING 349
SWIDTH 500 0
DWIDTH 7 0
BBX 5 11 1 0
BITMAP
70
D8
00
70
80
80
70
08
08
08
F0
ENDCHAR
STARTCHAR 015E
ENCODING 350
SWIDTH 571 0
DWIDTH 8 0
BBX 6 13 1 -3
BITMAP
78
80
80
40
30
18
04
04
04
F8
10
10
30
ENDCHAR
STARTCHAR 015F
ENCODING 351
SWIDTH 500 0
DWIDTH 7 0
BBX 5 11 1 -3
BITMAP
70
80
80
70
08
08
08
F0
20
20
60
ENDCHAR
STARTCHAR 0160
ENCODING 352
SWIDTH 571 0
DWIDTH 8 0
BBX 6 13 1 0
BITMAP
D8
70
00
78
80
80
40
30
18
04
04
04
F8
ENDCHAR
STARTCHAR 0161
ENCODING 353
SWIDTH 500 0
DWIDTH 7 0
BBX 6 11 0 0
BITMAP
D8
70
00
38
40
40
38
04
04
04
78
ENDCHAR
STARTCHAR 0162
ENCODING 354
SWIDTH 642 0
DWIDTH 9 0
BBX 9 13 0 -3
BITMAP
FF80
0800
0800
0800
0800
0800
0800
0800
0800
0800
0800
0800
1800
ENDCHAR
STARTCHAR 0163
ENCODING 355
SWIDTH 357 0
DWIDTH 5 0
BBX 4 12 0 -3
BITMAP
40
F0
40
40
40
40
40
40
30
20
20
60
ENDCHAR
STARTCHAR 0164
ENCODING 356
SWIDTH 642 0
DWIDTH 9 0
BBX 9 13 0 0
BITMAP
3600
1C00
0000
FF80
0800
0800
0800
0800
0800
0800
0800
0800
0800
ENDCHAR
STARTCHAR 0165
ENCODING 357
SWIDTH 571 0
DWIDTH 8 0
BBX 5 12 0 0
BITMAP
08
08
10
40
F0
40
40
40
40
40
40
30
ENDCHAR
STARTCHAR 0166
ENCODING 358
SWIDTH 642 0
DWIDTH 9 0
BBX 9 10 0 0
BITMAP
FF80
0800
0800
0800
3E00
0800
0800
0800
0800
0800
ENDCHAR
STARTCHAR 0167
ENCODING 359
SWIDTH 357 0
DWIDTH 5 0
BBX 4 9 0 0
BITMAP
40
F0
40
40
F0
40
40
40
30
ENDCHAR
STARTCHAR 0168
ENCODING 360
SWIDTH 714 0
DWIDTH 10 0
BBX 8 13 1 0
BITMAP
74
5C
00
81
81
81
81
81
81
81
81
42
3C
ENDCHAR
STARTCHAR 0169
ENCODING 361
SWIDTH 642 0
DWIDTH 9 0
BBX 6 11 1 0
BITMAP
E8
B8
00
84
84
84
84
84
84
8C
74
ENDCHAR
STARTCHAR 016A
ENCODING 362
SWIDTH 714 0
DWIDTH 10 0
BBX 8 12 1 0
BITMAP
7C
00
81
81
81
81
81
81
81
81
42
3C
ENDCHAR
STARTCHAR 016B
ENCODING 363
SWIDTH 642 0
DWIDTH 9 0
BBX 6 10 1 0
BITMAP
F8
00
84
84
84
84
84
84
8C
74
ENDCHAR
STARTCHAR 016C
ENCODING 364
SWIDTH 714 0
DWIDTH 10 0
BBX 8 13 1 0
BITMAP
44
38
00
81
81
81
81
81
81
81
81
42
3C
ENDCHAR
STARTCHAR 016D
ENCODING 365
SWIDTH 642 0
DWIDTH 9 0
BBX 6 11 1 0
BITMAP
88
70
00
84
84
84
84
84
84
8C
74
ENDCHAR
STARTCHAR 016E
ENCODING 366
SWIDTH 714 0
DWIDTH 10 0
BBX 8 14 1 0
BITMAP
38
28
38
00
81
81
81
81
81
81
81
81
42
3C
ENDCHAR
STARTCHAR 016F
ENCODING 367
SWIDTH 642 0
DWIDTH 9 0
BBX 6 12 1 0
BITMAP
70
50
70
00
84
84
84
84
84
84
8C
74
ENDCHAR
STARTCHAR 0170
ENCODING 368
SWIDTH 714 0
DWIDTH 10 0
BBX 8 13 1 0
BITMAP
1B
36
00
81
81
81
81
81
81
81
81
42
3C
ENDCHAR
STARTCHAR 0171
ENCODING 369
SWIDTH 642 0
DWIDTH 9 0
BBX 7 11 1 0
BITMAP
36
6C
00
84
84
84
84
84
84
8C
74
ENDCHAR
STARTCHAR 0172
ENCODING 370
SWIDTH 714 0
DWIDTH 10 0
BBX 8 13 1 -4
BITMAP
81
81
81
81
81
81
81
81
42
3C
00
08
0C
ENDCHAR
STARTCHAR 0173
ENCODING 371
SWIDTH 642 0
DWIDTH 9 0
BBX 6 11 1 -4
BITMAP
84
84
84
84
84
84
8C
74
00
08
0C
ENDCHAR
STARTCHAR 0174
ENCODING 372
SWIDTH 857 0
DWIDTH 12 0
BBX 12 13 0 0
BITMAP
0E00
1B00
0000
8610
C630
4620
4620
4920
2940
2940
2940
1080
1080
ENDCHAR
STARTCHAR 0175
ENCODING 373
SWIDTH 785 0
DWIDTH 11 0
BBX 10 11 0 0
BITMAP
1C00
3600
0000
8C40
8C40
4C80
5280
5280
5280
2100
2100
ENDCHAR
STARTCHAR 0176
ENCODING 374
SWIDTH 642 0
DWIDTH 9 0
BBX 9 13 0 0
BITMAP
1C00
3600
0000
8080
4100
2200
2200
1400
0800
0800
0800
0800
0800
ENDCHAR
STARTCHAR 0177
ENCODING 375
SWIDTH 500 0
DWIDTH 7 0
BBX 7 14 0 -3
BITMAP
38
6C
00
82
44
44
44
28
28
28
10
10
10
20
ENDCHAR
STARTCHAR 0178
ENCODING 376
SWIDTH 642 0
DWIDTH 9 0
BBX 9 12 0 0
BITMAP
1200
0000
8080
4100
2200
2200
1400
0800
0800
0800
0800
0800
ENDCHAR
STARTCHAR 0179
ENCODING 377
SWIDTH 571 0
DWIDTH 8 0
BBX 7 13 0 0
BITMAP
0C
18
00
FE
02
04
08
10
10
20
40
80
FE
ENDCHAR
STARTCHAR 017A
ENCODING 378
SWIDTH 571 0
DWIDTH 8 0
BBX 6 11 1 0
BITMAP
18
30
00
FC
04
08
10
20
40
80
FC
ENDCHAR
STARTCHAR 017B
ENCODING 379
SWIDTH 571 0
DWIDTH 8 0
BBX 7 12 0 0
BITMAP
10
00
FE
02
04
08
10
10
20
40
80
FE
ENDCHAR
STARTCHAR 017C
ENCODING 380
SWIDTH 571 0
DWIDTH 8 0
BBX 6 10 1 0
BITMAP
10
00
FC
04
08
10
20
40
80
FC
ENDCHAR
STARTCHAR 017D
ENCODING 381
SWIDTH 571 0
DWIDTH 8 0
BBX 7 13 0 0
BITMAP
6C
38
00
FE
02
04
08
10
10
20
40
80
FE
ENDCHAR
STARTCHAR 017E
ENCODING 382
SWIDTH 571 0
DWIDTH 8 0
BBX 6 11 1 0
BITMAP
6C
38
00
FC
04
08
10
20
40
80
FC
ENDCHAR
STARTCHAR 017F
ENCODING 383
SWIDTH 357 0
DWIDTH 5 0
BBX 5 11 1 0
BITMAP
38
40
40
C0
40
40
40
40
40
40
40
ENDCHAR
STARTCHAR 0180
ENCODING 384
SWIDTH 642 0
DWIDTH 9 0
BBX 8 11 0 0
BITMAP
40
F0
40
5C
62
41
41
41
41
62
5C
ENDCHAR
STARTCHAR 0181
ENCODING 385
SWIDTH 714 0
DWIDTH 10 0
BBX 9 10 0 0
BITMAP
7F00
9080
9080
1100
1E00
1100
1080
1080
1180
1F00
ENDCHAR
STARTCHAR 0182
ENCODING 386
SWIDTH 571 0
DWIDTH 8 0
BBX 6 10 1 0
BITMAP
FC
80
80
80
F8
8C
84
84
8C
F8
ENDCHAR
STARTCHAR 0183
ENCODING 387
SWIDTH 642 0
DWIDTH 9 0
BBX 7 11 1 0
BITMAP
FC
80
80
BC
C4
82
82
82
82
C4
B8
ENDCHAR
STARTCHAR 0184
ENCODING 388
SWIDTH 571 0
DWIDTH 8 0
BBX 6 10 1 0
BITMAP
80
80
80
80
F8
8C
84
84
8C
F8
ENDCHAR
STARTCHAR 0185
ENCODING 389
SWIDTH 500 0
DWIDTH 7 0
BBX 5 8 1 0
BITMAP
80
80
80
F0
88
88
88
F0
ENDCHAR
STARTCHAR 0186
ENCODING 390
SWIDTH 714 0
DWIDTH 10 0
BBX 8 10 1 0
BITMAP
7C
86
03
01
01
01
01
03
06
FC
ENDCHAR
STARTCHAR 0187
ENCODING 391
SWIDTH 714 0
DWIDTH 10 0
BBX 10 13 1 0
BITMAP
00C0
0100
0100
3F00
6100
C000
8000
8000
8000
8000
C000
6100
3E00
ENDCHAR
STARTCHAR 0188
ENCODING 392
SWIDTH 500 0
DWIDTH 7 0
BBX 8 11 1 0
BITMAP
03
04
04
3C
40
80
80
80
80
40
3C
ENDCHAR
STARTCHAR 0189
ENCODING 393
SWIDTH 714 0
DWIDTH 10 0
BBX 10 10 -1 0
BITMAP
3E00
2180
2080
2040
FC40
2040
2040
2080
2180
3E00
ENDCHAR
STARTCHAR 018A
ENCODING 394
SWIDTH 857 0
DWIDTH 12 0
BBX 11 10 0 0
BITMAP
7F80
90C0
9060
1020
1020
1020
1020
1040
10C0
1F80
ENDCHAR
STARTCHAR 018B
ENCODING 395
SWIDTH 571 0
DWIDTH 8 0
BBX 6 10 1 0
BITMAP
FC
04
04
04
7C
C4
84
84
C4
7C
ENDCHAR
STARTCHAR 018C
ENCODING 396
SWIDTH 642 0
DWIDTH 9 0
BBX 7 11 1 0
BITMAP
7E
02
02
3A
46
82
82
82
82
46
7A
ENDCHAR
STARTCHAR 018D
ENCODING 397
SWIDTH 571 0
DWIDTH 8 0
BBX 7 11 1 0
BITMAP
38
44
82
82
82
44
38
1C
06
02
3C
ENDCHAR
STARTCHAR 018E
ENCODING 398
SWIDTH 571 0
DWIDTH 8 0
BBX 6 10 0 0
BITMAP
FC
04
04
04
04
7C
04
04
04
FC
ENDCHAR
STARTCHAR 018F
ENCODING 399
SWIDTH 642 0
DWIDTH 9 0
BBX 8 10 1 0
BITMAP
7C
86
03
01
01
FF
81
83
46
3C
ENDCHAR
STARTCHAR 0190
ENCODING 400
SWIDTH 500 0
DWIDTH 7 0
BBX 6 10 1 0
BITMAP
78
84
80
40
30
C0
80
80
C4
78
ENDCHAR
STARTCHAR 0191
ENCODING 401
SWIDTH 571 0
DWIDTH 8 0
BBX 8 13 -1 -3
BITMAP
3F
20
20
20
3E
20
20
20
20
20
20
20
C0
ENDCHAR
STARTCHAR 0192
ENCODING 402
SWIDTH 357 0
DWIDTH 5 0
BBX 7 14 -1 -3
BITMAP
0E
10
10
3C
10
10
10
10
10
10
10
10
10
E0
ENDCHAR
STARTCHAR 0193
ENCODING 403
SWIDTH 714 0
DWIDTH 10 0
BBX 10 13 1 0
BITMAP
00C0
0100
0100
3F00
6100
C000
8000
8000
8000
8100
C100
6100
3F00
ENDCHAR
STARTCHAR 0194
ENCODING 404
SWIDTH 642 0
DWIDTH 9 0
BBX 9 13 0 -3
BITMAP
8080
4100
4100
2200
2600
1400
1C00
1800
0800
1C00
1200
1200
1C00
ENDCHAR
STARTCHAR 0195
ENCODING 405
SWIDTH 928 0
DWIDTH 13 0
BBX 11 11 1 0
BITMAP
8000
8000
8000
B820
C420
8420
8420
8420
8440
8440
8380
ENDCHAR
STARTCHAR 0196
ENCODING 406
SWIDTH 428 0
DWIDTH 6 0
BBX 4 10 1 0
BITMAP
80
80
80
80
80
80
80
80
80
70
ENDCHAR
STARTCHAR 0197
ENCODING 407
SWIDTH 357 0
DWIDTH 5 0
BBX 5 10 0 0
BITMAP
20
20
20
20
F8
20
20
20
20
20
ENDCHAR
STARTCHAR 0198
ENCODING 408
SWIDTH 642 0
DWIDTH 9 0
BBX 9 10 1 0
BITMAP
8380
8C00
9000
A000
C000
A000
9000
9800
8C00
8600
ENDCHAR
STARTCHAR 0199
ENCODING 409
SWIDTH 571 0
DWIDTH 8 0
BBX 6 11 1 0
BITMAP
3C
40
80
8C
98
B0
E0
A0
90
88
84
ENDCHAR
STARTCHAR 019A
ENCODING 410
SWIDTH 357 0
DWIDTH 5 0
BBX 5 11 0 0
BITMAP
20
20
20
20
20
F8
20
20
20
20
20
ENDCHAR
STARTCHAR 019B
ENCODING 411
SWIDTH 571 0
DWIDTH 8 0
BBX 8 11 0 0
BITMAP
E0
3C
38
68
18
18
24
24
42
42
81
ENDCHAR
STARTCHAR 019C
ENCODING 412
SWIDTH 1071 0
DWIDTH 15 0
BBX 13 10 1 0
BITMAP
8208
8208
8208
8208
8208
8208
8208
8208
8E38
79E8
ENDCHAR
STARTCHAR 019D
ENCODING 413
SWIDTH 714 0
DWIDTH 10 0
BBX 10 13 -1 -3
BITMAP
3040
3040
2840
2C40
2440
2240
2340
2140
20C0
20C0
2000
2000
C000
ENDCHAR
STARTCHAR 019E
ENCODING 414
SWIDTH 642 0
DWIDTH 9 0
BBX 6 8 1 0
BITMAP
B8
C4
84
84
84
84
84
84
ENDCHAR
STARTCHAR 019F
ENCODING 415
SWIDTH 785 0
DWIDTH 11 0
BBX 9 10 1 0
BITMAP
3E00
4100
8100
8080
FF80
8080
8080
C180
6300
3E00
ENDCHAR
STARTCHAR 01A0
ENCODING 416
SWIDTH 785 0
DWIDTH 11 0
BBX 9 12 1 0
BITMAP
0080
0080
3F00
6300
C180
8080
8080
8080
8080
C180
6300
3E00
ENDCHAR
STARTCHAR 01A1
ENCODING 417
SWIDTH 642 0
DWIDTH 9 0
BBX 8 10 1 0
BITMAP
01
01
3E
44
82
82
82
82
44
38
ENDCHAR
STARTCHAR 01A2
ENCODING 418
SWIDTH 1071 0
DWIDTH 15 0
BBX 12 13 1 -3
BITMAP
3EE0
6310
C110
8090
8090
8090
8090
C190
6310
3E10
0010
0010
0010
ENDCHAR
STARTCHAR 01A3
ENCODING 419
SWIDTH 857 0
DWIDTH 12 0
BBX 10 11 1 -3
BITMAP
3B80
4640
8240
8240
8240
8240
4440
3840
0040
0040
0040
ENDCHAR
STARTCHAR 01A4
ENCODING 420
SWIDTH 642 0
DWIDTH 9 0
BBX 9 10 0 0
BITMAP
7F00
9180
9080
1080
1100
1E00
1000
1000
1000
1000
ENDCHAR
STARTCHAR 01A5
ENCODING 421
SWIDTH 642 0
DWIDTH 9 0
BBX 7 14 1 -3
BITMAP
78
40
80
BC
C4
82
82
82
82
C4
B8
80
80
80
ENDCHAR
STARTCHAR 01A6
ENCODING 422
SWIDTH 642 0
DWIDTH 9 0
BBX 7 13 1 -2
BITMAP
80
F8
8C
84
84
88
F0
90
88
88
84
04
02
ENDCHAR
STARTCHAR 01A7
ENCODING 423
SWIDTH 571 0
DWIDTH 8 0
BBX 6 10 1 0
BITMAP
78
04
04
0C
38
60
80
80
80
7C
ENDCHAR
STARTCHAR 01A8
ENCODING 424
SWIDTH 500 0
DWIDTH 7 0
BBX 5 8 1 0
BITMAP
70
08
08
30
E0
80
80
78
ENDCHAR
STARTCHAR 01A9
ENCODING 425
SWIDTH 571 0
DWIDTH 8 0
BBX 8 10 0 0
BITMAP
FF
40
20
10
08
08
10
20
40
FF
ENDCHAR
STARTCHAR 01AA
ENCODING 426
SWIDTH 500 0
DWIDTH 7 0
BBX 8 14 0 -3
BITMAP
70
88
88
78
08
08
08
08
08
08
08
08
08
07
ENDCHAR
STARTCHAR 01AB
ENCODING 427
SWIDTH 357 0
DWIDTH 5 0
BBX 4 12 0 -3
BITMAP
40
F0
40
40
40
40
40
40
30
10
10
60
ENDCHAR
STARTCHAR 01AC
ENCODING 428
SWIDTH 642 0
DWIDTH 9 0
BBX 9 10 0 0
BITMAP
7F80
8800
8800
0800
0800
0800
0800
0800
0800
0800
ENDCHAR
STARTCHAR 01AD
ENCODING 429
SWIDTH 357 0
DWIDTH 5 0
BBX 4 11 0 0
BITMAP
30
40
40
F0
40
40
40
40
40
40
30
ENDCHAR
STARTCHAR 01AE
ENCODING 430
SWIDTH 642 0
DWIDTH 9 0
BBX 9 13 0 -3
BITMAP
FF80
0800
0800
0800
0800
0800
0800
0800
0800
0800
0800
0800
0600
ENDCHAR
STARTCHAR 01AF
ENCODING 431
SWIDTH 857 0
DWIDTH 12 0
BBX 10 12 1 0
BITMAP
0040
0040
8380
8200
8200
8200
8200
8200
8200
8200
C600
7C00
ENDCHAR
STARTCHAR 01B0
ENCODING 432
SWIDTH 714 0
DWIDTH 10 0
BBX 9 10 1 0
BITMAP
0080
0080
8780
8400
8400
8400
8400
8400
8C00
7400
ENDCHAR
STARTCHAR 01B1
ENCODING 433
SWIDTH 785 0
DWIDTH 11 0
BBX 9 10 1 0
BITMAP
F780
2200
4100
8080
8080
8080
8080
C180
6300
3E00
ENDCHAR
STARTCHAR 01B2
ENCODING 434
SWIDTH 714 0
DWIDTH 10 0
BBX 8 10 1 0
BITMAP
86
83
83
81
81
81
81
82
46
3C
ENDCHAR
STARTCHAR 01B3
ENCODING 435
SWIDTH 642 0
DWIDTH 9 0
BBX 9 10 0 0
BITMAP
C180
2100
1200
1600
1C00
0800
0800
0800
0800
0800
ENDCHAR
STARTCHAR 01B4
ENCODING 436
SWIDTH 642 0
DWIDTH 9 0
BBX 10 13 0 -3
BITMAP
00C0
0100
8200
4200
4600
4400
2400
2800
2800
1800
1000
1000
2000
ENDCHAR
STARTCHAR 01B5
ENCODING 437
SWIDTH 571 0
DWIDTH 8 0
BBX 7 10 1 0
BITMAP
FE
06
04
08
7C
10
20
40
C0
FE
ENDCHAR
STARTCHAR 01B6
ENCODING 438
SWIDTH 571 0
DWIDTH 8 0
BBX 6 8 1 0
BITMAP
FC
0C
08
7C
20
40
C0
FC
ENDCHAR
STARTCHAR 01B7
ENCODING 439
SWIDTH 571 0
DWIDTH 8 0
BBX 6 10 1 0
BITMAP
FC
08
10
20
78
0C
04
04
0C
F8
ENDCHAR
STARTCHAR 01B8
ENCODING 440
SWIDTH 571 0
DWIDTH 8 0
BBX 6 10 1 0
BITMAP
FC
40
20
10
78
C0
80
80
C0
7C
ENDCHAR
STARTCHAR 01B9
ENCODING 441
SWIDTH 500 0
DWIDTH 7 0
BBX 6 11 1 -3
BITMAP
FC
40
20
10
38
40
80
80
80
40
3C
ENDCHAR
STARTCHAR 01BA
ENCODING 442
SWIDTH 500 0
DWIDTH 7 0
BBX 6 11 1 -3
BITMAP
FC
18
30
78
04
04
1C
70
C0
80
78
ENDCHAR
STARTCHAR 01BB
ENCODING 443
SWIDTH 642 0
DWIDTH 9 0
BBX 6 10 1 0
BITMAP
78
8C
04
04
08
FC
20
60
C0
FC
ENDCHAR
STARTCHAR 01BC
ENCODING 444
SWIDTH 642 0
DWIDTH 9 0
BBX 5 10 2 0
BITMAP
F8
80
80
80
E0
10
08
08
10
E0
ENDCHAR
STARTCHAR 01BD
ENCODING 445
SWIDTH 500 0
DWIDTH 7 0
BBX 4 8 1 0
BITMAP
F0
80
80
E0
10
10
10
E0
ENDCHAR
STARTCHAR 01BE
ENCODING 446
SWIDTH 428 0
DWIDTH 6 0
BBX 5 11 1 0
BITMAP
40
40
40
F0
40
40
30
08
08
08
F0
ENDCHAR
STARTCHAR 01BF
ENCODING 447
SWIDTH 571 0
DWIDTH 8 0
BBX 7 11 1 -3
BITMAP
BC
C2
82
82
84
88
B0
C0
80
80
80
ENDCHAR
STARTCHAR 01C0
ENCODING 448
SWIDTH 285 0
DWIDTH 4 0
BBX 1 11 2 0
BITMAP
80
80
80
80
80
80
80
80
80
80
80
ENDCHAR
STARTCHAR 01C1
ENCODING 449
SWIDTH 428 0
DWIDTH 6 0
BBX 3 11 2 0
BITMAP
A0
A0
A0
A0
A0
A0
A0
A0
A0
A0
A0
ENDCHAR
STARTCHAR 01C2
ENCODING 450
SWIDTH 642 0
DWIDTH 9 0
BBX 7 11 1 0
BITMAP
10
10
10
FE
10
10
FE
10
10
10
10
ENDCHAR
STARTCHAR 01C3
ENCODING 451
SWIDTH 285 0
DWIDTH 4 0
BBX 1 10 2 0
BITMAP
80
80
80
80
80
80
80
80
00
80
ENDCHAR
STARTCHAR 01C4
ENCODING 452
SWIDTH 1285 0
DWIDTH 18 0
BBX 15 13 1 0
BITMAP
006C
0038
0000
F8FE
8602
8204
8108
8110
8110
8120
8240
8680
F8FE
ENDCHAR
STARTCHAR 01C5
ENCODING 453
SWIDTH 1285 0
DWIDTH 18 0
BBX 16 11 1 0
BITMAP
001B
F80E
8600
823F
8101
8102
8104
8108
8210
8620
F83F
ENDCHAR
STARTCHAR 01C6
ENCODING 454
SWIDTH 1142 0
DWIDTH 16 0
BBX 14 11 1 0
BITMAP
026C
0238
0200
3AFC
4604
8208
8210
8220
8240
4680
3AFC
ENDCHAR
STARTCHAR 01C7
ENCODING 455
SWIDTH 857 0
DWIDTH 12 0
BBX 9 12 1 -2
BITMAP
8080
8080
8080
8080
8080
8080
8080
8080
8080
FC80
0080
0700
ENDCHAR
STARTCHAR 01C8
ENCODING 456
SWIDTH 785 0
DWIDTH 11 0
BBX 9 13 1 -3
BITMAP
8080
8000
8080
8080
8080
8080
8080
8080
8080
FC80
0080
0080
0700
ENDCHAR
STARTCHAR 01C9
ENCODING 457
SWIDTH 500 0
DWIDTH 7 0
BBX 5 14 1 -3
BITMAP
80
88
80
88
88
88
88
88
88
88
88
08
08
70
ENDCHAR
STARTCHAR 01CA
ENCODING 458
SWIDTH 1000 0
DWIDTH 14 0
BBX 12 12 1 -2
BITMAP
C110
C110
A110
9110
9110
8910
8910
8510
8310
8310
0010
00E0
ENDCHAR
STARTCHAR 01CB
ENCODING 459
SWIDTH 1000 0
DWIDTH 14 0
BBX 12 13 1 -3
BITMAP
C110
C100
A110
9110
9110
8910
8910
8510
8310
8310
0010
0010
00E0
ENDCHAR
STARTCHAR 01CC
ENCODING 460
SWIDTH 857 0
DWIDTH 12 0
BBX 10 13 1 -3
BITMAP
0040
0000
B840
C440
8440
8440
8440
8440
8440
8440
0040
0040
0380
ENDCHAR
STARTCHAR 01CD
ENCODING 461
SWIDTH 714 0
DWIDTH 10 0
BBX 9 13 0 0
BITMAP
3600
1C00
0000
0800
1400
1400
2200
2200
2200
7F00
4100
4100
8080
ENDCHAR
STARTCHAR 01CE
ENCODING 462
SWIDTH 571 0
DWIDTH 8 0
BBX 7 11 1 0
BITMAP
6C
38
00
38
44
04
7C
84
84
8C
76
ENDCHAR
STARTCHAR 01CF
ENCODING 463
SWIDTH 285 0
DWIDTH 4 0
BBX 5 13 -1 0
BITMAP
D8
70
00
20
20
20
20
20
20
20
20
20
20
ENDCHAR
STARTCHAR 01D0
ENCODING 464
SWIDTH 285 0
DWIDTH 4 0
BBX 5 11 -1 0
BITMAP
D8
70
00
20
20
20
20
20
20
20
20
ENDCHAR
STARTCHAR 01D1
ENCODING 465
SWIDTH 785 0
DWIDTH 11 0
BBX 9 13 1 0
BITMAP
3600
1C00
0000
1C00
6300
4100
8080
8080
8080
8080
4100
6300
1C00
ENDCHAR
STARTCHAR 01D2
ENCODING 466
SWIDTH 642 0
DWIDTH 9 0
BBX 7 11 1 0
BITMAP
6C
38
00
38
44
82
82
82
82
44
38
ENDCHAR
STARTCHAR 01D3
ENCODING 467
SWIDTH 714 0
DWIDTH 10 0
BBX 8 13 1 0
BITMAP
6C
38
00
81
81
81
81
81
81
81
81
42
3C
ENDCHAR
STARTCHAR 01D4
ENCODING 468
SWIDTH 642 0
DWIDTH 9 0
BBX 6 11 1 0
BITMAP
D8
70
00
84
84
84
84
84
84
8C
74
ENDCHAR
STARTCHAR 01D5
ENCODING 469
SWIDTH 714 0
DWIDTH 10 0
BBX 8 14 1 0
BITMAP
7C
00
44
00
81
81
81
81
81
81
81
81
42
3C
ENDCHAR
STARTCHAR 01D6
ENCODING 470
SWIDTH 642 0
DWIDTH 9 0
BBX 6 12 1 0
BITMAP
F8
00
88
00
84
84
84
84
84
84
8C
74
ENDCHAR
STARTCHAR 01D7
ENCODING 471
SWIDTH 714 0
DWIDTH 10 0
BBX 8 15 1 0
BITMAP
0C
18
00
24
00
81
81
81
81
81
81
81
81
42
3C
ENDCHAR
STARTCHAR 01D8
ENCODING 472
SWIDTH 642 0
DWIDTH 9 0
BBX 6 13 1 0
BITMAP
0C
18
00
48
00
84
84
84
84
84
84
8C
74
ENDCHAR
STARTCHAR 01D9
ENCODING 473
SWIDTH 714 0
DWIDTH 10 0
BBX 8 15 1 0
BITMAP
6C
38
00
44
00
81
81
81
81
81
81
81
81
42
3C
ENDCHAR
STARTCHAR 01DA
ENCODING 474
SWIDTH 642 0
DWIDTH 9 0
BBX 6 13 1 0
BITMAP
D8
70
00
88
00
84
84
84
84
84
84
8C
74
ENDCHAR
STARTCHAR 01DB
ENCODING 475
SWIDTH 714 0
DWIDTH 10 0
BBX 8 15 1 0
BITMAP
30
18
00
24
00
81
81
81
81
81
81
81
81
42
3C
ENDCHAR
STARTCHAR 01DC
ENCODING 476
SWIDTH 642 0
DWIDTH 9 0
BBX 6 13 1 0
BITMAP
60
30
00
48
00
84
84
84
84
84
84
8C
74
ENDCHAR
STARTCHAR 01DD
ENCODING 477
SWIDTH 571 0
DWIDTH 8 0
BBX 6 8 1 0
BITMAP
F0
08
04
04
FC
84
88
70
ENDCHAR
STARTCHAR 01DE
ENCODING 478
SWIDTH 714 0
DWIDTH 10 0
BBX 9 14 0 0
BITMAP
3E00
0000
2200
0000
0800
1400
1400
2200
2200
2200
7F00
4100
4100
8080
ENDCHAR
STARTCHAR 01DF
ENCODING 479
SWIDTH 571 0
DWIDTH 8 0
BBX 7 12 1 0
BITMAP
7C
00
44
00
38
44
04
7C
84
84
8C
76
ENDCHAR
STARTCHAR 01E0
ENCODING 480
SWIDTH 714 0
DWIDTH 10 0
BBX 9 14 0 0
BITMAP
1F00
0000
0400
0000
0800
1400
1400
2200
2200
2200
7F00
4100
4100
8080
ENDCHAR
STARTCHAR 01E1
ENCODING 481
SWIDTH 571 0
DWIDTH 8 0
BBX 7 12 1 0
BITMAP
7C
00
08
00
38
44
04
7C
84
84
8C
76
ENDCHAR
STARTCHAR 01E2
ENCODING 482
SWIDTH 928 0
DWIDTH 13 0
BBX 13 12 0 0
BITMAP
01F0
0000
03F8
0500
0500
0900
11F0
1100
3F00
2100
4100
81F8
ENDCHAR
STARTCHAR 01E3
ENCODING 483
SWIDTH 857 0
DWIDTH 12 0
BBX 10 10 1 0
BITMAP
3E00
0000
3380
4C40
0840
7FC0
8800
8800
8C00
73C0
ENDCHAR
STARTCHAR 01E4
ENCODING 484
SWIDTH 785 0
DWIDTH 11 0
BBX 10 10 1 0
BITMAP
3F00
6000
C000
8000
8000
8100
87C0
C100
6100
3F00
ENDCHAR
STARTCHAR 01E5
ENCODING 485
SWIDTH 714 0
DWIDTH 10 0
BBX 9 11 1 -3
BITMAP
3A00
4600
8200
8F80
8200
8200
4600
7A00
0200
0400
7C00
ENDCHAR
STARTCHAR 01E6
ENCODING 486
SWIDTH 714 0
DWIDTH 10 0
BBX 8 13 1 0
BITMAP
36
1C
00
1F
60
40
80
80
80
81
41
61
1F
ENDCHAR
STARTCHAR 01E7
ENCODING 487
SWIDTH 642 0
DWIDTH 9 0
BBX 7 14 1 -3
BITMAP
6C
38
00
3A
46
82
82
82
82
46
3A
02
04
78
ENDCHAR
STARTCHAR 01E8
ENCODING 488
SWIDTH 642 0
DWIDTH 9 0
BBX 7 13 1 0
BITMAP
6C
38
00
84
88
90
A0
C0
A0
90
88
84
82
ENDCHAR
STARTCHAR 01E9
ENCODING 489
SWIDTH 571 0
DWIDTH 8 0
BBX 6 13 1 0
BITMAP
6C
38
80
80
80
88
90
A0
C0
A0
90
88
84
ENDCHAR
STARTCHAR 01EA
ENCODING 490
SWIDTH 785 0
DWIDTH 11 0
BBX 9 13 1 -4
BITMAP
1C00
6300
4100
8080
8080
8080
8080
4100
6300
1C00
0000
1000
1800
ENDCHAR
STARTCHAR 01EB
ENCODING 491
SWIDTH 642 0
DWIDTH 9 0
BBX 7 11 1 -4
BITMAP
38
44
82
82
82
82
44
38
00
20
30
ENDCHAR
STARTCHAR 01EC
ENCODING 492
SWIDTH 785 0
DWIDTH 11 0
BBX 9 15 1 -4
BITMAP
3E00
0000
1C00
6300
4100
8080
8080
8080
8080
4100
6300
1C00
0000
0800
0C00
ENDCHAR
STARTCHAR 01ED
ENCODING 493
SWIDTH 642 0
DWIDTH 9 0
BBX 7 13 1 -4
BITMAP
7C
00
38
44
82
82
82
82
44
38
00
10
18
ENDCHAR
STARTCHAR 01EE
ENCODING 494
SWIDTH 571 0
DWIDTH 8 0
BBX 6 13 1 0
BITMAP
6C
38
00
FC
08
10
20
78
0C
04
04
0C
F8
ENDCHAR
STARTCHAR 01EF
ENCODING 495
SWIDTH 500 0
DWIDTH 7 0
BBX 6 14 1 -3
BITMAP
6C
38
00
FC
08
10
20
70
08
04
04
04
08
F0
ENDCHAR
STARTCHAR 01F0
ENCODING 496
SWIDTH 285 0
DWIDTH 4 0
BBX 6 14 -1 -3
BITMAP
6C
38
00
10
10
10
10
10
10
10
10
10
10
E0
ENDCHAR
STARTCHAR 01FA
ENCODING 506
SWIDTH 714 0
DWIDTH 10 0
BBX 9 16 0 0
BITMAP
0600
0C00
0000
0E00
0A00
0E00
0800
1400
1400
2200
2200
2200
7F00
4100
4100
8080
ENDCHAR
STARTCHAR 01FB
ENCODING 507
SWIDTH 571 0
DWIDTH 8 0
BBX 7 14 1 0
BITMAP
18
30
38
28
38
00
38
44
04
7C
84
84
8C
76
ENDCHAR
STARTCHAR 01FC
ENCODING 508
SWIDTH 928 0
DWIDTH 13 0
BBX 13 13 0 0
BITMAP
00C0
0180
0000
03F8
0500
0500
0900
11F0
1100
3F00
2100
4100
81F8
ENDCHAR
STARTCHAR 01FD
ENCODING 509
SWIDTH 857 0
DWIDTH 12 0
BBX 10 11 1 0
BITMAP
0600
0C00
0000
3380
4C40
0840
7FC0
8800
8800
8C00
73C0
ENDCHAR
STARTCHAR 01FE
ENCODING 510
SWIDTH 785 0
DWIDTH 11 0
BBX 9 13 1 0
BITMAP
0600
0C00
0000
1C80
6300
4300
8480
8C80
8880
9080
6100
6300
9C00
ENDCHAR
STARTCHAR 01FF
ENCODING 511
SWIDTH 642 0
DWIDTH 9 0
BBX 7 11 1 0
BITMAP
0C
18
00
3A
44
8A
9A
B2
A2
44
B8
ENDCHAR
STARTCHAR 0218
ENCODING 536
SWIDTH 571 0
DWIDTH 8 0
BBX 6 14 1 -4
BITMAP
78
80
80
40
30
18
04
04
04
F8
00
10
10
20
ENDCHAR
STARTCHAR 0219
ENCODING 537
SWIDTH 500 0
DWIDTH 7 0
BBX 5 12 1 -4
BITMAP
70
80
80
70
08
08
08
F0
00
20
20
40
ENDCHAR
STARTCHAR 021A
ENCODING 538
SWIDTH 642 0
DWIDTH 9 0
BBX 9 14 0 -4
BITMAP
FF80
0800
0800
0800
0800
0800
0800
0800
0800
0800
0000
0800
0800
1000
ENDCHAR
STARTCHAR 021B
ENCODING 539
SWIDTH 357 0
DWIDTH 5 0
BBX 4 13 0 -4
BITMAP
40
F0
40
40
40
40
40
40
30
00
20
20
40
ENDCHAR
STARTCHAR 0250
ENCODING 592
SWIDTH 571 0
DWIDTH 8 0
BBX 7 8 0 0
BITMAP
DC
62
42
46
78
40
44
38
ENDCHAR
STARTCHAR 0251
ENCODING 593
SWIDTH 642 0
DWIDTH 9 0
BBX 6 8 1 0
BITMAP
3C
44
44
84
84
8C
94
64
ENDCHAR
STARTCHAR 0252
ENCODING 594
SWIDTH 642 0
DWIDTH 9 0
BBX 6 8 1 0
BITMAP
98
A4
C4
84
84
88
88
F0
ENDCHAR
STARTCHAR 0253
ENCODING 595
SWIDTH 642 0
DWIDTH 9 0
BBX 7 11 1 0
BITMAP
78
C8
80
BC
C4
82
82
82
82
C4
B8
ENDCHAR
STARTCHAR 0254
ENCODING 596
SWIDTH 500 0
DWIDTH 7 0
BBX 6 8 1 0
BITMAP
F0
08
04
04
04
04
08
F0
ENDCHAR
STARTCHAR 0255
ENCODING 597
SWIDTH 571 0
DWIDTH 8 0
BBX 7 9 1 -1
BITMAP
3C
40
80
80
8C
D2
62
7C
40
ENDCHAR
STARTCHAR 0256
ENCODING 598
SWIDTH 642 0
DWIDTH 9 0
BBX 9 14 1 -3
BITMAP
0200
0200
0200
3A00
4600
8200
8200
8200
8200
4600
7A00
0200
0200
0180
ENDCHAR
STARTCHAR 0257
ENCODING 599
SWIDTH 642 0
DWIDTH 9 0
BBX 9 11 1 0
BITMAP
0180
0200
0200
3A00
4600
8200
8200
8200
8200
4600
7A00
ENDCHAR
STARTCHAR 0258
ENCODING 600
SWIDTH 571 0
DWIDTH 8 0
BBX 6 8 1 0
BITMAP
70
88
84
FC
04
04
08
F0
ENDCHAR
STARTCHAR 0259
ENCODING 601
SWIDTH 571 0
DWIDTH 8 0
BBX 6 8 1 0
BITMAP
F0
08
04
04
FC
84
88
70
ENDCHAR
STARTCHAR 025A
ENCODING 602
SWIDTH 785 0
DWIDTH 11 0
BBX 9 8 1 0
BITMAP
F000
0800
0700
1D00
E500
8580
C800
7000
ENDCHAR
STARTCHAR 025B
ENCODING 603
SWIDTH 500 0
DWIDTH 7 0
BBX 5 8 1 0
BITMAP
78
80
80
70
80
80
80
78
ENDCHAR
STARTCHAR 025C
ENCODING 604
SWIDTH 500 0
DWIDTH 7 0
BBX 5 8 1 0
BITMAP
F0
08
08
70
08
08
08
F0
ENDCHAR
STARTCHAR 025D
ENCODING 605
SWIDTH 642 0
DWIDTH 9 0
BBX 8 8 1 0
BITMAP
F6
0E
0A
73
08
08
08
F0
ENDCHAR
STARTCHAR 025E
ENCODING 606
SWIDTH 571 0
DWIDTH 8 0
BBX 7 8 0 0
BITMAP
3C
42
82
9C
82
82
46
3C
ENDCHAR
STARTCHAR 025F
ENCODING 607
SWIDTH 428 0
DWIDTH 6 0
BBX 6 11 -1 -3
BITMAP
10
10
10
7C
10
10
10
10
10
90
E0
ENDCHAR
STARTCHAR 0260
ENCODING 608
SWIDTH 642 0
DWIDTH 9 0
BBX 9 14 1 -3
BITMAP
0180
0200
0200
3A00
4600
8200
8200
8200
8200
4600
7A00
0200
0600
7C00
ENDCHAR
STARTCHAR 0261
ENCODING 609
SWIDTH 642 0
DWIDTH 9 0
BBX 7 11 1 -3
BITMAP
3A
46
82
82
82
82
46
3A
02
04
78
ENDCHAR
STARTCHAR 0262
ENCODING 610
SWIDTH 571 0
DWIDTH 8 0
BBX 6 8 1 0
BITMAP
3C
40
80
80
84
84
44
3C
ENDCHAR
STARTCHAR 0263
ENCODING 611
SWIDTH 571 0
DWIDTH 8 0
BBX 7 11 0 -3
BITMAP
C2
62
24
14
18
18
18
24
24
24
18
ENDCHAR
STARTCHAR 0264
ENCODING 612
SWIDTH 500 0
DWIDTH 7 0
BBX 6 8 1 0
BITMAP
8C
58
30
20
50
50
50
60
ENDCHAR
STARTCHAR 0265
ENCODING 613
SWIDTH 642 0
DWIDTH 9 0
BBX 6 11 1 -3
BITMAP
84
84
84
84
84
84
8C
74
04
04
04
ENDCHAR
STARTCHAR 0266
ENCODING 614
SWIDTH 642 0
DWIDTH 9 0
BBX 6 11 1 0
BITMAP
78
48
80
B8
C4
84
84
84
84
84
84
ENDCHAR
STARTCHAR 0267
ENCODING 615
SWIDTH 642 0
DWIDTH 9 0
BBX 6 14 1 -3
BITMAP
78
48
80
B8
C4
84
84
84
84
84
84
04
04
18
ENDCHAR
STARTCHAR 0268
ENCODING 616
SWIDTH 357 0
DWIDTH 5 0
BBX 5 10 0 0
BITMAP
20
00
20
20
20
F8
20
20
20
20
ENDCHAR
STARTCHAR 0269
ENCODING 617
SWIDTH 357 0
DWIDTH 5 0
BBX 3 8 1 0
BITMAP
80
80
80
80
80
80
80
60
ENDCHAR
STARTCHAR 026A
ENCODING 618
SWIDTH 428 0
DWIDTH 6 0
BBX 3 8 1 0
BITMAP
E0
40
40
40
40
40
40
E0
ENDCHAR
STARTCHAR 026B
ENCODING 619
SWIDTH 500 0
DWIDTH 7 0
BBX 7 11 0 0
BITMAP
10
10
10
12
72
9C
90
10
10
10
10
ENDCHAR
STARTCHAR 026C
ENCODING 620
SWIDTH 500 0
DWIDTH 7 0
BBX 7 11 0 0
BITMAP
08
08
08
68
98
88
7E
08
08
08
08
ENDCHAR
STARTCHAR 026D
ENCODING 621
SWIDTH 285 0
DWIDTH 4 0
BBX 3 14 1 -3
BITMAP
80
80
80
80
80
80
80
80
80
80
80
80
80
60
ENDCHAR
STARTCHAR 026E
ENCODING 622
SWIDTH 642 0
DWIDTH 9 0
BBX 7 14 1 -3
BITMAP
80
80
80
FE
86
8C
98
B0
BC
86
82
02
04
78
ENDCHAR
STARTCHAR 026F
ENCODING 623
SWIDTH 928 0
DWIDTH 13 0
BBX 11 8 1 -1
BITMAP
8420
8420
8420
8420
8420
8420
8C60
73A0
ENDCHAR
STARTCHAR 0270
ENCODING 624
SWIDTH 928 0
DWIDTH 13 0
BBX 11 11 1 -3
BITMAP
8420
8420
8420
8420
8420
8420
8C60
73A0
0020
0020
0020
ENDCHAR
STARTCHAR 0271
ENCODING 625
SWIDTH 928 0
DWIDTH 13 0
BBX 11 11 1 -3
BITMAP
B9C0
C620
8420
8420
8420
8420
8420
8420
0020
0020
00C0
ENDCHAR
STARTCHAR 0272
ENCODING 626
SWIDTH 642 0
DWIDTH 9 0
BBX 8 11 -1 -3
BITMAP
2E
31
21
21
21
21
21
21
20
20
C0
ENDCHAR
STARTCHAR 0273
ENCODING 627
SWIDTH 642 0
DWIDTH 9 0
BBX 8 11 1 -3
BITMAP
B8
C4
84
84
84
84
84
84
04
04
03
ENDCHAR
STARTCHAR 0274
ENCODING 628
SWIDTH 642 0
DWIDTH 9 0
BBX 6 8 1 0
BITMAP
84
C4
A4
A4
94
94
8C
84
ENDCHAR
STARTCHAR 0275
ENCODING 629
SWIDTH 642 0
DWIDTH 9 0
BBX 7 8 1 0
BITMAP
38
44
82
82
FE
82
44
38
ENDCHAR
STARTCHAR 0276
ENCODING 630
SWIDTH 785 0
DWIDTH 11 0
BBX 10 8 1 0
BITMAP
3FC0
4400
8400
8780
8400
8400
4400
3FC0
ENDCHAR
STARTCHAR 0277
ENCODING 631
SWIDTH 785 0
DWIDTH 11 0
BBX 10 8 1 0
BITMAP
3F00
6180
C0C0
8C40
8C40
8C40
CCC0
7380
ENDCHAR
STARTCHAR 0278
ENCODING 632
SWIDTH 785 0
DWIDTH 11 0
BBX 9 14 1 -3
BITMAP
0800
0800
0800
0800
3E00
4900
8880
8880
8880
4900
3E00
0800
0800
0800
ENDCHAR
STARTCHAR 0279
ENCODING 633
SWIDTH 428 0
DWIDTH 6 0
BBX 4 8 0 0
BITMAP
10
10
10
10
10
10
30
D0
ENDCHAR
STARTCHAR 027A
ENCODING 634
SWIDTH 428 0
DWIDTH 6 0
BBX 4 11 0 0
BITMAP
10
10
10
10
10
10
10
10
10
30
D0
ENDCHAR
STARTCHAR 027B
ENCODING 635
SWIDTH 428 0
DWIDTH 6 0
BBX 6 11 0 -3
BITMAP
10
10
10
10
10
10
30
D0
10
10
0C
ENDCHAR
STARTCHAR 027C
ENCODING 636
SWIDTH 428 0
DWIDTH 6 0
BBX 4 11 1 -3
BITMAP
B0
C0
80
80
80
80
80
80
80
80
80
ENDCHAR
STARTCHAR 027D
ENCODING 637
SWIDTH 428 0
DWIDTH 6 0
BBX 4 11 1 -3
BITMAP
B0
C0
80
80
80
80
80
80
80
80
60
ENDCHAR
STARTCHAR 027E
ENCODING 638
SWIDTH 428 0
DWIDTH 6 0
BBX 4 8 1 0
BITMAP
70
80
80
80
80
80
80
80
ENDCHAR
STARTCHAR 027F
ENCODING 639
SWIDTH 428 0
DWIDTH 6 0
BBX 4 8 0 0
BITMAP
E0
10
10
10
10
10
10
10
ENDCHAR
STARTCHAR 0280
ENCODING 640
SWIDTH 571 0
DWIDTH 8 0
BBX 6 8 1 0
BITMAP
F0
88
88
88
F0
90
88
8C
ENDCHAR
STARTCHAR 0281
ENCODING 641
SWIDTH 571 0
DWIDTH 8 0
BBX 6 8 1 0
BITMAP
8C
88
90
F0
88
88
88
F0
ENDCHAR
STARTCHAR 0282
ENCODING 642
SWIDTH 500 0
DWIDTH 7 0
BBX 5 11 1 -3
BITMAP
70
80
80
60
38
08
88
F0
80
80
60
ENDCHAR
STARTCHAR 0283
ENCODING 643
SWIDTH 428 0
DWIDTH 6 0
BBX 7 14 -1 -3
BITMAP
0E
10
10
10
10
10
10
10
10
10
10
10
10
E0
ENDCHAR
STARTCHAR 0284
ENCODING 644
SWIDTH 428 0
DWIDTH 6 0
BBX 6 14 -1 -3
BITMAP
0C
10
10
10
10
7C
10
10
7C
10
10
10
10
E0
ENDCHAR
STARTCHAR 0285
ENCODING 645
SWIDTH 428 0
DWIDTH 6 0
BBX 7 11 -1 0
BITMAP
E0
10
10
10
10
10
10
10
10
10
0E
ENDCHAR
STARTCHAR 0286
ENCODING 646
SWIDTH 500 0
DWIDTH 7 0
BBX 7 14 0 -3
BITMAP
0E
10
10
10
10
10
10
10
10
10
7C
90
90
60
ENDCHAR
STARTCHAR 0287
ENCODING 647
SWIDTH 357 0
DWIDTH 5 0
BBX 4 9 0 -1
BITMAP
C0
20
20
20
20
20
20
F0
20
ENDCHAR
STARTCHAR 0288
ENCODING 648
SWIDTH 357 0
DWIDTH 5 0
BBX 4 12 0 -3
BITMAP
40
F0
40
40
40
40
40
40
40
40
40
30
ENDCHAR
STARTCHAR 0289
ENCODING 649
SWIDTH 642 0
DWIDTH 9 0
BBX 8 8 1 0
BITMAP
42
42
42
FF
42
42
46
3A
ENDCHAR
STARTCHAR 028A
ENCODING 650
SWIDTH 642 0
DWIDTH 9 0
BBX 7 8 1 0
BITMAP
C6
44
82
82
82
82
44
38
ENDCHAR
STARTCHAR 028B
ENCODING 651
SWIDTH 571 0
DWIDTH 8 0
BBX 7 8 0 0
BITMAP
82
82
42
42
42
24
28
30
ENDCHAR
STARTCHAR 028C
ENCODING 652
SWIDTH 500 0
DWIDTH 7 0
BBX 7 8 0 0
BITMAP
10
28
28
28
44
44
44
82
ENDCHAR
STARTCHAR 028D
ENCODING 653
SWIDTH 785 0
DWIDTH 11 0
BBX 10 8 0 0
BITMAP
2100
2100
5280
5280
5280
4C80
8C40
8C40
ENDCHAR
STARTCHAR 028E
ENCODING 654
SWIDTH 500 0
DWIDTH 7 0
BBX 7 10 0 0
BITMAP
08
10
10
18
28
28
44
44
44
82
ENDCHAR
STARTCHAR 028F
ENCODING 655
SWIDTH 500 0
DWIDTH 7 0
BBX 7 8 0 0
BITMAP
C6
44
28
28
10
10
10
10
ENDCHAR
STARTCHAR 0290
ENCODING 656
SWIDTH 571 0
DWIDTH 8 0
BBX 8 11 1 -3
BITMAP
FC
0C
08
10
20
40
C0
FC
04
04
03
ENDCHAR
STARTCHAR 0291
ENCODING 657
SWIDTH 714 0
DWIDTH 10 0
BBX 9 10 1 -2
BITMAP
FC00
0C00
0800
1000
2380
4480
C880
FF00
1000
1000
ENDCHAR
STARTCHAR 0292
ENCODING 658
SWIDTH 500 0
DWIDTH 7 0
BBX 6 11 1 -3
BITMAP
FC
08
10
20
70
08
04
04
04
08
F0
ENDCHAR
STARTCHAR 0293
ENCODING 659
SWIDTH 571 0
DWIDTH 8 0
BBX 6 12 0 -4
BITMAP
7C
0C
18
30
38
0C
04
E4
9C
88
7C
04
ENDCHAR
STARTCHAR 0294
ENCODING 660
SWIDTH 428 0
DWIDTH 6 0
BBX 5 11 1 0
BITMAP
F0
08
08
08
10
20
40
40
40
40
40
ENDCHAR
STARTCHAR 0295
ENCODING 661
SWIDTH 428 0
DWIDTH 6 0
BBX 5 11 0 0
BITMAP
78
80
80
80
40
20
10
10
10
10
10
ENDCHAR
STARTCHAR 0296
ENCODING 662
SWIDTH 428 0
DWIDTH 6 0
BBX 5 11 0 0
BITMAP
40
40
40
40
40
20
10
08
08
08
F0
ENDCHAR
STARTCHAR 0297
ENCODING 663
SWIDTH 500 0
DWIDTH 7 0
BBX 6 11 1 -3
BITMAP
3C
40
40
80
80
80
80
80
40
44
38
ENDCHAR
STARTCHAR 0298
ENCODING 664
SWIDTH 642 0
DWIDTH 9 0
BBX 8 8 1 0
BITMAP
3C
42
81
99
99
81
42
3C
ENDCHAR
STARTCHAR 0299
ENCODING 665
SWIDTH 500 0
DWIDTH 7 0
BBX 5 8 1 0
BITMAP
F0
88
88
F0
98
88
88
F0
ENDCHAR
STARTCHAR 029A
ENCODING 666
SWIDTH 571 0
DWIDTH 8 0
BBX 7 8 1 0
BITMAP
78
84
82
72
82
82
C4
78
ENDCHAR
STARTCHAR 029B
ENCODING 667
SWIDTH 571 0
DWIDTH 8 0
BBX 8 11 1 0
BITMAP
03
04
04
3C
40
80
80
84
84
44
3C
ENDCHAR
STARTCHAR 029C
ENCODING 668
SWIDTH 642 0
DWIDTH 9 0
BBX 6 8 1 0
BITMAP
84
84
84
FC
84
84
84
84
ENDCHAR
STARTCHAR 029D
ENCODING 669
SWIDTH 500 0
DWIDTH 7 0
BBX 6 13 0 -3
BITMAP
10
00
10
10
10
10
10
10
10
7C
90
90
60
ENDCHAR
STARTCHAR 029E
ENCODING 670
SWIDTH 571 0
DWIDTH 8 0
BBX 6 11 1 -3
BITMAP
84
44
24
14
1C
34
64
C4
04
04
04
ENDCHAR
STARTCHAR 029F
ENCODING 671
SWIDTH 428 0
DWIDTH 6 0
BBX 5 8 1 0
BITMAP
80
80
80
80
80
80
80
F8
ENDCHAR
STARTCHAR 02A0
ENCODING 672
SWIDTH 642 0
DWIDTH 9 0
BBX 9 14 1 -3
BITMAP
0180
0200
0200
3A00
4600
8200
8200
8200
8200
4600
7A00
0200
0200
0200
ENDCHAR
STARTCHAR 02A1
ENCODING 673
SWIDTH 428 0
DWIDTH 6 0
BBX 5 11 1 0
BITMAP
F0
08
08
08
30
40
40
F0
40
40
40
ENDCHAR
STARTCHAR 02A2
ENCODING 674
SWIDTH 428 0
DWIDTH 6 0
BBX 5 11 0 0
BITMAP
78
80
80
80
60
10
10
78
10
10
10
ENDCHAR
STARTCHAR 02A3
ENCODING 675
SWIDTH 1071 0
DWIDTH 15 0
BBX 13 11 1 0
BITMAP
0200
0200
0200
3BF8
4618
8210
8220
8240
8280
4780
7BF8
ENDCHAR
STARTCHAR 02A4
ENCODING 676
SWIDTH 1000 0
DWIDTH 14 0
BBX 13 14 1 -3
BITMAP
0200
0200
0200
3BF8
4610
8220
8240
82E0
8210
4608
7A08
0008
0010
01E0
ENDCHAR
STARTCHAR 02A5
ENCODING 677
SWIDTH 1142 0
DWIDTH 16 0
BBX 16 13 1 -2
BITMAP
0200
0200
0200
3BF8
4618
8210
8220
8247
8289
4791
7BFE
0020
0020
ENDCHAR
STARTCHAR 02A6
ENCODING 678
SWIDTH 785 0
DWIDTH 11 0
BBX 10 9 0 0
BITMAP
4000
FF80
4400
4400
4300
41C0
4040
4040
3780
ENDCHAR
STARTCHAR 02A7
ENCODING 679
SWIDTH 714 0
DWIDTH 10 0
BBX 10 14 0 -3
BITMAP
01C0
0200
4200
FE00
4200
4200
4200
4200
4200
4200
3200
0200
0200
1C00
ENDCHAR
STARTCHAR 02A8
ENCODING 680
SWIDTH 857 0
DWIDTH 12 0
BBX 12 11 0 -2
BITMAP
4000
FFE0
4200
4400
4400
4460
4690
4310
33E0
0200
0200
ENDCHAR
STARTCHAR 02B0
ENCODING 688
SWIDTH 357 0
DWIDTH 5 0
BBX 4 7 1 6
BITMAP
80
80
F0
90
90
90
90
ENDCHAR
STARTCHAR 02B1
ENCODING 689
SWIDTH 357 0
DWIDTH 5 0
BBX 4 7 1 6
BITMAP
60
80
F0
90
90
90
90
ENDCHAR
STARTCHAR 02B2
ENCODING 690
SWIDTH 214 0
DWIDTH 3 0
BBX 3 9 0 4
BITMAP
20
00
20
20
20
20
20
20
E0
ENDCHAR
STARTCHAR 02B3
ENCODING 691
SWIDTH 285 0
DWIDTH 4 0
BBX 3 5 1 6
BITMAP
E0
80
80
80
80
ENDCHAR
STARTCHAR 02B4
ENCODING 692
SWIDTH 285 0
DWIDTH 4 0
BBX 3 5 0 6
BITMAP
20
20
20
20
E0
ENDCHAR
STARTCHAR 02B5
ENCODING 693
SWIDTH 285 0
DWIDTH 4 0
BBX 4 6 0 5
BITMAP
20
20
20
20
E0
30
ENDCHAR
STARTCHAR 02B6
ENCODING 694
SWIDTH 357 0
DWIDTH 5 0
BBX 4 5 1 6
BITMAP
B0
A0
C0
A0
E0
ENDCHAR
STARTCHAR 02B7
ENCODING 695
SWIDTH 500 0
DWIDTH 7 0
BBX 7 5 0 6
BITMAP
92
B2
6E
6C
44
ENDCHAR
STARTCHAR 02B8
ENCODING 696
SWIDTH 357 0
DWIDTH 5 0
BBX 4 6 0 5
BITMAP
90
A0
60
60
40
40
ENDCHAR
STARTCHAR 02B9
ENCODING 697
SWIDTH 285 0
DWIDTH 4 0
BBX 3 4 1 7
BITMAP
60
40
40
80
ENDCHAR
STARTCHAR 02BA
ENCODING 698
SWIDTH 500 0
DWIDTH 7 0
BBX 6 4 1 7
BITMAP
6C
48
48
90
ENDCHAR
STARTCHAR 02BB
ENCODING 699
SWIDTH 285 0
DWIDTH 4 0
BBX 2 4 1 7
BITMAP
40
80
C0
C0
ENDCHAR
STARTCHAR 02BC
ENCODING 700
SWIDTH 285 0
DWIDTH 4 0
BBX 2 4 1 7
BITMAP
C0
C0
40
80
ENDCHAR
STARTCHAR 02BD
ENCODING 701
SWIDTH 285 0
DWIDTH 4 0
BBX 2 4 1 7
BITMAP
C0
C0
80
40
ENDCHAR
STARTCHAR 02BE
ENCODING 702
SWIDTH 285 0
DWIDTH 4 0
BBX 2 4 1 7
BITMAP
80
40
40
80
ENDCHAR
STARTCHAR 02BF
ENCODING 703
SWIDTH 285 0
DWIDTH 4 0
BBX 2 4 1 7
BITMAP
40
80
80
40
ENDCHAR
STARTCHAR 02C0
ENCODING 704
SWIDTH 357 0
DWIDTH 5 0
BBX 3 5 1 6
BITMAP
E0
20
20
40
40
ENDCHAR
STARTCHAR 02C1
ENCODING 705
SWIDTH 357 0
DWIDTH 5 0
BBX 3 5 1 6
BITMAP
E0
80
80
40
40
ENDCHAR
STARTCHAR 02C2
ENCODING 706
SWIDTH 428 0
DWIDTH 6 0
BBX 4 5 0 6
BITMAP
10
20
C0
20
10
ENDCHAR
STARTCHAR 02C3
ENCODING 707
SWIDTH 428 0
DWIDTH 6 0
BBX 4 5 1 6
BITMAP
80
40
30
40
80
ENDCHAR
STARTCHAR 02C4
ENCODING 708
SWIDTH 428 0
DWIDTH 6 0
BBX 5 4 1 7
BITMAP
20
20
50
88
ENDCHAR
STARTCHAR 02C5
ENCODING 709
SWIDTH 428 0
DWIDTH 6 0
BBX 5 4 1 7
BITMAP
88
50
20
20
ENDCHAR
STARTCHAR 02C6
ENCODING 710
SWIDTH 642 0
DWIDTH 9 0
BBX 5 2 2 9
BITMAP
70
D8
ENDCHAR
STARTCHAR 02C7
ENCODING 711
SWIDTH 642 0
DWIDTH 9 0
BBX 5 2 2 9
BITMAP
D8
70
ENDCHAR
STARTCHAR 02C8
ENCODING 712
SWIDTH 214 0
DWIDTH 3 0
BBX 1 4 1 7
BITMAP
80
80
80
80
ENDCHAR
STARTCHAR 02C9
ENCODING 713
SWIDTH 642 0
DWIDTH 9 0
BBX 5 1 2 9
BITMAP
F8
ENDCHAR
STARTCHAR 02CA
ENCODING 714
SWIDTH 642 0
DWIDTH 9 0
BBX 3 2 3 9
BITMAP
60
C0
ENDCHAR
STARTCHAR 02CB
ENCODING 715
SWIDTH 642 0
DWIDTH 9 0
BBX 3 2 3 9
BITMAP
C0
60
ENDCHAR
STARTCHAR 02CC
ENCODING 716
SWIDTH 214 0
DWIDTH 3 0
BBX 1 4 1 -3
BITMAP
80
80
80
80
ENDCHAR
STARTCHAR 02CD
ENCODING 717
SWIDTH 642 0
DWIDTH 9 0
BBX 5 1 2 -2
BITMAP
F8
ENDCHAR
STARTCHAR 02CE
ENCODING 718
SWIDTH 642 0
DWIDTH 9 0
BBX 3 2 3 -4
BITMAP
C0
60
ENDCHAR
STARTCHAR 02CF
ENCODING 719
SWIDTH 642 0
DWIDTH 9 0
BBX 3 2 3 -4
BITMAP
60
C0
ENDCHAR
STARTCHAR 02D0
ENCODING 720
SWIDTH 428 0
DWIDTH 6 0
BBX 3 8 1 0
BITMAP
E0
40
40
00
00
40
40
E0
ENDCHAR
STARTCHAR 02D1
ENCODING 721
SWIDTH 428 0
DWIDTH 6 0
BBX 3 3 1 4
BITMAP
E0
40
40
ENDCHAR
STARTCHAR 02D2
ENCODING 722
SWIDTH 285 0
DWIDTH 4 0
BBX 2 4 1 2
BITMAP
80
40
40
80
ENDCHAR
STARTCHAR 02D3
ENCODING 723
SWIDTH 285 0
DWIDTH 4 0
BBX 2 4 1 2
BITMAP
40
80
80
40
ENDCHAR
STARTCHAR 02D4
ENCODING 724
SWIDTH 500 0
DWIDTH 7 0
BBX 5 3 1 3
BITMAP
20
20
F8
ENDCHAR
STARTCHAR 02D5
ENCODING 725
SWIDTH 500 0
DWIDTH 7 0
BBX 5 3 1 3
BITMAP
F8
20
20
ENDCHAR
STARTCHAR 02D6
ENCODING 726
SWIDTH 500 0
DWIDTH 7 0
BBX 5 5 1 2
BITMAP
20
20
F8
20
20
ENDCHAR
STARTCHAR 02D7
ENCODING 727
SWIDTH 500 0
DWIDTH 7 0
BBX 5 3 1 3
BITMAP
88
F8
88
ENDCHAR
STARTCHAR 02D8
ENCODING 728
SWIDTH 642 0
DWIDTH 9 0
BBX 5 2 2 9
BITMAP
88
70
ENDCHAR
STARTCHAR 02D9
ENCODING 729
SWIDTH 642 0
DWIDTH 9 0
BBX 1 1 4 9
BITMAP
80
ENDCHAR
STARTCHAR 02DA
ENCODING 730
SWIDTH 642 0
DWIDTH 9 0
BBX 3 3 3 9
BITMAP
E0
A0
E0
ENDCHAR
STARTCHAR 02DB
ENCODING 731
SWIDTH 642 0
DWIDTH 9 0
BBX 2 2 3 -3
BITMAP
80
C0
ENDCHAR
STARTCHAR 02DC
ENCODING 732
SWIDTH 642 0
DWIDTH 9 0
BBX 5 2 2 9
BITMAP
E8
B8
ENDCHAR
STARTCHAR 02DD
ENCODING 733
SWIDTH 642 0
DWIDTH 9 0
BBX 6 2 2 9
BITMAP
6C
D8
ENDCHAR
STARTCHAR 02DE
ENCODING 734
SWIDTH 285 0
DWIDTH 4 0
BBX 4 4 -1 2
BITMAP
60
E0
20
30
ENDCHAR
STARTCHAR 02E0
ENCODING 736
SWIDTH 357 0
DWIDTH 5 0
BBX 5 7 0 4
BITMAP
88
58
30
20
50
50
70
ENDCHAR
STARTCHAR 02E1
ENCODING 737
SWIDTH 214 0
DWIDTH 3 0
BBX 1 7 1 6
BITMAP
80
80
80
80
80
80
80
ENDCHAR
STARTCHAR 02E2
ENCODING 738
SWIDTH 357 0
DWIDTH 5 0
BBX 3 5 1 6
BITMAP
E0
80
60
20
E0
ENDCHAR
STARTCHAR 02E3
ENCODING 739
SWIDTH 428 0
DWIDTH 6 0
BBX 4 5 1 6
BITMAP
90
60
60
60
90
ENDCHAR
STARTCHAR 02E4
ENCODING 740
SWIDTH 357 0
DWIDTH 5 0
BBX 3 7 0 6
BITMAP
E0
80
80
40
40
40
40
ENDCHAR
STARTCHAR 02E5
ENCODING 741
SWIDTH 428 0
DWIDTH 6 0
BBX 5 10 0 0
BITMAP
F8
08
08
08
08
08
08
08
08
08
ENDCHAR
STARTCHAR 02E6
ENCODING 742
SWIDTH 428 0
DWIDTH 6 0
BBX 5 10 0 0
BITMAP
08
08
F8
08
08
08
08
08
08
08
ENDCHAR
STARTCHAR 02E7
ENCODING 743
SWIDTH 428 0
DWIDTH 6 0
BBX 5 10 0 0
BITMAP
08
08
08
08
08
F8
08
08
08
08
ENDCHAR
STARTCHAR 02E8
ENCODING 744
SWIDTH 428 0
DWIDTH 6 0
BBX 5 10 0 0
BITMAP
08
08
08
08
08
08
08
F8
08
08
ENDCHAR
STARTCHAR 02E9
ENCODING 745
SWIDTH 428 0
DWIDTH 6 0
BBX 5 10 0 0
BITMAP
08
08
08
08
08
08
08
08
08
F8
ENDCHAR
STARTCHAR 0300
ENCODING 768
SWIDTH 0 0
DWIDTH 0 0
BBX 3 2 -7 9
BITMAP
C0
60
ENDCHAR
STARTCHAR 0301
ENCODING 769
SWIDTH 0 0
DWIDTH 0 0
BBX 3 2 -5 9
BITMAP
60
C0
ENDCHAR
STARTCHAR 0302
ENCODING 770
SWIDTH 0 0
DWIDTH 0 0
BBX 5 2 -7 9
BITMAP
70
D8
ENDCHAR
STARTCHAR 0303
ENCODING 771
SWIDTH 0 0
DWIDTH 0 0
BBX 5 2 -7 9
BITMAP
E8
B8
ENDCHAR
STARTCHAR 0304
ENCODING 772
SWIDTH 0 0
DWIDTH 0 0
BBX 4 1 -6 9
BITMAP
F0
ENDCHAR
STARTCHAR 0305
ENCODING 773
SWIDTH 0 0
DWIDTH 0 0
BBX 9 1 -9 11
BITMAP
FF80
ENDCHAR
STARTCHAR 0306
ENCODING 774
SWIDTH 0 0
DWIDTH 0 0
BBX 5 2 -7 9
BITMAP
88
70
ENDCHAR
STARTCHAR 0307
ENCODING 775
SWIDTH 0 0
DWIDTH 0 0
BBX 1 1 -5 9
BITMAP
80
ENDCHAR
STARTCHAR 0308
ENCODING 776
SWIDTH 0 0
DWIDTH 0 0
BBX 4 1 -6 9
BITMAP
90
ENDCHAR
STARTCHAR 0309
ENCODING 777
SWIDTH 0 0
DWIDTH 0 0
BBX 2 2 -5 9
BITMAP
C0
80
ENDCHAR
STARTCHAR 030A
ENCODING 778
SWIDTH 0 0
DWIDTH 0 0
BBX 3 3 -6 9
BITMAP
E0
A0
E0
ENDCHAR
STARTCHAR 030B
ENCODING 779
SWIDTH 0 0
DWIDTH 0 0
BBX 5 2 -6 9
BITMAP
78
F0
ENDCHAR
STARTCHAR 030C
ENCODING 780
SWIDTH 0 0
DWIDTH 0 0
BBX 5 2 -7 9
BITMAP
D8
70
ENDCHAR
STARTCHAR 030D
ENCODING 781
SWIDTH 0 0
DWIDTH 0 0
BBX 1 3 -5 9
BITMAP
80
80
80
ENDCHAR
STARTCHAR 030E
ENCODING 782
SWIDTH 0 0
DWIDTH 0 0
BBX 3 3 -6 9
BITMAP
A0
A0
A0
ENDCHAR
STARTCHAR 030F
ENCODING 783
SWIDTH 0 0
DWIDTH 0 0
BBX 5 2 -8 9
BITMAP
F0
78
ENDCHAR
STARTCHAR 0310
ENCODING 784
SWIDTH 0 0
DWIDTH 0 0
BBX 5 4 -7 9
BITMAP
20
00
D8
70
ENDCHAR
STARTCHAR 0311
ENCODING 785
SWIDTH 0 0
DWIDTH 0 0
BBX 5 2 -7 9
BITMAP
70
88
ENDCHAR
STARTCHAR 0312
ENCODING 786
SWIDTH 0 0
DWIDTH 0 0
BBX 2 3 -5 9
BITMAP
40
80
80
ENDCHAR
STARTCHAR 0313
ENCODING 787
SWIDTH 0 0
DWIDTH 0 0
BBX 2 3 -6 9
BITMAP
40
40
80
ENDCHAR
STARTCHAR 0314
ENCODING 788
SWIDTH 0 0
DWIDTH 0 0
BBX 2 3 -5 8
BITMAP
80
80
40
ENDCHAR
STARTCHAR 0315
ENCODING 789
SWIDTH 0 0
DWIDTH 0 0
BBX 2 3 -2 9
BITMAP
40
40
80
ENDCHAR
STARTCHAR 0316
ENCODING 790
SWIDTH 0 0
DWIDTH 0 0
BBX 3 2 -6 -4
BITMAP
C0
60
ENDCHAR
STARTCHAR 0317
ENCODING 791
SWIDTH 0 0
DWIDTH 0 0
BBX 3 2 -6 -4
BITMAP
60
C0
ENDCHAR
STARTCHAR 0318
ENCODING 792
SWIDTH 0 0
DWIDTH 0 0
BBX 3 5 -6 -5
BITMAP
20
20
E0
20
20
ENDCHAR
STARTCHAR 0319
ENCODING 793
SWIDTH 0 0
DWIDTH 0 0
BBX 3 5 -5 -5
BITMAP
80
80
E0
80
80
ENDCHAR
STARTCHAR 031A
ENCODING 794
SWIDTH 0 0
DWIDTH 0 0
BBX 3 3 -3 8
BITMAP
E0
20
20
ENDCHAR
STARTCHAR 031B
ENCODING 795
SWIDTH 0 0
DWIDTH 0 0
BBX 3 3 -3 7
BITMAP
20
20
C0
ENDCHAR
STARTCHAR 031C
ENCODING 796
SWIDTH 0 0
DWIDTH 0 0
BBX 2 3 -5 -4
BITMAP
C0
80
C0
ENDCHAR
STARTCHAR 031D
ENCODING 797
SWIDTH 0 0
DWIDTH 0 0
BBX 5 3 -7 -4
BITMAP
20
20
F8
ENDCHAR
STARTCHAR 031E
ENCODING 798
SWIDTH 0 0
DWIDTH 0 0
BBX 5 3 -7 -4
BITMAP
F8
20
20
ENDCHAR
STARTCHAR 031F
ENCODING 799
SWIDTH 0 0
DWIDTH 0 0
BBX 5 5 -7 -6
BITMAP
20
20
F8
20
20
ENDCHAR
STARTCHAR 0320
ENCODING 800
SWIDTH 0 0
DWIDTH 0 0
BBX 4 3 -6 -4
BITMAP
90
F0
90
ENDCHAR
STARTCHAR 0321
ENCODING 801
SWIDTH 0 0
DWIDTH 0 0
BBX 3 3 -3 -3
BITMAP
20
20
C0
ENDCHAR
STARTCHAR 0322
ENCODING 802
SWIDTH 0 0
DWIDTH 0 0
BBX 3 3 -3 -3
BITMAP
80
80
60
ENDCHAR
STARTCHAR 0323
ENCODING 803
SWIDTH 0 0
DWIDTH 0 0
BBX 1 1 -5 -3
BITMAP
80
ENDCHAR
STARTCHAR 0324
ENCODING 804
SWIDTH 0 0
DWIDTH 0 0
BBX 4 1 -6 -3
BITMAP
90
ENDCHAR
STARTCHAR 0325
ENCODING 805
SWIDTH 0 0
DWIDTH 0 0
BBX 3 3 -6 -4
BITMAP
E0
A0
E0
ENDCHAR
STARTCHAR 0326
ENCODING 806
SWIDTH 0 0
DWIDTH 0 0
BBX 2 3 -6 -5
BITMAP
40
40
80
ENDCHAR
STARTCHAR 0327
ENCODING 807
SWIDTH 0 0
DWIDTH 0 0
BBX 2 3 -5 -3
BITMAP
40
40
C0
ENDCHAR
STARTCHAR 0328
ENCODING 808
SWIDTH 0 0
DWIDTH 0 0
BBX 2 2 -5 -3
BITMAP
80
C0
ENDCHAR
STARTCHAR 0329
ENCODING 809
SWIDTH 0 0
DWIDTH 0 0
BBX 1 3 -5 -4
BITMAP
80
80
80
ENDCHAR
STARTCHAR 032A
ENCODING 810
SWIDTH 0 0
DWIDTH 0 0
BBX 4 2 -6 -4
BITMAP
F0
90
ENDCHAR
STARTCHAR 032B
ENCODING 811
SWIDTH 0 0
DWIDTH 0 0
BBX 7 2 -7 -3
BITMAP
92
6C
ENDCHAR
STARTCHAR 032C
ENCODING 812
SWIDTH 0 0
DWIDTH 0 0
BBX 5 2 -7 -3
BITMAP
D8
70
ENDCHAR
STARTCHAR 032D
ENCODING 813
SWIDTH 0 0
DWIDTH 0 0
BBX 5 2 -7 -4
BITMAP
70
D8
ENDCHAR
STARTCHAR 032E
ENCODING 814
SWIDTH 0 0
DWIDTH 0 0
BBX 5 2 -7 -3
BITMAP
88
70
ENDCHAR
STARTCHAR 032F
ENCODING 815
SWIDTH 0 0
DWIDTH 0 0
BBX 5 2 -7 -3
BITMAP
70
88
ENDCHAR
STARTCHAR 0330
ENCODING 816
SWIDTH 0 0
DWIDTH 0 0
BBX 5 2 -7 -3
BITMAP
E8
B8
ENDCHAR
STARTCHAR 0331
ENCODING 817
SWIDTH 0 0
DWIDTH 0 0
BBX 5 1 -7 -2
BITMAP
F8
ENDCHAR
STARTCHAR 0332
ENCODING 818
SWIDTH 0 0
DWIDTH 0 0
BBX 9 1 -9 -4
BITMAP
FF80
ENDCHAR
STARTCHAR 0333
ENCODING 819
SWIDTH 0 0
DWIDTH 0 0
BBX 9 3 -9 -6
BITMAP
FF80
0000
FF80
ENDCHAR
STARTCHAR 0334
ENCODING 820
SWIDTH 0 0
DWIDTH 0 0
BBX 7 3 -8 3
BITMAP
62
92
8C
ENDCHAR
STARTCHAR 0335
ENCODING 821
SWIDTH 0 0
DWIDTH 0 0
BBX 7 1 -8 3
BITMAP
FE
ENDCHAR
STARTCHAR 0336
ENCODING 822
SWIDTH 0 0
DWIDTH 0 0
BBX 9 1 -9 3
BITMAP
FF80
ENDCHAR
STARTCHAR 0337
ENCODING 823
SWIDTH 0 0
DWIDTH 0 0
BBX 9 8 -9 0
BITMAP
0180
0300
0600
0C00
1800
3000
6000
C000
ENDCHAR
STARTCHAR 0338
ENCODING 824
SWIDTH 0 0
DWIDTH 0 0
BBX 7 12 -8 -1
BITMAP
02
04
04
08
08
10
10
20
20
40
40
80
ENDCHAR
STARTCHAR 0339
ENCODING 825
SWIDTH 0 0
DWIDTH 0 0
BBX 2 3 -5 -4
BITMAP
C0
40
C0
ENDCHAR
STARTCHAR 033A
ENCODING 826
SWIDTH 0 0
DWIDTH 0 0
BBX 4 2 -6 -4
BITMAP
90
F0
ENDCHAR
STARTCHAR 033B
ENCODING 827
SWIDTH 0 0
DWIDTH 0 0
BBX 4 3 -6 -4
BITMAP
F0
90
F0
ENDCHAR
STARTCHAR 033C
ENCODING 828
SWIDTH 0 0
DWIDTH 0 0
BBX 7 2 -7 -3
BITMAP
6C
92
ENDCHAR
STARTCHAR 033D
ENCODING 829
SWIDTH 0 0
DWIDTH 0 0
BBX 2 2 -5 9
BITMAP
C0
C0
ENDCHAR
STARTCHAR 033E
ENCODING 830
SWIDTH 0 0
DWIDTH 0 0
BBX 2 3 -5 8
BITMAP
80
C0
40
ENDCHAR
STARTCHAR 033F
ENCODING 831
SWIDTH 0 0
DWIDTH 0 0
BBX 9 3 -9 11
BITMAP
FF80
0000
FF80
ENDCHAR
STARTCHAR 0340
ENCODING 832
SWIDTH 0 0
DWIDTH 0 0
BBX 3 2 -9 12
BITMAP
C0
60
ENDCHAR
STARTCHAR 0341
ENCODING 833
SWIDTH 0 0
DWIDTH 0 0
BBX 3 2 -3 12
BITMAP
60
C0
ENDCHAR
STARTCHAR 0344
ENCODING 836
SWIDTH 0 0
DWIDTH 0 0
BBX 5 2 -7 9
BITMAP
20
A8
ENDCHAR
STARTCHAR 0345
ENCODING 837
SWIDTH 0 0
DWIDTH 0 0
BBX 2 2 -4 -3
BITMAP
80
C0
ENDCHAR
STARTCHAR 0374
ENCODING 884
SWIDTH 357 0
DWIDTH 5 0
BBX 3 4 1 6
BITMAP
60
40
40
80
ENDCHAR
STARTCHAR 0375
ENCODING 885
SWIDTH 357 0
DWIDTH 5 0
BBX 3 4 1 0
BITMAP
60
40
40
80
ENDCHAR
STARTCHAR 037A
ENCODING 890
SWIDTH 642 0
DWIDTH 9 0
BBX 2 2 4 -3
BITMAP
80
C0
ENDCHAR
STARTCHAR 037E
ENCODING 894
SWIDTH 285 0
DWIDTH 4 0
BBX 2 10 1 -2
BITMAP
40
00
00
00
00
00
00
40
40
80
ENDCHAR
STARTCHAR 0384
ENCODING 900
SWIDTH 642 0
DWIDTH 9 0
BBX 1 2 4 9
BITMAP
80
80
ENDCHAR
STARTCHAR 0385
ENCODING 901
SWIDTH 642 0
DWIDTH 9 0
BBX 5 2 2 9
BITMAP
20
A8
ENDCHAR
STARTCHAR 0386
ENCODING 902
SWIDTH 714 0
DWIDTH 10 0
BBX 9 10 0 0
BITMAP
4800
5400
1400
2200
2200
2200
7F00
4100
4100
8080
ENDCHAR
STARTCHAR 0388
ENCODING 904
SWIDTH 642 0
DWIDTH 9 0
BBX 8 10 0 0
BITMAP
BF
A0
20
20
3E
20
20
20
20
3F
ENDCHAR
STARTCHAR 0389
ENCODING 905
SWIDTH 857 0
DWIDTH 12 0
BBX 10 10 0 0
BITMAP
A040
A040
2040
2040
3FC0
2040
2040
2040
2040
2040
ENDCHAR
STARTCHAR 038A
ENCODING 906
SWIDTH 428 0
DWIDTH 6 0
BBX 4 10 0 0
BITMAP
90
90
10
10
10
10
10
10
10
10
ENDCHAR
STARTCHAR 038C
ENCODING 908
SWIDTH 857 0
DWIDTH 12 0
BBX 11 10 0 0
BITMAP
8700
98C0
1040
2020
2020
2020
2020
1040
18C0
0700
ENDCHAR
STARTCHAR 038E
ENCODING 910
SWIDTH 785 0
DWIDTH 11 0
BBX 12 10 0 0
BITMAP
9810
8420
0240
0280
0100
0100
0100
0100
0100
0100
ENDCHAR
STARTCHAR 038F
ENCODING 911
SWIDTH 857 0
DWIDTH 12 0
BBX 11 10 0 0
BITMAP
8F80
9040
2020
2020
2020
2020
2020
1040
0880
3DE0
ENDCHAR
STARTCHAR 0390
ENCODING 912
SWIDTH 357 0
DWIDTH 5 0
BBX 5 11 -1 0
BITMAP
20
A8
00
20
20
20
20
20
20
20
18
ENDCHAR
STARTCHAR 0391
ENCODING 913
SWIDTH 714 0
DWIDTH 10 0
BBX 9 10 0 0
BITMAP
0800
1400
1400
2200
2200
2200
7F00
4100
4100
8080
ENDCHAR
STARTCHAR 0392
ENCODING 914
SWIDTH 571 0
DWIDTH 8 0
BBX 6 10 1 0
BITMAP
F8
84
84
88
F0
88
84
84
84
F8
ENDCHAR
STARTCHAR 0393
ENCODING 915
SWIDTH 500 0
DWIDTH 7 0
BBX 6 10 1 0
BITMAP
FC
80
80
80
80
80
80
80
80
80
ENDCHAR
STARTCHAR 0394
ENCODING 916
SWIDTH 714 0
DWIDTH 10 0
BBX 10 10 0 0
BITMAP
0C00
0C00
1600
1200
2300
2100
4180
4080
80C0
FFC0
ENDCHAR
STARTCHAR 0395
ENCODING 917
SWIDTH 571 0
DWIDTH 8 0
BBX 6 10 1 0
BITMAP
FC
80
80
80
F8
80
80
80
80
FC
ENDCHAR
STARTCHAR 0396
ENCODING 918
SWIDTH 571 0
DWIDTH 8 0
BBX 7 10 1 0
BITMAP
FE
02
04
08
10
10
20
40
80
FE
ENDCHAR
STARTCHAR 0397
ENCODING 919
SWIDTH 714 0
DWIDTH 10 0
BBX 8 10 1 0
BITMAP
81
81
81
81
FF
81
81
81
81
81
ENDCHAR
STARTCHAR 0398
ENCODING 920
SWIDTH 785 0
DWIDTH 11 0
BBX 9 10 1 0
BITMAP
1C00
6300
4100
8080
9C80
8080
8080
4100
6300
1C00
ENDCHAR
STARTCHAR 0399
ENCODING 921
SWIDTH 285 0
DWIDTH 4 0
BBX 1 10 1 0
BITMAP
80
80
80
80
80
80
80
80
80
80
ENDCHAR
STARTCHAR 039A
ENCODING 922
SWIDTH 642 0
DWIDTH 9 0
BBX 7 10 1 0
BITMAP
84
88
90
A0
C0
A0
90
88
84
82
ENDCHAR
STARTCHAR 039B
ENCODING 923
SWIDTH 642 0
DWIDTH 9 0
BBX 9 10 0 0
BITMAP
0800
1400
1400
1400
2200
2200
4100
4100
4100
8080
ENDCHAR
STARTCHAR 039C
ENCODING 924
SWIDTH 857 0
DWIDTH 12 0
BBX 9 10 1 0
BITMAP
C180
C180
A280
A280
A280
9480
9480
8880
8880
8080
ENDCHAR
STARTCHAR 039D
ENCODING 925
SWIDTH 714 0
DWIDTH 10 0
BBX 8 10 1 0
BITMAP
C1
C1
A1
91
91
89
89
85
83
83
ENDCHAR
STARTCHAR 039E
ENCODING 926
SWIDTH 642 0
DWIDTH 9 0
BBX 8 10 0 0
BITMAP
FF
00
00
00
7E
00
00
00
00
FF
ENDCHAR
STARTCHAR 039F
ENCODING 927
SWIDTH 785 0
DWIDTH 11 0
BBX 9 10 1 0
BITMAP
1C00
6300
4100
8080
8080
8080
8080
4100
6300
1C00
ENDCHAR
STARTCHAR 03A0
ENCODING 928
SWIDTH 785 0
DWIDTH 11 0
BBX 10 10 0 0
BITMAP
FFC0
4080
4080
4080
4080
4080
4080
4080
4080
4080
ENDCHAR
STARTCHAR 03A1
ENCODING 929
SWIDTH 571 0
DWIDTH 8 0
BBX 6 10 1 0
BITMAP
F8
84
84
84
88
F0
80
80
80
80
ENDCHAR
STARTCHAR 03A3
ENCODING 931
SWIDTH 571 0
DWIDTH 8 0
BBX 8 10 0 0
BITMAP
FF
40
20
10
08
08
10
20
40
FF
ENDCHAR
STARTCHAR 03A4
ENCODING 932
SWIDTH 642 0
DWIDTH 9 0
BBX 9 10 0 0
BITMAP
FF80
0800
0800
0800
0800
0800
0800
0800
0800
0800
ENDCHAR
STARTCHAR 03A5
ENCODING 933
SWIDTH 642 0
DWIDTH 9 0
BBX 9 10 0 0
BITMAP
C080
2100
1200
1400
0800
0800
0800
0800
0800
0800
ENDCHAR
STARTCHAR 03A6
ENCODING 934
SWIDTH 714 0
DWIDTH 10 0
BBX 9 10 0 0
BITMAP
0800
0800
3E00
C980
8880
8880
4900
3E00
0800
0800
ENDCHAR
STARTCHAR 03A7
ENCODING 935
SWIDTH 642 0
DWIDTH 9 0
BBX 8 10 0 0
BITMAP
81
42
24
24
18
18
24
24
42
81
ENDCHAR
STARTCHAR 03A8
ENCODING 936
SWIDTH 714 0
DWIDTH 10 0
BBX 9 10 0 0
BITMAP
C980
4900
4900
4900
2A00
3E00
0800
0800
0800
0800
ENDCHAR
STARTCHAR 03A9
ENCODING 937
SWIDTH 785 0
DWIDTH 11 0
BBX 9 10 1 0
BITMAP
3E00
4100
8080
8080
8080
8080
8080
4100
2200
F780
ENDCHAR
STARTCHAR 03AA
ENCODING 938
SWIDTH 285 0
DWIDTH 4 0
BBX 4 12 -1 0
BITMAP
90
00
20
20
20
20
20
20
20
20
20
20
ENDCHAR
STARTCHAR 03AB
ENCODING 939
SWIDTH 642 0
DWIDTH 9 0
BBX 9 12 0 0
BITMAP
1200
0000
C080
2100
1200
1400
0800
0800
0800
0800
0800
0800
ENDCHAR
STARTCHAR 03AC
ENCODING 940
SWIDTH 714 0
DWIDTH 10 0
BBX 8 11 1 0
BITMAP
10
10
00
31
49
8A
86
84
86
8A
71
ENDCHAR
STARTCHAR 03AD
ENCODING 941
SWIDTH 500 0
DWIDTH 7 0
BBX 6 11 1 0
BITMAP
10
10
00
3C
40
80
F8
80
80
40
3C
ENDCHAR
STARTCHAR 03AE
ENCODING 942
SWIDTH 642 0
DWIDTH 9 0
BBX 6 14 1 -3
BITMAP
20
20
00
B8
C4
84
84
84
84
84
84
04
04
04
ENDCHAR
STARTCHAR 03AF
ENCODING 943
SWIDTH 357 0
DWIDTH 5 0
BBX 3 11 1 0
BITMAP
80
80
00
80
80
80
80
80
80
80
60
ENDCHAR
STARTCHAR 03B0
ENCODING 944
SWIDTH 642 0
DWIDTH 9 0
BBX 6 11 1 0
BITMAP
20
A8
00
88
84
84
84
84
84
88
70
ENDCHAR
STARTCHAR 03B1
ENCODING 945
SWIDTH 714 0
DWIDTH 10 0
BBX 8 8 1 0
BITMAP
31
49
8A
86
84
86
8A
71
ENDCHAR
STARTCHAR 03B2
ENCODING 946
SWIDTH 571 0
DWIDTH 8 0
BBX 6 14 1 -3
BITMAP
70
88
88
88
90
B0
88
84
84
88
F0
80
80
80
ENDCHAR
STARTCHAR 03B3
ENCODING 947
SWIDTH 571 0
DWIDTH 8 0
BBX 7 11 0 -3
BITMAP
82
44
44
28
28
10
10
10
10
10
10
ENDCHAR
STARTCHAR 03B4
ENCODING 948
SWIDTH 571 0
DWIDTH 8 0
BBX 7 11 0 0
BITMAP
78
80
80
60
38
44
82
82
82
44
38
ENDCHAR
STARTCHAR 03B5
ENCODING 949
SWIDTH 500 0
DWIDTH 7 0
BBX 6 8 1 0
BITMAP
3C
40
80
F8
80
80
40
3C
ENDCHAR
STARTCHAR 03B6
ENCODING 950
SWIDTH 642 0
DWIDTH 9 0
BBX 8 14 0 -3
BITMAP
03
0E
FC
20
20
40
40
40
40
20
1E
01
01
0E
ENDCHAR
STARTCHAR 03B7
ENCODING 951
SWIDTH 642 0
DWIDTH 9 0
BBX 6 11 1 -3
BITMAP
B8
C4
84
84
84
84
84
84
04
04
04
ENDCHAR
STARTCHAR 03B8
ENCODING 952
SWIDTH 642 0
DWIDTH 9 0
BBX 7 11 1 0
BITMAP
38
44
82
82
82
FE
82
82
82
44
38
ENDCHAR
STARTCHAR 03B9
ENCODING 953
SWIDTH 357 0
DWIDTH 5 0
BBX 3 8 1 0
BITMAP
80
80
80
80
80
80
80
60
ENDCHAR
STARTCHAR 03BA
ENCODING 954
SWIDTH 571 0
DWIDTH 8 0
BBX 6 8 1 0
BITMAP
8C
90
A0
E0
A0
90
88
84
ENDCHAR
STARTCHAR 03BB
ENCODING 955
SWIDTH 571 0
DWIDTH 8 0
BBX 8 10 0 0
BITMAP
E0
10
10
18
18
24
24
42
42
81
ENDCHAR
STARTCHAR 03BC
ENCODING 956
SWIDTH 642 0
DWIDTH 9 0
BBX 6 10 1 -2
BITMAP
84
84
84
84
84
84
CC
B4
80
80
ENDCHAR
STARTCHAR 03BD
ENCODING 957
SWIDTH 571 0
DWIDTH 8 0
BBX 7 8 0 0
BITMAP
82
42
42
24
24
24
18
18
ENDCHAR
STARTCHAR 03BE
ENCODING 958
SWIDTH 571 0
DWIDTH 8 0
BBX 8 14 0 -2
BITMAP
0E
FC
20
20
30
1E
20
40
40
40
3E
01
01
0E
ENDCHAR
STARTCHAR 03BF
ENCODING 959
SWIDTH 642 0
DWIDTH 9 0
BBX 7 8 1 0
BITMAP
38
44
82
82
82
82
44
38
ENDCHAR
STARTCHAR 03C0
ENCODING 960
SWIDTH 785 0
DWIDTH 11 0
BBX 10 8 0 0
BITMAP
FFC0
2100
2100
2100
2100
2100
2100
2080
ENDCHAR
STARTCHAR 03C1
ENCODING 961
SWIDTH 642 0
DWIDTH 9 0
BBX 7 11 1 -3
BITMAP
38
44
82
82
82
82
84
F8
80
80
80
ENDCHAR
STARTCHAR 03C2
ENCODING 962
SWIDTH 571 0
DWIDTH 8 0
BBX 7 11 1 -3
BITMAP
3C
40
80
80
80
80
40
3C
02
02
1C
ENDCHAR
STARTCHAR 03C3
ENCODING 963
SWIDTH 642 0
DWIDTH 9 0
BBX 9 8 1 0
BITMAP
3F80
4400
8200
8200
8200
8200
4400
3800
ENDCHAR
STARTCHAR 03C4
ENCODING 964
SWIDTH 571 0
DWIDTH 8 0
BBX 7 8 0 0
BITMAP
FE
10
10
10
10
10
10
10
ENDCHAR
STARTCHAR 03C5
ENCODING 965
SWIDTH 642 0
DWIDTH 9 0
BBX 6 8 1 0
BITMAP
88
84
84
84
84
84
88
70
ENDCHAR
STARTCHAR 03C6
ENCODING 966
SWIDTH 785 0
DWIDTH 11 0
BBX 9 14 1 -3
BITMAP
0800
0800
0800
0800
3E00
4900
8880
8880
8880
4900
3E00
0800
0800
0800
ENDCHAR
STARTCHAR 03C7
ENCODING 967
SWIDTH 571 0
DWIDTH 8 0
BBX 8 11 0 -3
BITMAP
81
42
24
24
18
18
18
24
24
42
81
ENDCHAR
STARTCHAR 03C8
ENCODING 968
SWIDTH 785 0
DWIDTH 11 0
BBX 9 12 1 -3
BITMAP
0800
8900
8880
8880
8880
8880
8880
4900
3E00
0800
0800
0800
ENDCHAR
STARTCHAR 03C9
ENCODING 969
SWIDTH 928 0
DWIDTH 13 0
BBX 11 8 1 0
BITMAP
4040
8420
8420
8420
8420
8420
4A40
3180
ENDCHAR
STARTCHAR 03CA
ENCODING 970
SWIDTH 357 0
DWIDTH 5 0
BBX 5 10 -1 0
BITMAP
90
00
20
20
20
20
20
20
20
18
ENDCHAR
STARTCHAR 03CB
ENCODING 971
SWIDTH 642 0
DWIDTH 9 0
BBX 6 10 1 0
BITMAP
48
00
88
84
84
84
84
84
88
70
ENDCHAR
STARTCHAR 03CC
ENCODING 972
SWIDTH 642 0
DWIDTH 9 0
BBX 7 11 1 0
BITMAP
10
10
00
38
44
82
82
82
82
44
38
ENDCHAR
STARTCHAR 03CD
ENCODING 973
SWIDTH 642 0
DWIDTH 9 0
BBX 6 11 1 0
BITMAP
20
20
00
88
84
84
84
84
84
88
70
ENDCHAR
STARTCHAR 03CE
ENCODING 974
SWIDTH 928 0
DWIDTH 13 0
BBX 11 11 1 0
BITMAP
0400
0400
0000
4040
8420
8420
8420
8420
8420
4A40
3180
ENDCHAR
STARTCHAR 03D0
ENCODING 976
SWIDTH 500 0
DWIDTH 7 0
BBX 6 11 1 0
BITMAP
38
44
44
F8
80
80
B8
C4
84
44
38
ENDCHAR
STARTCHAR 03D1
ENCODING 977
SWIDTH 642 0
DWIDTH 9 0
BBX 7 11 1 0
BITMAP
30
48
84
84
84
7E
04
04
84
88
70
ENDCHAR
STARTCHAR 03D2
ENCODING 978
SWIDTH 642 0
DWIDTH 9 0
BBX 9 10 0 0
BITMAP
C180
2200
1400
1400
0800
0800
0800
0800
0800
0800
ENDCHAR
STARTCHAR 03D3
ENCODING 979
SWIDTH 785 0
DWIDTH 11 0
BBX 11 10 0 0
BITMAP
9860
8C80
0500
0300
0300
0200
0200
0200
0200
0200
ENDCHAR
STARTCHAR 03D4
ENCODING 980
SWIDTH 642 0
DWIDTH 9 0
BBX 9 12 0 0
BITMAP
1200
0000
C180
2200
1400
1400
0800
0800
0800
0800
0800
0800
ENDCHAR
STARTCHAR 03D5
ENCODING 981
SWIDTH 857 0
DWIDTH 12 0
BBX 11 11 1 -3
BITMAP
3180
4A40
8420
8420
8420
4440
64C0
1F00
0400
0400
0400
ENDCHAR
STARTCHAR 03D6
ENCODING 982
SWIDTH 857 0
DWIDTH 12 0
BBX 11 8 0 0
BITMAP
FFE0
2080
4440
4440
4440
4440
4440
3B80
ENDCHAR
STARTCHAR 03DA
ENCODING 986
SWIDTH 642 0
DWIDTH 9 0
BBX 8 13 1 -3
BITMAP
0F
30
40
40
80
80
80
80
40
3E
01
01
0E
ENDCHAR
STARTCHAR 03DC
ENCODING 988
SWIDTH 571 0
DWIDTH 8 0
BBX 6 10 1 0
BITMAP
FC
80
80
80
F8
80
80
80
80
80
ENDCHAR
STARTCHAR 03DE
ENCODING 990
SWIDTH 500 0
DWIDTH 7 0
BBX 6 10 1 0
BITMAP
20
40
40
40
FC
08
08
08
10
10
ENDCHAR
STARTCHAR 03E0
ENCODING 992
SWIDTH 642 0
DWIDTH 9 0
BBX 8 10 0 0
BITMAP
E0
18
0C
1A
32
47
1D
31
01
01
ENDCHAR
STARTCHAR 03EE
ENCODING 1006
SWIDTH 642 0
DWIDTH 9 0
BBX 9 10 0 0
BITMAP
0800
0800
FF80
0800
0800
0800
0800
0800
0800
0800
ENDCHAR
STARTCHAR 03EF
ENCODING 1007
SWIDTH 571 0
DWIDTH 8 0
BBX 7 14 0 -3
BITMAP
10
10
10
FE
10
10
10
10
10
10
10
10
10
10
ENDCHAR
STARTCHAR 03F0
ENCODING 1008
SWIDTH 571 0
DWIDTH 8 0
BBX 6 8 1 0
BITMAP
C4
4C
48
58
68
48
C8
84
ENDCHAR
STARTCHAR 03F1
ENCODING 1009
SWIDTH 571 0
DWIDTH 8 0
BBX 6 11 1 -3
BITMAP
38
4C
84
84
84
84
88
F0
80
40
3C
ENDCHAR
STARTCHAR 03F2
ENCODING 1010
SWIDTH 500 0
DWIDTH 7 0
BBX 6 8 1 0
BITMAP
3C
40
80
80
80
80
40
3C
ENDCHAR
STARTCHAR 0401
ENCODING 1025
SWIDTH 571 0
DWIDTH 8 0
BBX 6 12 1 0
BITMAP
48
00
FC
80
80
80
F8
80
80
80
80
FC
ENDCHAR
STARTCHAR 0402
ENCODING 1026
SWIDTH 785 0
DWIDTH 11 0
BBX 11 10 0 0
BITMAP
FF80
0800
0800
0800
0B80
0C40
0820
0820
0840
0980
ENDCHAR
STARTCHAR 0403
ENCODING 1027
SWIDTH 500 0
DWIDTH 7 0
BBX 6 13 1 0
BITMAP
30
60
00
FC
80
80
80
80
80
80
80
80
80
ENDCHAR
STARTCHAR 0404
ENCODING 1028
SWIDTH 571 0
DWIDTH 8 0
BBX 7 10 1 0
BITMAP
1E
60
40
80
FC
80
80
40
60
1E
ENDCHAR
STARTCHAR 0405
ENCODING 1029
SWIDTH 571 0
DWIDTH 8 0
BBX 6 10 1 0
BITMAP
78
80
80
40
30
18
04
04
04
F8
ENDCHAR
STARTCHAR 0406
ENCODING 1030
SWIDTH 285 0
DWIDTH 4 0
BBX 1 10 1 0
BITMAP
80
80
80
80
80
80
80
80
80
80
ENDCHAR
STARTCHAR 0407
ENCODING 1031
SWIDTH 285 0
DWIDTH 4 0
BBX 4 12 -1 0
BITMAP
90
00
20
20
20
20
20
20
20
20
20
20
ENDCHAR
STARTCHAR 0408
ENCODING 1032
SWIDTH 285 0
DWIDTH 4 0
BBX 4 12 -1 -2
BITMAP
10
10
10
10
10
10
10
10
10
10
10
E0
ENDCHAR
STARTCHAR 0409
ENCODING 1033
SWIDTH 1000 0
DWIDTH 14 0
BBX 13 10 0 0
BITMAP
3F00
2100
2100
2100
21F0
2118
2108
2108
4118
81F0
ENDCHAR
STARTCHAR 040A
ENCODING 1034
SWIDTH 1000 0
DWIDTH 14 0
BBX 12 10 1 0
BITMAP
8200
8200
8200
8200
FFE0
8230
8210
8210
8210
83E0
ENDCHAR
STARTCHAR 040B
ENCODING 1035
SWIDTH 785 0
DWIDTH 11 0
BBX 10 10 0 0
BITMAP
FE00
1000
1000
1780
1840
1040
1040
1040
1040
1040
ENDCHAR
STARTCHAR 040C
ENCODING 1036
SWIDTH 571 0
DWIDTH 8 0
BBX 7 13 1 0
BITMAP
0C
18
00
86
88
90
B0
C0
B0
88
88
84
82
ENDCHAR
STARTCHAR 040E
ENCODING 1038
SWIDTH 642 0
DWIDTH 9 0
BBX 8 13 1 0
BITMAP
22
1C
00
81
42
42
24
24
18
18
10
20
C0
ENDCHAR
STARTCHAR 040F
ENCODING 1039
SWIDTH 714 0
DWIDTH 10 0
BBX 9 12 1 -2
BITMAP
8080
8080
8080
8080
8080
8080
8080
8080
8080
FF80
0800
0800
ENDCHAR
STARTCHAR 0410
ENCODING 1040
SWIDTH 714 0
DWIDTH 10 0
BBX 9 10 0 0
BITMAP
0800
1400
1400
2200
2200
2200
7F00
4100
4100
8080
ENDCHAR
STARTCHAR 0411
ENCODING 1041
SWIDTH 571 0
DWIDTH 8 0
BBX 6 10 1 0
BITMAP
FC
80
80
80
F8
8C
84
84
84
F8
ENDCHAR
STARTCHAR 0412
ENCODING 1042
SWIDTH 571 0
DWIDTH 8 0
BBX 6 10 1 0
BITMAP
F8
84
84
88
F0
88
84
84
84
F8
ENDCHAR
STARTCHAR 0413
ENCODING 1043
SWIDTH 500 0
DWIDTH 7 0
BBX 6 10 1 0
BITMAP
FC
80
80
80
80
80
80
80
80
80
ENDCHAR
STARTCHAR 0414
ENCODING 1044
SWIDTH 785 0
DWIDTH 11 0
BBX 9 12 1 -2
BITMAP
1F00
1100
1100
1100
1100
2100
2100
2100
4100
FF80
8080
8080
ENDCHAR
STARTCHAR 0415
ENCODING 1045
SWIDTH 571 0
DWIDTH 8 0
BBX 6 10 1 0
BITMAP
FC
80
80
80
F8
80
80
80
80
FC
ENDCHAR
STARTCHAR 0416
ENCODING 1046
SWIDTH 785 0
DWIDTH 11 0
BBX 11 10 0 0
BITMAP
C460
2480
2480
1500
1F00
2480
2480
4440
4440
8420
ENDCHAR
STARTCHAR 0417
ENCODING 1047
SWIDTH 571 0
DWIDTH 8 0
BBX 7 10 0 0
BITMAP
7C
82
02
04
38
04
02
02
84
78
ENDCHAR
STARTCHAR 0418
ENCODING 1048
SWIDTH 714 0
DWIDTH 10 0
BBX 8 10 1 0
BITMAP
83
83
85
89
89
91
91
A1
C1
C1
ENDCHAR
STARTCHAR 0419
ENCODING 1049
SWIDTH 714 0
DWIDTH 10 0
BBX 8 13 1 0
BITMAP
44
38
00
83
83
85
89
89
91
91
A1
C1
C1
ENDCHAR
STARTCHAR 041A
ENCODING 1050
SWIDTH 571 0
DWIDTH 8 0
BBX 7 10 1 0
BITMAP
86
88
90
B0
C0
B0
88
88
84
82
ENDCHAR
STARTCHAR 041B
ENCODING 1051
SWIDTH 714 0
DWIDTH 10 0
BBX 8 10 0 0
BITMAP
3F
21
21
21
21
21
21
21
41
81
ENDCHAR
STARTCHAR 041C
ENCODING 1052
SWIDTH 857 0
DWIDTH 12 0
BBX 9 10 1 0
BITMAP
C180
C180
A280
A280
A280
9480
9480
8880
8880
8080
ENDCHAR
STARTCHAR 041D
ENCODING 1053
SWIDTH 714 0
DWIDTH 10 0
BBX 8 10 1 0
BITMAP
81
81
81
81
FF
81
81
81
81
81
ENDCHAR
STARTCHAR 041E
ENCODING 1054
SWIDTH 785 0
DWIDTH 11 0
BBX 9 10 1 0
BITMAP
1C00
6300
4100
8080
8080
8080
8080
4100
6300
1C00
ENDCHAR
STARTCHAR 041F
ENCODING 1055
SWIDTH 714 0
DWIDTH 10 0
BBX 8 10 1 0
BITMAP
FF
81
81
81
81
81
81
81
81
81
ENDCHAR
STARTCHAR 0420
ENCODING 1056
SWIDTH 571 0
DWIDTH 8 0
BBX 6 10 1 0
BITMAP
F8
84
84
84
88
F0
80
80
80
80
ENDCHAR
STARTCHAR 0421
ENCODING 1057
SWIDTH 714 0
DWIDTH 10 0
BBX 8 10 1 0
BITMAP
1E
61
40
80
80
80
80
40
61
1E
ENDCHAR
STARTCHAR 0422
ENCODING 1058
SWIDTH 642 0
DWIDTH 9 0
BBX 9 10 0 0
BITMAP
FF80
0800
0800
0800
0800
0800
0800
0800
0800
0800
ENDCHAR
STARTCHAR 0423
ENCODING 1059
SWIDTH 642 0
DWIDTH 9 0
BBX 8 10 1 0
BITMAP
81
42
42
24
24
18
18
10
20
C0
ENDCHAR
STARTCHAR 0424
ENCODING 1060
SWIDTH 714 0
DWIDTH 10 0
BBX 9 10 0 0
BITMAP
0800
0800
3E00
4900
8880
8880
4900
3E00
0800
0800
ENDCHAR
STARTCHAR 0425
ENCODING 1061
SWIDTH 642 0
DWIDTH 9 0
BBX 8 10 0 0
BITMAP
81
42
24
24
18
18
24
24
42
81
ENDCHAR
STARTCHAR 0426
ENCODING 1062
SWIDTH 785 0
DWIDTH 11 0
BBX 9 12 1 -2
BITMAP
8100
8100
8100
8100
8100
8100
8100
8100
8100
FF80
0080
0080
ENDCHAR
STARTCHAR 0427
ENCODING 1063
SWIDTH 642 0
DWIDTH 9 0
BBX 6 10 1 0
BITMAP
84
84
84
84
84
84
7C
04
04
04
ENDCHAR
STARTCHAR 0428
ENCODING 1064
SWIDTH 928 0
DWIDTH 13 0
BBX 11 10 1 0
BITMAP
8420
8420
8420
8420
8420
8420
8420
8420
8420
FFE0
ENDCHAR
STARTCHAR 0429
ENCODING 1065
SWIDTH 1000 0
DWIDTH 14 0
BBX 12 12 1 -2
BITMAP
8420
8420
8420
8420
8420
8420
8420
8420
8420
FFF0
0010
0010
ENDCHAR
STARTCHAR 042A
ENCODING 1066
SWIDTH 642 0
DWIDTH 9 0
BBX 9 10 0 0
BITMAP
F000
1000
1000
1000
1F00
1180
1080
1080
1080
1F00
ENDCHAR
STARTCHAR 042B
ENCODING 1067
SWIDTH 785 0
DWIDTH 11 0
BBX 9 10 1 0
BITMAP
8080
8080
8080
8080
F880
8C80
8480
8480
8480
F880
ENDCHAR
STARTCHAR 042C
ENCODING 1068
SWIDTH 571 0
DWIDTH 8 0
BBX 6 10 1 0
BITMAP
80
80
80
80
F8
8C
84
84
84
F8
ENDCHAR
STARTCHAR 042D
ENCODING 1069
SWIDTH 571 0
DWIDTH 8 0
BBX 7 10 1 0
BITMAP
70
8C
04
02
3E
02
02
04
0C
F0
ENDCHAR
STARTCHAR 042E
ENCODING 1070
SWIDTH 1000 0
DWIDTH 14 0
BBX 12 10 1 0
BITMAP
8380
8C60
8820
9010
F010
9010
9010
8820
8C60
8380
ENDCHAR
STARTCHAR 042F
ENCODING 1071
SWIDTH 642 0
DWIDTH 9 0
BBX 7 10 0 0
BITMAP
3E
62
42
42
22
1E
12
22
42
82
ENDCHAR
STARTCHAR 0430
ENCODING 1072
SWIDTH 571 0
DWIDTH 8 0
BBX 7 8 1 0
BITMAP
38
44
04
7C
84
84
8C
76
ENDCHAR
STARTCHAR 0431
ENCODING 1073
SWIDTH 571 0
DWIDTH 8 0
BBX 6 11 1 0
BITMAP
38
40
80
B0
C8
84
84
84
84
48
30
ENDCHAR
STARTCHAR 0432
ENCODING 1074
SWIDTH 500 0
DWIDTH 7 0
BBX 5 8 1 0
BITMAP
F0
88
88
F0
98
88
88
F0
ENDCHAR
STARTCHAR 0433
ENCODING 1075
SWIDTH 500 0
DWIDTH 7 0
BBX 5 8 1 0
BITMAP
F8
80
80
80
80
80
80
80
ENDCHAR
STARTCHAR 0434
ENCODING 1076
SWIDTH 642 0
DWIDTH 9 0
BBX 8 10 0 -2
BITMAP
3E
22
22
22
22
42
42
FF
81
81
ENDCHAR
STARTCHAR 0435
ENCODING 1077
SWIDTH 571 0
DWIDTH 8 0
BBX 6 8 1 0
BITMAP
30
48
84
FC
80
80
40
3C
ENDCHAR
STARTCHAR 0436
ENCODING 1078
SWIDTH 714 0
DWIDTH 10 0
BBX 9 8 0 0
BITMAP
4900
2A00
2A00
1C00
2A00
4900
4900
8880
ENDCHAR
STARTCHAR 0437
ENCODING 1079
SWIDTH 500 0
DWIDTH 7 0
BBX 5 8 1 0
BITMAP
70
88
08
30
08
08
88
70
ENDCHAR
STARTCHAR 0438
ENCODING 1080
SWIDTH 642 0
DWIDTH 9 0
BBX 6 8 1 0
BITMAP
84
8C
94
94
A4
A4
C4
84
ENDCHAR
STARTCHAR 0439
ENCODING 1081
SWIDTH 642 0
DWIDTH 9 0
BBX 6 11 1 0
BITMAP
88
70
00
84
8C
94
94
A4
A4
C4
84
ENDCHAR
STARTCHAR 043A
ENCODING 1082
SWIDTH 571 0
DWIDTH 8 0
BBX 6 8 1 0
BITMAP
8C
90
A0
E0
90
90
88
84
ENDCHAR
STARTCHAR 043B
ENCODING 1083
SWIDTH 571 0
DWIDTH 8 0
BBX 7 8 0 0
BITMAP
3E
22
22
22
22
22
42
82
ENDCHAR
STARTCHAR 043C
ENCODING 1084
SWIDTH 714 0
DWIDTH 10 0
BBX 7 8 1 0
BITMAP
C2
C6
C6
EA
AA
BA
92
82
ENDCHAR
STARTCHAR 043D
ENCODING 1085
SWIDTH 642 0
DWIDTH 9 0
BBX 6 8 1 0
BITMAP
84
84
84
FC
84
84
84
84
ENDCHAR
STARTCHAR 043E
ENCODING 1086
SWIDTH 642 0
DWIDTH 9 0
BBX 7 8 1 0
BITMAP
38
44
82
82
82
82
44
38
ENDCHAR
STARTCHAR 043F
ENCODING 1087
SWIDTH 642 0
DWIDTH 9 0
BBX 6 8 1 0
BITMAP
FC
84
84
84
84
84
84
84
ENDCHAR
STARTCHAR 0440
ENCODING 1088
SWIDTH 642 0
DWIDTH 9 0
BBX 7 11 1 -3
BITMAP
B8
C4
82
82
82
82
C4
B8
80
80
80
ENDCHAR
STARTCHAR 0441
ENCODING 1089
SWIDTH 500 0
DWIDTH 7 0
BBX 6 8 1 0
BITMAP
3C
40
80
80
80
80
40
3C
ENDCHAR
STARTCHAR 0442
ENCODING 1090
SWIDTH 500 0
DWIDTH 7 0
BBX 7 8 0 0
BITMAP
FE
10
10
10
10
10
10
10
ENDCHAR
STARTCHAR 0443
ENCODING 1091
SWIDTH 500 0
DWIDTH 7 0
BBX 7 11 0 -3
BITMAP
82
44
44
44
28
28
18
10
10
20
C0
ENDCHAR
STARTCHAR 0444
ENCODING 1092
SWIDTH 785 0
DWIDTH 11 0
BBX 9 13 1 -3
BITMAP
0800
0800
3E00
4900
8880
8880
8880
8880
4900
3E00
0800
0800
0800
ENDCHAR
STARTCHAR 0445
ENCODING 1093
SWIDTH 642 0
DWIDTH 9 0
BBX 7 8 1 0
BITMAP
82
44
28
10
10
28
44
82
ENDCHAR
STARTCHAR 0446
ENCODING 1094
SWIDTH 642 0
DWIDTH 9 0
BBX 7 10 1 -2
BITMAP
84
84
84
84
84
84
84
FE
02
02
ENDCHAR
STARTCHAR 0447
ENCODING 1095
SWIDTH 500 0
DWIDTH 7 0
BBX 5 8 1 0
BITMAP
88
88
88
88
78
08
08
08
ENDCHAR
STARTCHAR 0448
ENCODING 1096
SWIDTH 857 0
DWIDTH 12 0
BBX 9 8 1 0
BITMAP
8880
8880
8880
8880
8880
8880
8880
FF80
ENDCHAR
STARTCHAR 0449
ENCODING 1097
SWIDTH 857 0
DWIDTH 12 0
BBX 10 10 1 -2
BITMAP
8880
8880
8880
8880
8880
8880
8880
FFC0
0040
0040
ENDCHAR
STARTCHAR 044A
ENCODING 1098
SWIDTH 571 0
DWIDTH 8 0
BBX 7 8 0 0
BITMAP
E0
20
20
3C
22
22
22
3C
ENDCHAR
STARTCHAR 044B
ENCODING 1099
SWIDTH 714 0
DWIDTH 10 0
BBX 8 8 1 0
BITMAP
81
81
81
F1
89
89
89
F1
ENDCHAR
STARTCHAR 044C
ENCODING 1100
SWIDTH 500 0
DWIDTH 7 0
BBX 5 8 1 0
BITMAP
80
80
80
F0
88
88
88
F0
ENDCHAR
STARTCHAR 044D
ENCODING 1101
SWIDTH 500 0
DWIDTH 7 0
BBX 6 8 0 0
BITMAP
F0
08
04
3C
04
04
08
F0
ENDCHAR
STARTCHAR 044E
ENCODING 1102
SWIDTH 785 0
DWIDTH 11 0
BBX 9 8 1 0
BITMAP
8E00
9100
A080
E080
A080
A080
9100
8E00
ENDCHAR
STARTCHAR 044F
ENCODING 1103
SWIDTH 500 0
DWIDTH 7 0
BBX 6 8 0 0
BITMAP
3C
44
44
44
3C
24
44
84
ENDCHAR
STARTCHAR 0451
ENCODING 1105
SWIDTH 571 0
DWIDTH 8 0
BBX 6 10 1 0
BITMAP
48
00
30
48
84
FC
80
80
40
3C
ENDCHAR
STARTCHAR 0452
ENCODING 1106
SWIDTH 642 0
DWIDTH 9 0
BBX 7 14 0 -3
BITMAP
40
40
F8
40
5C
62
42
42
42
42
42
02
02
0C
ENDCHAR
STARTCHAR 0453
ENCODING 1107
SWIDTH 500 0
DWIDTH 7 0
BBX 5 11 1 0
BITMAP
30
60
00
F8
80
80
80
80
80
80
80
ENDCHAR
STARTCHAR 0454
ENCODING 1108
SWIDTH 500 0
DWIDTH 7 0
BBX 6 8 1 0
BITMAP
3C
40
80
F0
80
80
40
3C
ENDCHAR
STARTCHAR 0455
ENCODING 1109
SWIDTH 500 0
DWIDTH 7 0
BBX 5 8 1 0
BITMAP
70
80
80
70
08
08
08
F0
ENDCHAR
STARTCHAR 0456
ENCODING 1110
SWIDTH 285 0
DWIDTH 4 0
BBX 1 10 1 0
BITMAP
80
00
80
80
80
80
80
80
80
80
ENDCHAR
STARTCHAR 0457
ENCODING 1111
SWIDTH 285 0
DWIDTH 4 0
BBX 4 10 -1 0
BITMAP
90
00
20
20
20
20
20
20
20
20
ENDCHAR
STARTCHAR 0458
ENCODING 1112
SWIDTH 285 0
DWIDTH 4 0
BBX 4 13 -1 -3
BITMAP
10
00
10
10
10
10
10
10
10
10
10
10
E0
ENDCHAR
STARTCHAR 0459
ENCODING 1113
SWIDTH 785 0
DWIDTH 11 0
BBX 10 8 0 0
BITMAP
3C00
2400
2400
2780
2440
2440
4440
8780
ENDCHAR
STARTCHAR 045A
ENCODING 1114
SWIDTH 857 0
DWIDTH 12 0
BBX 10 8 1 0
BITMAP
8400
8400
8400
FF80
8440
8440
8440
8780
ENDCHAR
STARTCHAR 045B
ENCODING 1115
SWIDTH 642 0
DWIDTH 9 0
BBX 7 11 0 0
BITMAP
40
40
F8
40
5C
62
42
42
42
42
42
ENDCHAR
STARTCHAR 045C
ENCODING 1116
SWIDTH 571 0
DWIDTH 8 0
BBX 6 11 1 0
BITMAP
30
60
00
8C
90
A0
E0
90
90
88
84
ENDCHAR
STARTCHAR 045E
ENCODING 1118
SWIDTH 500 0
DWIDTH 7 0
BBX 7 14 0 -3
BITMAP
44
38
00
82
44
44
44
28
28
18
10
10
20
C0
ENDCHAR
STARTCHAR 045F
ENCODING 1119
SWIDTH 642 0
DWIDTH 9 0
BBX 7 10 1 -2
BITMAP
82
82
82
82
82
82
82
FE
10
10
ENDCHAR
STARTCHAR 0462
ENCODING 1122
SWIDTH 642 0
DWIDTH 9 0
BBX 9 10 0 0
BITMAP
1000
FE00
1000
1000
1F00
1080
1080
1080
1080
1F00
ENDCHAR
STARTCHAR 0463
ENCODING 1123
SWIDTH 571 0
DWIDTH 8 0
BBX 7 11 0 0
BITMAP
20
20
20
F8
20
20
3C
22
22
22
3C
ENDCHAR
STARTCHAR 046A
ENCODING 1130
SWIDTH 785 0
DWIDTH 11 0
BBX 11 10 0 0
BITMAP
7FC0
4040
2080
1100
0A00
1F00
2480
4440
4440
8420
ENDCHAR
STARTCHAR 046B
ENCODING 1131
SWIDTH 714 0
DWIDTH 10 0
BBX 9 8 0 0
BITMAP
7F00
4100
2200
1400
1C00
2A00
4900
8880
ENDCHAR
STARTCHAR 0490
ENCODING 1168
SWIDTH 500 0
DWIDTH 7 0
BBX 6 12 1 0
BITMAP
04
04
FC
80
80
80
80
80
80
80
80
80
ENDCHAR
STARTCHAR 0491
ENCODING 1169
SWIDTH 500 0
DWIDTH 7 0
BBX 5 10 1 0
BITMAP
08
08
F8
80
80
80
80
80
80
80
ENDCHAR
STARTCHAR 0492
ENCODING 1170
SWIDTH 571 0
DWIDTH 8 0
BBX 8 10 0 0
BITMAP
3F
20
20
20
FC
20
20
20
20
20
ENDCHAR
STARTCHAR 0493
ENCODING 1171
SWIDTH 500 0
DWIDTH 7 0
BBX 6 8 0 0
BITMAP
7C
40
40
40
F0
40
40
40
ENDCHAR
STARTCHAR 0494
ENCODING 1172
SWIDTH 642 0
DWIDTH 9 0
BBX 7 12 1 -2
BITMAP
F8
80
80
80
F8
C4
82
82
82
82
04
18
ENDCHAR
STARTCHAR 0495
ENCODING 1173
SWIDTH 571 0
DWIDTH 8 0
BBX 6 10 1 -2
BITMAP
F8
80
80
F8
8C
84
84
84
08
30
ENDCHAR
STARTCHAR 0496
ENCODING 1174
SWIDTH 857 0
DWIDTH 12 0
BBX 11 12 0 -2
BITMAP
C440
6480
2580
3500
1E00
2580
2480
4480
44C0
8460
0020
0020
ENDCHAR
STARTCHAR 0497
ENCODING 1175
SWIDTH 785 0
DWIDTH 11 0
BBX 10 10 0 -2
BITMAP
4880
2900
2B00
1E00
2B00
4900
4980
88C0
0040
0040
ENDCHAR
STARTCHAR 0498
ENCODING 1176
SWIDTH 571 0
DWIDTH 8 0
BBX 7 13 0 -3
BITMAP
7C
82
02
04
38
04
02
02
84
78
20
10
20
ENDCHAR
STARTCHAR 0499
ENCODING 1177
SWIDTH 500 0
DWIDTH 7 0
BBX 5 11 1 -3
BITMAP
70
88
08
30
08
08
88
70
40
40
C0
ENDCHAR
STARTCHAR 049A
ENCODING 1178
SWIDTH 642 0
DWIDTH 9 0
BBX 7 12 1 -2
BITMAP
8C
88
90
B0
E0
B0
98
88
8C
86
02
02
ENDCHAR
STARTCHAR 049B
ENCODING 1179
SWIDTH 571 0
DWIDTH 8 0
BBX 6 10 1 -2
BITMAP
98
90
B0
E0
B0
90
98
8C
04
04
ENDCHAR
STARTCHAR 049C
ENCODING 1180
SWIDTH 714 0
DWIDTH 10 0
BBX 8 10 1 0
BITMAP
83
82
A4
A8
F0
AC
A4
82
82
81
ENDCHAR
STARTCHAR 049D
ENCODING 1181
SWIDTH 642 0
DWIDTH 9 0
BBX 7 8 1 0
BITMAP
86
84
A8
F0
A8
A4
84
82
ENDCHAR
STARTCHAR 049E
ENCODING 1182
SWIDTH 642 0
DWIDTH 9 0
BBX 8 10 1 0
BITMAP
43
F6
4C
58
70
48
44
46
42
41
ENDCHAR
STARTCHAR 049F
ENCODING 1183
SWIDTH 571 0
DWIDTH 8 0
BBX 7 11 0 0
BITMAP
40
40
F0
46
4C
58
70
48
4C
44
42
ENDCHAR
STARTCHAR 04A0
ENCODING 1184
SWIDTH 714 0
DWIDTH 10 0
BBX 10 10 0 0
BITMAP
F0C0
1180
1300
1600
1C00
1200
1100
1180
1080
1040
ENDCHAR
STARTCHAR 04A1
ENCODING 1185
SWIDTH 571 0
DWIDTH 8 0
BBX 8 8 0 0
BITMAP
E3
26
2C
38
24
26
22
21
ENDCHAR
STARTCHAR 04A2
ENCODING 1186
SWIDTH 785 0
DWIDTH 11 0
BBX 9 12 1 -2
BITMAP
8100
8100
8100
8100
FF00
8100
8100
8100
8100
8180
0080
0080
ENDCHAR
STARTCHAR 04A3
ENCODING 1187
SWIDTH 642 0
DWIDTH 9 0
BBX 7 10 1 -2
BITMAP
84
84
84
FC
84
84
84
86
02
02
ENDCHAR
STARTCHAR 04A4
ENCODING 1188
SWIDTH 857 0
DWIDTH 12 0
BBX 11 10 1 0
BITMAP
81E0
8100
8100
8100
FF00
8100
8100
8100
8100
8100
ENDCHAR
STARTCHAR 04A5
ENCODING 1189
SWIDTH 714 0
DWIDTH 10 0
BBX 8 8 1 0
BITMAP
87
84
84
FC
84
84
84
84
ENDCHAR
STARTCHAR 04A6
ENCODING 1190
SWIDTH 1000 0
DWIDTH 14 0
BBX 13 12 1 -2
BITMAP
FE00
8200
8200
8200
83E0
8310
8208
8208
8208
8208
0010
0060
ENDCHAR
STARTCHAR 04A7
ENCODING 1191
SWIDTH 857 0
DWIDTH 12 0
BBX 11 10 1 -2
BITMAP
FC00
8400
8400
87C0
8460
8420
8420
8420
0040
0180
ENDCHAR
STARTCHAR 04A8
ENCODING 1192
SWIDTH 785 0
DWIDTH 11 0
BBX 9 11 1 -1
BITMAP
3C00
6300
C700
8C80
8880
8880
8880
C900
6700
3E00
0180
ENDCHAR
STARTCHAR 04A9
ENCODING 1193
SWIDTH 642 0
DWIDTH 9 0
BBX 8 10 1 -2
BITMAP
38
44
8E
92
92
92
4C
38
04
03
ENDCHAR
STARTCHAR 04AA
ENCODING 1194
SWIDTH 714 0
DWIDTH 10 0
BBX 8 13 1 -3
BITMAP
1E
61
40
80
80
80
80
40
61
1E
08
08
18
ENDCHAR
STARTCHAR 04AB
ENCODING 1195
SWIDTH 500 0
DWIDTH 7 0
BBX 6 11 1 -3
BITMAP
3C
40
80
80
80
80
40
3C
30
10
30
ENDCHAR
STARTCHAR 04AC
ENCODING 1196
SWIDTH 642 0
DWIDTH 9 0
BBX 9 12 0 -2
BITMAP
FF80
0800
0800
0800
0800
0800
0800
0800
0800
0C00
0400
0400
ENDCHAR
STARTCHAR 04AD
ENCODING 1197
SWIDTH 500 0
DWIDTH 7 0
BBX 7 9 0 -2
BITMAP
FE
10
10
10
10
10
18
08
08
ENDCHAR
STARTCHAR 04AE
ENCODING 1198
SWIDTH 642 0
DWIDTH 9 0
BBX 8 10 0 0
BITMAP
83
42
44
2C
28
10
10
10
10
10
ENDCHAR
STARTCHAR 04AF
ENCODING 1199
SWIDTH 500 0
DWIDTH 7 0
BBX 7 7 0 0
BITMAP
C6
44
28
10
10
10
10
ENDCHAR
STARTCHAR 04B0
ENCODING 1200
SWIDTH 642 0
DWIDTH 9 0
BBX 8 10 0 0
BITMAP
83
42
44
2C
28
10
10
7E
10
10
ENDCHAR
STARTCHAR 04B1
ENCODING 1201
SWIDTH 500 0
DWIDTH 7 0
BBX 7 8 0 0
BITMAP
C6
44
28
28
10
7C
10
10
ENDCHAR
STARTCHAR 04B2
ENCODING 1202
SWIDTH 642 0
DWIDTH 9 0
BBX 9 12 0 -2
BITMAP
C300
4200
2400
1C00
1800
1800
3400
2200
4300
C180
0080
0080
ENDCHAR
STARTCHAR 04B3
ENCODING 1203
SWIDTH 642 0
DWIDTH 9 0
BBX 8 10 1 -2
BITMAP
C6
44
28
18
38
24
46
C3
01
01
ENDCHAR
STARTCHAR 04B4
ENCODING 1204
SWIDTH 857 0
DWIDTH 12 0
BBX 12 12 0 -2
BITMAP
FC20
1020
1020
1020
1020
1020
1020
1020
1020
1FF0
0010
0010
ENDCHAR
STARTCHAR 04B5
ENCODING 1205
SWIDTH 714 0
DWIDTH 10 0
BBX 9 10 0 -2
BITMAP
F900
2100
2100
2100
2100
2100
2100
3F80
0080
0080
ENDCHAR
STARTCHAR 04B6
ENCODING 1206
SWIDTH 642 0
DWIDTH 9 0
BBX 8 12 1 -2
BITMAP
82
82
82
82
82
C6
7A
02
02
03
01
01
ENDCHAR
STARTCHAR 04B7
ENCODING 1207
SWIDTH 571 0
DWIDTH 8 0
BBX 6 9 1 -2
BITMAP
88
88
88
88
78
08
0C
04
04
ENDCHAR
STARTCHAR 04B8
ENCODING 1208
SWIDTH 642 0
DWIDTH 9 0
BBX 7 10 1 0
BITMAP
82
82
82
92
92
D6
7A
12
02
02
ENDCHAR
STARTCHAR 04B9
ENCODING 1209
SWIDTH 500 0
DWIDTH 7 0
BBX 5 8 1 0
BITMAP
88
88
A8
A8
78
28
28
08
ENDCHAR
STARTCHAR 04BA
ENCODING 1210
SWIDTH 642 0
DWIDTH 9 0
BBX 7 10 1 0
BITMAP
80
80
80
BC
C6
82
82
82
82
82
ENDCHAR
STARTCHAR 04BB
ENCODING 1211
SWIDTH 500 0
DWIDTH 7 0
BBX 5 8 1 0
BITMAP
80
80
80
F0
88
88
88
88
ENDCHAR
STARTCHAR 04BC
ENCODING 1212
SWIDTH 857 0
DWIDTH 12 0
BBX 11 10 0 0
BITMAP
0780
0C40
9820
9020
7FE0
1000
1000
0800
0C20
03C0
ENDCHAR
STARTCHAR 04BD
ENCODING 1213
SWIDTH 714 0
DWIDTH 10 0
BBX 9 8 0 0
BITMAP
0F00
8880
9080
7F80
1000
1000
0800
0780
ENDCHAR
STARTCHAR 04BE
ENCODING 1214
SWIDTH 857 0
DWIDTH 12 0
BBX 11 13 0 -4
BITMAP
0780
0C40
9820
9020
7FE0
1000
1000
0800
0C20
03C0
0100
0200
0300
ENDCHAR
STARTCHAR 04BF
ENCODING 1215
SWIDTH 714 0
DWIDTH 10 0
BBX 9 11 0 -4
BITMAP
0F00
8880
9080
7F80
1000
1000
0800
0780
0400
0400
0600
ENDCHAR
STARTCHAR 04C0
ENCODING 1216
SWIDTH 285 0
DWIDTH 4 0
BBX 1 10 1 0
BITMAP
80
80
80
80
80
80
80
80
80
80
ENDCHAR
STARTCHAR 04C1
ENCODING 1217
SWIDTH 785 0
DWIDTH 11 0
BBX 11 13 0 0
BITMAP
1100
0E00
0000
C460
2480
2480
1500
1F00
2480
2480
4440
4440
8420
ENDCHAR
STARTCHAR 04C2
ENCODING 1218
SWIDTH 714 0
DWIDTH 10 0
BBX 9 11 0 0
BITMAP
2200
1C00
0000
4900
2A00
2A00
1C00
2A00
4900
4900
8880
ENDCHAR
STARTCHAR 04C3
ENCODING 1219
SWIDTH 571 0
DWIDTH 8 0
BBX 6 12 1 -2
BITMAP
8C
88
90
B0
F0
88
84
84
84
84
08
30
ENDCHAR
STARTCHAR 04C4
ENCODING 1220
SWIDTH 571 0
DWIDTH 8 0
BBX 5 10 1 -2
BITMAP
98
90
A0
E0
90
88
88
88
18
30
ENDCHAR
STARTCHAR 04C7
ENCODING 1223
SWIDTH 714 0
DWIDTH 10 0
BBX 8 13 1 -3
BITMAP
81
81
81
81
FF
81
81
81
81
81
01
01
0E
ENDCHAR
STARTCHAR 04C8
ENCODING 1224
SWIDTH 642 0
DWIDTH 9 0
BBX 6 11 1 -3
BITMAP
84
84
84
FC
84
84
84
84
04
04
18
ENDCHAR
STARTCHAR 04CB
ENCODING 1227
SWIDTH 642 0
DWIDTH 9 0
BBX 7 12 1 -2
BITMAP
82
82
82
82
82
C6
7A
02
02
06
04
04
ENDCHAR
STARTCHAR 04CC
ENCODING 1228
SWIDTH 500 0
DWIDTH 7 0
BBX 5 10 1 -2
BITMAP
88
88
88
88
78
08
08
18
10
10
ENDCHAR
STARTCHAR 05B0
ENCODING 1456
SWIDTH 0 0
DWIDTH 0 0
BBX 1 4 4 -5
BITMAP
80
00
00
80
ENDCHAR
STARTCHAR 05B1
ENCODING 1457
SWIDTH 0 0
DWIDTH 0 0
BBX 6 5 2 -6
BITMAP
08
AC
00
08
4C
ENDCHAR
STARTCHAR 05B2
ENCODING 1458
SWIDTH 0 0
DWIDTH 0 0
BBX 5 5 2 -6
BITMAP
E0
08
00
00
08
ENDCHAR
STARTCHAR 05B3
ENCODING 1459
SWIDTH 0 0
DWIDTH 0 0
BBX 6 5 2 -6
BITMAP
E8
4C
40
08
0C
ENDCHAR
STARTCHAR 05B4
ENCODING 1460
SWIDTH 0 0
DWIDTH 0 0
BBX 1 1 4 -2
BITMAP
80
ENDCHAR
STARTCHAR 05B5
ENCODING 1461
SWIDTH 0 0
DWIDTH 0 0
BBX 4 2 3 -3
BITMAP
40
90
ENDCHAR
STARTCHAR 05B6
ENCODING 1462
SWIDTH 0 0
DWIDTH 0 0
BBX 4 5 3 -6
BITMAP
40
90
00
20
40
ENDCHAR
STARTCHAR 05B7
ENCODING 1463
SWIDTH 0 0
DWIDTH 0 0
BBX 3 1 3 -2
BITMAP
E0
ENDCHAR
STARTCHAR 05B8
ENCODING 1464
SWIDTH 0 0
DWIDTH 0 0
BBX 3 3 3 -4
BITMAP
E0
40
40
ENDCHAR
STARTCHAR 05B9
ENCODING 1465
SWIDTH 0 0
DWIDTH 0 0
BBX 1 1 -1 8
BITMAP
80
ENDCHAR
STARTCHAR 05BB
ENCODING 1467
SWIDTH 0 0
DWIDTH 0 0
BBX 8 3 2 -4
BITMAP
80
12
03
ENDCHAR
STARTCHAR 05BC
ENCODING 1468
SWIDTH 0 0
DWIDTH 0 0
BBX 1 1 3 4
BITMAP
80
ENDCHAR
STARTCHAR 05BD
ENCODING 1469
SWIDTH 0 0
DWIDTH 0 0
BBX 1 2 5 -3
BITMAP
80
80
ENDCHAR
STARTCHAR 05BE
ENCODING 1470
SWIDTH 428 0
DWIDTH 6 0
BBX 5 1 1 7
BITMAP
F8
ENDCHAR
STARTCHAR 05BF
ENCODING 1471
SWIDTH 0 0
DWIDTH 0 0
BBX 3 1 3 9
BITMAP
E0
ENDCHAR
STARTCHAR 05C0
ENCODING 1472
SWIDTH 285 0
DWIDTH 4 0
BBX 1 8 1 0
BITMAP
80
80
80
80
80
80
80
80
ENDCHAR
STARTCHAR 05C1
ENCODING 1473
SWIDTH 0 0
DWIDTH 0 0
BBX 2 2 8 8
BITMAP
80
40
ENDCHAR
STARTCHAR 05C2
ENCODING 1474
SWIDTH 0 0
DWIDTH 0 0
BBX 1 2 1 8
BITMAP
80
80
ENDCHAR
STARTCHAR 05C3
ENCODING 1475
SWIDTH 285 0
DWIDTH 4 0
BBX 2 8 1 0
BITMAP
80
C0
00
00
00
00
80
C0
ENDCHAR
STARTCHAR 05D0
ENCODING 1488
SWIDTH 642 0
DWIDTH 9 0
BBX 7 8 1 0
BITMAP
C2
62
72
5C
88
84
86
82
ENDCHAR
STARTCHAR 05D1
ENCODING 1489
SWIDTH 571 0
DWIDTH 8 0
BBX 7 8 0 0
BITMAP
78
04
04
04
04
04
04
FE
ENDCHAR
STARTCHAR 05D2
ENCODING 1490
SWIDTH 428 0
DWIDTH 6 0
BBX 4 8 1 0
BITMAP
60
30
10
10
10
30
D0
90
ENDCHAR
STARTCHAR 05D3
ENCODING 1491
SWIDTH 500 0
DWIDTH 7 0
BBX 7 8 0 0
BITMAP
FE
08
08
08
08
08
08
08
ENDCHAR
STARTCHAR 05D4
ENCODING 1492
SWIDTH 714 0
DWIDTH 10 0
BBX 8 8 1 0
BITMAP
FE
01
01
41
41
41
41
41
ENDCHAR
STARTCHAR 05D5
ENCODING 1493
SWIDTH 285 0
DWIDTH 4 0
BBX 3 8 0 0
BITMAP
C0
60
20
20
20
20
20
20
ENDCHAR
STARTCHAR 05D6
ENCODING 1494
SWIDTH 285 0
DWIDTH 4 0
BBX 4 8 0 0
BITMAP
80
70
40
40
40
40
40
40
ENDCHAR
STARTCHAR 05D7
ENCODING 1495
SWIDTH 714 0
DWIDTH 10 0
BBX 8 8 1 0
BITMAP
FE
41
41
41
41
41
41
41
ENDCHAR
STARTCHAR 05D8
ENCODING 1496
SWIDTH 642 0
DWIDTH 9 0
BBX 8 8 1 1
BITMAP
86
81
81
C1
43
42
5C
70
ENDCHAR
STARTCHAR 05D9
ENCODING 1497
SWIDTH 285 0
DWIDTH 4 0
BBX 3 5 0 3
BITMAP
C0
60
20
20
20
ENDCHAR
STARTCHAR 05DA
ENCODING 1498
SWIDTH 500 0
DWIDTH 7 0
BBX 6 10 0 -2
BITMAP
FC
04
04
04
04
04
04
04
04
04
ENDCHAR
STARTCHAR 05DB
ENCODING 1499
SWIDTH 571 0
DWIDTH 8 0
BBX 7 8 0 0
BITMAP
7C
06
02
02
02
02
04
FC
ENDCHAR
STARTCHAR 05DC
ENCODING 1500
SWIDTH 500 0
DWIDTH 7 0
BBX 6 11 1 0
BITMAP
80
80
80
F8
04
04
04
08
08
30
C0
ENDCHAR
STARTCHAR 05DD
ENCODING 1501
SWIDTH 714 0
DWIDTH 10 0
BBX 8 8 1 0
BITMAP
FE
41
41
41
41
41
41
7E
ENDCHAR
STARTCHAR 05DE
ENCODING 1502
SWIDTH 642 0
DWIDTH 9 0
BBX 7 8 1 0
BITMAP
1C
E4
46
42
42
42
82
9C
ENDCHAR
STARTCHAR 05DF
ENCODING 1503
SWIDTH 285 0
DWIDTH 4 0
BBX 3 10 0 -2
BITMAP
C0
60
20
20
20
20
20
20
20
20
ENDCHAR
STARTCHAR 05E0
ENCODING 1504
SWIDTH 428 0
DWIDTH 6 0
BBX 4 8 0 0
BITMAP
60
30
10
10
10
10
10
E0
ENDCHAR
STARTCHAR 05E1
ENCODING 1505
SWIDTH 642 0
DWIDTH 9 0
BBX 8 8 0 0
BITMAP
FE
41
61
61
22
22
24
38
ENDCHAR
STARTCHAR 05E2
ENCODING 1506
SWIDTH 571 0
DWIDTH 8 0
BBX 8 9 0 -1
BITMAP
41
41
21
21
22
32
14
18
E0
ENDCHAR
STARTCHAR 05E3
ENCODING 1507
SWIDTH 500 0
DWIDTH 7 0
BBX 6 10 0 -2
BITMAP
60
9C
84
84
C4
04
04
04
04
04
ENDCHAR
STARTCHAR 05E4
ENCODING 1508
SWIDTH 571 0
DWIDTH 8 0
BBX 6 8 0 0
BITMAP
20
5C
44
44
64
04
04
FC
ENDCHAR
STARTCHAR 05E5
ENCODING 1509
SWIDTH 500 0
DWIDTH 7 0
BBX 6 10 0 -2
BITMAP
84
C4
44
68
30
20
20
20
20
20
ENDCHAR
STARTCHAR 05E6
ENCODING 1510
SWIDTH 571 0
DWIDTH 8 0
BBX 7 8 0 0
BITMAP
42
62
22
34
18
08
04
FE
ENDCHAR
STARTCHAR 05E7
ENCODING 1511
SWIDTH 642 0
DWIDTH 9 0
BBX 8 10 1 -2
BITMAP
FE
01
01
41
42
46
4C
50
40
40
ENDCHAR
STARTCHAR 05E8
ENCODING 1512
SWIDTH 500 0
DWIDTH 7 0
BBX 5 8 1 0
BITMAP
F0
08
08
08
08
08
08
08
ENDCHAR
STARTCHAR 05E9
ENCODING 1513
SWIDTH 714 0
DWIDTH 10 0
BBX 9 8 1 0
BITMAP
0880
8880
C880
C880
7100
4200
4C00
7000
ENDCHAR
STARTCHAR 05EA
ENCODING 1514
SWIDTH 714 0
DWIDTH 10 0
BBX 8 8 0 0
BITMAP
7E
61
41
41
41
41
61
E1
ENDCHAR
STARTCHAR 05F0
ENCODING 1520
SWIDTH 642 0
DWIDTH 9 0
BBX 7 8 0 0
BITMAP
CC
66
22
22
22
22
22
22
ENDCHAR
STARTCHAR 05F1
ENCODING 1521
SWIDTH 642 0
DWIDTH 9 0
BBX 7 8 0 0
BITMAP
CC
66
22
22
22
02
02
02
ENDCHAR
STARTCHAR 05F2
ENCODING 1522
SWIDTH 571 0
DWIDTH 8 0
BBX 7 5 0 3
BITMAP
CC
66
22
22
22
ENDCHAR
STARTCHAR 05F3
ENCODING 1523
SWIDTH 285 0
DWIDTH 4 0
BBX 2 3 1 7
BITMAP
40
80
80
ENDCHAR
STARTCHAR 05F4
ENCODING 1524
SWIDTH 500 0
DWIDTH 7 0
BBX 5 3 1 7
BITMAP
48
90
90
ENDCHAR
STARTCHAR 1E80
ENCODING 7808
SWIDTH 857 0
DWIDTH 12 0
BBX 12 13 0 0
BITMAP
0C00
0600
0000
8610
C630
4620
4620
4920
2940
2940
2940
1080
1080
ENDCHAR
STARTCHAR 1E81
ENCODING 7809
SWIDTH 785 0
DWIDTH 11 0
BBX 10 11 0 0
BITMAP
1800
0C00
0000
8C40
8C40
4C80
5280
5280
5280
2100
2100
ENDCHAR
STARTCHAR 1E82
ENCODING 7810
SWIDTH 857 0
DWIDTH 12 0
BBX 12 13 0 0
BITMAP
0180
0300
0000
8610
C630
4620
4620
4920
2940
2940
2940
1080
1080
ENDCHAR
STARTCHAR 1E83
ENCODING 7811
SWIDTH 785 0
DWIDTH 11 0
BBX 10 11 0 0
BITMAP
0300
0600
0000
8C40
8C40
4C80
5280
5280
5280
2100
2100
ENDCHAR
STARTCHAR 1E84
ENCODING 7812
SWIDTH 857 0
DWIDTH 12 0
BBX 12 12 0 0
BITMAP
0900
0000
8610
C630
4620
4620
4920
2940
2940
2940
1080
1080
ENDCHAR
STARTCHAR 1E85
ENCODING 7813
SWIDTH 785 0
DWIDTH 11 0
BBX 10 10 0 0
BITMAP
1200
0000
8C40
8C40
4C80
5280
5280
5280
2100
2100
ENDCHAR
STARTCHAR 1EF2
ENCODING 7922
SWIDTH 642 0
DWIDTH 9 0
BBX 9 13 0 0
BITMAP
3000
1800
0000
8080
4100
2200
2200
1400
0800
0800
0800
0800
0800
ENDCHAR
STARTCHAR 1EF3
ENCODING 7923
SWIDTH 500 0
DWIDTH 7 0
BBX 7 14 0 -3
BITMAP
30
18
00
82
44
44
44
28
28
28
10
10
10
20
ENDCHAR
STARTCHAR 2000
ENCODING 8192
SWIDTH 500 0
DWIDTH 7 0
BBX 0 0 0 0
BITMAP
ENDCHAR
STARTCHAR 2001
ENCODING 8193
SWIDTH 1000 0
DWIDTH 14 0
BBX 0 0 0 0
BITMAP
ENDCHAR
STARTCHAR 2002
ENCODING 8194
SWIDTH 500 0
DWIDTH 7 0
BBX 0 0 0 0
BITMAP
ENDCHAR
STARTCHAR 2003
ENCODING 8195
SWIDTH 1000 0
DWIDTH 14 0
BBX 0 0 0 0
BITMAP
ENDCHAR
STARTCHAR 2004
ENCODING 8196
SWIDTH 357 0
DWIDTH 5 0
BBX 0 0 0 0
BITMAP
ENDCHAR
STARTCHAR 2005
ENCODING 8197
SWIDTH 285 0
DWIDTH 4 0
BBX 0 0 0 0
BITMAP
ENDCHAR
STARTCHAR 2006
ENCODING 8198
SWIDTH 142 0
DWIDTH 2 0
BBX 0 0 0 0
BITMAP
ENDCHAR
STARTCHAR 2007
ENCODING 8199
SWIDTH 642 0
DWIDTH 9 0
BBX 0 0 0 0
BITMAP
ENDCHAR
STARTCHAR 2008
ENCODING 8200
SWIDTH 285 0
DWIDTH 4 0
BBX 0 0 0 0
BITMAP
ENDCHAR
STARTCHAR 2009
ENCODING 8201
SWIDTH 142 0
DWIDTH 2 0
BBX 0 0 0 0
BITMAP
ENDCHAR
STARTCHAR 200A
ENCODING 8202
SWIDTH 71 0
DWIDTH 1 0
BBX 0 0 0 0
BITMAP
ENDCHAR
STARTCHAR 200B
ENCODING 8203
SWIDTH 0 0
DWIDTH 0 0
BBX 0 0 0 0
BITMAP
ENDCHAR
STARTCHAR 200C
ENCODING 8204
SWIDTH 0 0
DWIDTH 0 0
BBX 0 0 0 0
BITMAP
ENDCHAR
STARTCHAR 200D
ENCODING 8205
SWIDTH 0 0
DWIDTH 0 0
BBX 0 0 0 0
BITMAP
ENDCHAR
STARTCHAR 200E
ENCODING 8206
SWIDTH 0 0
DWIDTH 0 0
BBX 0 0 0 0
BITMAP
ENDCHAR
STARTCHAR 200F
ENCODING 8207
SWIDTH 0 0
DWIDTH 0 0
BBX 0 0 0 0
BITMAP
ENDCHAR
STARTCHAR 2010
ENCODING 8208
SWIDTH 357 0
DWIDTH 5 0
BBX 3 1 1 4
BITMAP
E0
ENDCHAR
STARTCHAR 2011
ENCODING 8209
SWIDTH 357 0
DWIDTH 5 0
BBX 3 1 1 4
BITMAP
E0
ENDCHAR
STARTCHAR 2012
ENCODING 8210
SWIDTH 642 0
DWIDTH 9 0
BBX 5 1 2 4
BITMAP
F8
ENDCHAR
STARTCHAR 2013
ENCODING 8211
SWIDTH 500 0
DWIDTH 7 0
BBX 5 1 1 4
BITMAP
F8
ENDCHAR
STARTCHAR 2014
ENCODING 8212
SWIDTH 1000 0
DWIDTH 14 0
BBX 12 1 1 4
BITMAP
FFF0
ENDCHAR
STARTCHAR 2015
ENCODING 8213
SWIDTH 1000 0
DWIDTH 14 0
BBX 13 1 1 4
BITMAP
FFF8
ENDCHAR
STARTCHAR 2016
ENCODING 8214
SWIDTH 571 0
DWIDTH 8 0
BBX 4 13 2 -2
BITMAP
90
90
90
90
90
90
90
90
90
90
90
90
90
ENDCHAR
STARTCHAR 2017
ENCODING 8215
SWIDTH 500 0
DWIDTH 7 0
BBX 6 3 1 -3
BITMAP
FC
00
FC
ENDCHAR
STARTCHAR 2018
ENCODING 8216
SWIDTH 285 0
DWIDTH 4 0
BBX 2 4 1 7
BITMAP
40
80
C0
C0
ENDCHAR
STARTCHAR 2019
ENCODING 8217
SWIDTH 285 0
DWIDTH 4 0
BBX 2 4 1 7
BITMAP
C0
C0
40
80
ENDCHAR
STARTCHAR 201A
ENCODING 8218
SWIDTH 285 0
DWIDTH 4 0
BBX 2 4 1 -2
BITMAP
C0
C0
40
80
ENDCHAR
STARTCHAR 201B
ENCODING 8219
SWIDTH 285 0
DWIDTH 4 0
BBX 2 4 1 7
BITMAP
C0
C0
80
40
ENDCHAR
STARTCHAR 201C
ENCODING 8220
SWIDTH 357 0
DWIDTH 5 0
BBX 4 4 1 7
BITMAP
50
A0
A0
A0
ENDCHAR
STARTCHAR 201D
ENCODING 8221
SWIDTH 357 0
DWIDTH 5 0
BBX 4 4 0 7
BITMAP
50
50
50
A0
ENDCHAR
STARTCHAR 201E
ENCODING 8222
SWIDTH 357 0
DWIDTH 5 0
BBX 4 4 0 -2
BITMAP
50
50
50
A0
ENDCHAR
STARTCHAR 201F
ENCODING 8223
SWIDTH 357 0
DWIDTH 5 0
BBX 5 4 0 7
BITMAP
D8
D8
90
48
ENDCHAR
STARTCHAR 2020
ENCODING 8224
SWIDTH 642 0
DWIDTH 9 0
BBX 5 12 2 -2
BITMAP
20
20
20
F8
20
20
20
20
20
20
20
20
ENDCHAR
STARTCHAR 2021
ENCODING 8225
SWIDTH 642 0
DWIDTH 9 0
BBX 5 12 2 -2
BITMAP
20
20
20
F8
20
20
20
F8
20
20
20
20
ENDCHAR
STARTCHAR 2022
ENCODING 8226
SWIDTH 642 0
DWIDTH 9 0
BBX 3 3 3 2
BITMAP
E0
E0
E0
ENDCHAR
STARTCHAR 2023
ENCODING 8227
SWIDTH 357 0
DWIDTH 5 0
BBX 3 5 1 1
BITMAP
80
C0
E0
C0
80
ENDCHAR
STARTCHAR 2024
ENCODING 8228
SWIDTH 357 0
DWIDTH 5 0
BBX 1 1 2 0
BITMAP
80
ENDCHAR
STARTCHAR 2025
ENCODING 8229
SWIDTH 642 0
DWIDTH 9 0
BBX 6 1 2 0
BITMAP
84
ENDCHAR
STARTCHAR 2026
ENCODING 8230
SWIDTH 1000 0
DWIDTH 14 0
BBX 11 1 2 0
BITMAP
8420
ENDCHAR
STARTCHAR 2027
ENCODING 8231
SWIDTH 357 0
DWIDTH 5 0
BBX 1 1 2 4
BITMAP
80
ENDCHAR
STARTCHAR 2028
ENCODING 8232
SWIDTH 0 0
DWIDTH 0 0
BBX 0 0 0 0
BITMAP
ENDCHAR
STARTCHAR 2029
ENCODING 8233
SWIDTH 0 0
DWIDTH 0 0
BBX 0 0 0 0
BITMAP
ENDCHAR
STARTCHAR 202A
ENCODING 8234
SWIDTH 0 0
DWIDTH 0 0
BBX 0 0 0 0
BITMAP
ENDCHAR
STARTCHAR 202B
ENCODING 8235
SWIDTH 0 0
DWIDTH 0 0
BBX 0 0 0 0
BITMAP
ENDCHAR
STARTCHAR 202C
ENCODING 8236
SWIDTH 0 0
DWIDTH 0 0
BBX 0 0 0 0
BITMAP
ENDCHAR
STARTCHAR 202D
ENCODING 8237
SWIDTH 0 0
DWIDTH 0 0
BBX 0 0 0 0
BITMAP
ENDCHAR
STARTCHAR 202E
ENCODING 8238
SWIDTH 0 0
DWIDTH 0 0
BBX 0 0 0 0
BITMAP
ENDCHAR
STARTCHAR 2030
ENCODING 8240
SWIDTH 1000 0
DWIDTH 14 0
BBX 14 10 0 0
BITMAP
6080
9100
9200
9400
6800
0B18
14A4
24A4
44A4
8318
ENDCHAR
STARTCHAR 2031
ENCODING 8241
SWIDTH 1357 0
DWIDTH 19 0
BBX 19 10 0 0
BITMAP
608000
910000
920000
940000
680000
0B18C0
14A520
24A520
44A520
8318C0
ENDCHAR
STARTCHAR 2032
ENCODING 8242
SWIDTH 357 0
DWIDTH 5 0
BBX 3 4 1 7
BITMAP
60
40
40
80
ENDCHAR
STARTCHAR 2033
ENCODING 8243
SWIDTH 571 0
DWIDTH 8 0
BBX 7 4 1 7
BITMAP
66
44
44
88
ENDCHAR
STARTCHAR 2034
ENCODING 8244
SWIDTH 785 0
DWIDTH 11 0
BBX 11 4 1 7
BITMAP
6660
4440
4440
8880
ENDCHAR
STARTCHAR 2035
ENCODING 8245
SWIDTH 357 0
DWIDTH 5 0
BBX 3 4 1 7
BITMAP
C0
40
40
20
ENDCHAR
STARTCHAR 2036
ENCODING 8246
SWIDTH 571 0
DWIDTH 8 0
BBX 7 4 0 7
BITMAP
CC
44
44
22
ENDCHAR
STARTCHAR 2037
ENCODING 8247
SWIDTH 785 0
DWIDTH 11 0
BBX 11 4 -1 7
BITMAP
CCC0
4440
4440
2220
ENDCHAR
STARTCHAR 2038
ENCODING 8248
SWIDTH 357 0
DWIDTH 5 0
BBX 5 5 0 -3
BITMAP
20
20
50
50
88
ENDCHAR
STARTCHAR 2039
ENCODING 8249
SWIDTH 357 0
DWIDTH 5 0
BBX 3 7 1 0
BITMAP
20
40
40
80
40
40
20
ENDCHAR
STARTCHAR 203A
ENCODING 8250
SWIDTH 357 0
DWIDTH 5 0
BBX 3 7 1 0
BITMAP
80
40
40
20
40
40
80
ENDCHAR
STARTCHAR 203B
ENCODING 8251
SWIDTH 714 0
DWIDTH 10 0
BBX 8 8 1 1
BITMAP
89
42
24
99
18
24
42
89
ENDCHAR
STARTCHAR 203C
ENCODING 8252
SWIDTH 500 0
DWIDTH 7 0
BBX 4 10 1 0
BITMAP
90
90
90
90
90
90
90
90
00
90
ENDCHAR
STARTCHAR 203D
ENCODING 8253
SWIDTH 428 0
DWIDTH 6 0
BBX 4 10 1 0
BITMAP
60
90
50
50
60
40
40
40
00
40
ENDCHAR
STARTCHAR 203E
ENCODING 8254
SWIDTH 500 0
DWIDTH 7 0
BBX 6 1 1 11
BITMAP
FC
ENDCHAR
STARTCHAR 2040
ENCODING 8256
SWIDTH 571 0
DWIDTH 8 0
BBX 8 2 0 12
BITMAP
3C
C3
ENDCHAR
STARTCHAR 2041
ENCODING 8257
SWIDTH 500 0
DWIDTH 7 0
BBX 6 11 0 -3
BITMAP
04
08
08
08
10
10
20
20
50
50
88
ENDCHAR
STARTCHAR 2042
ENCODING 8258
SWIDTH 928 0
DWIDTH 13 0
BBX 11 10 1 0
BITMAP
0400
1500
0E00
1F00
0400
2080
AAA0
71C0
FBE0
2080
ENDCHAR
STARTCHAR 2043
ENCODING 8259
SWIDTH 357 0
DWIDTH 5 0
BBX 3 2 1 3
BITMAP
E0
E0
ENDCHAR
STARTCHAR 2044
ENCODING 8260
SWIDTH 0 0
DWIDTH 0 0
BBX 8 10 -4 0
BITMAP
01
02
04
04
08
10
20
20
40
80
ENDCHAR
STARTCHAR 2070
ENCODING 8304
SWIDTH 428 0
DWIDTH 6 0
BBX 4 6 1 4
BITMAP
60
90
90
90
90
60
ENDCHAR
STARTCHAR 2074
ENCODING 8308
SWIDTH 428 0
DWIDTH 6 0
BBX 5 6 1 4
BITMAP
30
50
90
F8
10
10
ENDCHAR
STARTCHAR 2075
ENCODING 8309
SWIDTH 428 0
DWIDTH 6 0
BBX 4 6 1 4
BITMAP
F0
80
E0
10
10
E0
ENDCHAR
STARTCHAR 2076
ENCODING 8310
SWIDTH 428 0
DWIDTH 6 0
BBX 4 6 1 4
BITMAP
70
80
E0
90
90
60
ENDCHAR
STARTCHAR 2077
ENCODING 8311
SWIDTH 428 0
DWIDTH 6 0
BBX 4 6 1 4
BITMAP
F0
10
20
40
80
80
ENDCHAR
STARTCHAR 2078
ENCODING 8312
SWIDTH 428 0
DWIDTH 6 0
BBX 4 6 1 4
BITMAP
F0
90
60
B0
90
E0
ENDCHAR
STARTCHAR 2079
ENCODING 8313
SWIDTH 428 0
DWIDTH 6 0
BBX 4 6 1 4
BITMAP
60
90
90
70
10
E0
ENDCHAR
STARTCHAR 207A
ENCODING 8314
SWIDTH 428 0
DWIDTH 6 0
BBX 5 5 1 5
BITMAP
20
20
F8
20
20
ENDCHAR
STARTCHAR 207B
ENCODING 8315
SWIDTH 428 0
DWIDTH 6 0
BBX 4 1 1 7
BITMAP
F0
ENDCHAR
STARTCHAR 207C
ENCODING 8316
SWIDTH 428 0
DWIDTH 6 0
BBX 4 3 1 6
BITMAP
F0
00
F0
ENDCHAR
STARTCHAR 207D
ENCODING 8317
SWIDTH 214 0
DWIDTH 3 0
BBX 2 8 1 3
BITMAP
40
40
80
80
80
80
40
40
ENDCHAR
STARTCHAR 207E
ENCODING 8318
SWIDTH 214 0
DWIDTH 3 0
BBX 2 8 0 3
BITMAP
80
80
40
40
40
40
80
80
ENDCHAR
STARTCHAR 207F
ENCODING 8319
SWIDTH 357 0
DWIDTH 5 0
BBX 4 5 1 4
BITMAP
F0
90
90
90
90
ENDCHAR
STARTCHAR 2080
ENCODING 8320
SWIDTH 428 0
DWIDTH 6 0
BBX 4 6 1 0
BITMAP
60
90
90
90
90
60
ENDCHAR
STARTCHAR 2081
ENCODING 8321
SWIDTH 428 0
DWIDTH 6 0
BBX 2 6 2 0
BITMAP
C0
40
40
40
40
40
ENDCHAR
STARTCHAR 2082
ENCODING 8322
SWIDTH 428 0
DWIDTH 6 0
BBX 4 6 1 0
BITMAP
E0
10
10
60
80
F0
ENDCHAR
STARTCHAR 2083
ENCODING 8323
SWIDTH 428 0
DWIDTH 6 0
BBX 4 6 1 0
BITMAP
F0
10
60
10
10
E0
ENDCHAR
STARTCHAR 2084
ENCODING 8324
SWIDTH 428 0
DWIDTH 6 0
BBX 5 6 1 0
BITMAP
30
50
90
F8
10
10
ENDCHAR
STARTCHAR 2085
ENCODING 8325
SWIDTH 428 0
DWIDTH 6 0
BBX 4 6 1 0
BITMAP
F0
80
E0
10
10
E0
ENDCHAR
STARTCHAR 2086
ENCODING 8326
SWIDTH 428 0
DWIDTH 6 0
BBX 4 6 1 0
BITMAP
70
80
E0
90
90
60
ENDCHAR
STARTCHAR 2087
ENCODING 8327
SWIDTH 428 0
DWIDTH 6 0
BBX 4 6 1 0
BITMAP
F0
10
20
40
80
80
ENDCHAR
STARTCHAR 2088
ENCODING 8328
SWIDTH 428 0
DWIDTH 6 0
BBX 4 6 1 0
BITMAP
F0
90
60
B0
90
E0
ENDCHAR
STARTCHAR 2089
ENCODING 8329
SWIDTH 428 0
DWIDTH 6 0
BBX 4 6 1 0
BITMAP
60
90
90
F0
10
E0
ENDCHAR
STARTCHAR 208A
ENCODING 8330
SWIDTH 428 0
DWIDTH 6 0
BBX 5 5 0 1
BITMAP
20
20
F8
20
20
ENDCHAR
STARTCHAR 208B
ENCODING 8331
SWIDTH 428 0
DWIDTH 6 0
BBX 4 1 1 3
BITMAP
F0
ENDCHAR
STARTCHAR 208C
ENCODING 8332
SWIDTH 428 0
DWIDTH 6 0
BBX 4 3 1 2
BITMAP
F0
00
F0
ENDCHAR
STARTCHAR 208D
ENCODING 8333
SWIDTH 214 0
DWIDTH 3 0
BBX 2 8 1 -1
BITMAP
40
40
80
80
80
80
40
40
ENDCHAR
STARTCHAR 208E
ENCODING 8334
SWIDTH 214 0
DWIDTH 3 0
BBX 2 8 0 -1
BITMAP
80
80
40
40
40
40
80
80
ENDCHAR
STARTCHAR 20A0
ENCODING 8352
SWIDTH 714 0
DWIDTH 10 0
BBX 8 10 1 0
BITMAP
3C
40
80
8F
88
48
3F
08
08
0F
ENDCHAR
STARTCHAR 20A1
ENCODING 8353
SWIDTH 714 0
DWIDTH 10 0
BBX 10 12 0 -1
BITMAP
0240
1F80
2480
6900
4900
5200
5200
6400
6400
7880
4F00
9000
ENDCHAR
STARTCHAR 20A2
ENCODING 8354
SWIDTH 714 0
DWIDTH 10 0
BBX 8 10 1 0
BITMAP
3F
60
40
8B
8C
88
88
48
69
3E
ENDCHAR
STARTCHAR 20A3
ENCODING 8355
SWIDTH 642 0
DWIDTH 9 0
BBX 7 10 1 0
BITMAP
7E
40
40
40
7C
40
40
E0
40
40
ENDCHAR
STARTCHAR 20A4
ENCODING 8356
SWIDTH 642 0
DWIDTH 9 0
BBX 6 10 2 0
BITMAP
3C
40
40
F0
40
F0
40
40
80
FC
ENDCHAR
STARTCHAR 20A5
ENCODING 8357
SWIDTH 928 0
DWIDTH 13 0
BBX 11 11 1 -1
BITMAP
0080
0100
BDC0
C620
8620
8420
8C20
8C20
9420
9420
2000
ENDCHAR
STARTCHAR 20A6
ENCODING 8358
SWIDTH 785 0
DWIDTH 11 0
BBX 10 10 1 0
BITMAP
6080
6080
5080
FFC0
4880
4480
FFC0
4280
4180
4180
ENDCHAR
STARTCHAR 20A7
ENCODING 8359
SWIDTH 1285 0
DWIDTH 18 0
BBX 16 10 1 0
BITMAP
F800
8500
87CE
8510
8910
F10E
8101
8101
8101
80DE
ENDCHAR
STARTCHAR 20A8
ENCODING 8360
SWIDTH 1000 0
DWIDTH 14 0
BBX 12 10 1 0
BITMAP
F800
8C00
84E0
8500
8900
F0C0
9070
8810
8410
87E0
ENDCHAR
STARTCHAR 20A9
ENCODING 8361
SWIDTH 1071 0
DWIDTH 15 0
BBX 14 10 0 0
BITMAP
4308
FFFC
2310
FFFC
2490
14A0
14A0
14A0
0840
0840
ENDCHAR
STARTCHAR 20AA
ENCODING 8362
SWIDTH 1071 0
DWIDTH 15 0
BBX 11 10 2 0
BITMAP
FE20
8120
8120
9120
9120
9120
9120
9020
9020
9FC0
ENDCHAR
STARTCHAR 20AC
ENCODING 8364
SWIDTH 642 0
DWIDTH 9 0
BBX 8 10 0 0
BITMAP
1E
21
40
FC
40
FC
40
40
21
1E
ENDCHAR
STARTCHAR 2100
ENCODING 8448
SWIDTH 785 0
DWIDTH 11 0
BBX 10 10 0 0
BITMAP
3840
4880
9900
B200
D400
0B80
1200
2400
4400
8700
ENDCHAR
STARTCHAR 2101
ENCODING 8449
SWIDTH 785 0
DWIDTH 11 0
BBX 10 10 0 0
BITMAP
3840
4880
9900
B200
D400
0B80
1200
2300
4100
8700
ENDCHAR
STARTCHAR 2102
ENCODING 8450
SWIDTH 714 0
DWIDTH 10 0
BBX 9 10 1 0
BITMAP
1F80
7000
5000
A000
A000
A000
A000
5000
7080
1F00
ENDCHAR
STARTCHAR 2103
ENCODING 8451
SWIDTH 928 0
DWIDTH 13 0
BBX 12 10 0 0
BITMAP
E1E0
A610
E400
0800
0800
0800
0800
0400
0610
01E0
ENDCHAR
STARTCHAR 2104
ENCODING 8452
SWIDTH 642 0
DWIDTH 9 0
BBX 8 10 1 0
BITMAP
10
3C
50
90
90
90
D0
7C
10
1F
ENDCHAR
STARTCHAR 2105
ENCODING 8453
SWIDTH 785 0
DWIDTH 11 0
BBX 10 10 0 0
BITMAP
3840
2080
4100
4200
7400
0B80
1480
2480
4480
8700
ENDCHAR
STARTCHAR 2106
ENCODING 8454
SWIDTH 785 0
DWIDTH 11 0
BBX 10 10 0 0
BITMAP
3840
2080
4100
4200
7400
0800
1240
2680
4580
8680
ENDCHAR
STARTCHAR 2107
ENCODING 8455
SWIDTH 642 0
DWIDTH 9 0
BBX 6 10 1 0
BITMAP
38
44
40
40
30
40
80
80
C4
78
ENDCHAR
STARTCHAR 2108
ENCODING 8456
SWIDTH 571 0
DWIDTH 8 0
BBX 7 10 1 0
BITMAP
78
84
02
02
3E
02
02
04
0C
F8
ENDCHAR
STARTCHAR 2109
ENCODING 8457
SWIDTH 785 0
DWIDTH 11 0
BBX 10 10 0 0
BITMAP
EFC0
A800
E800
0800
0F80
0800
0800
0800
0800
0800
ENDCHAR
STARTCHAR 210A
ENCODING 8458
SWIDTH 785 0
DWIDTH 11 0
BBX 10 13 0 -5
BITMAP
1D00
2300
6200
4200
4240
4680
3D00
0E00
3400
4400
8800
8800
7000
ENDCHAR
STARTCHAR 210B
ENCODING 8459
SWIDTH 1142 0
DWIDTH 16 0
BBX 15 11 0 0
BITMAP
000E
1F12
2112
3A22
0224
0228
07F0
6640
8448
8850
7060
ENDCHAR
STARTCHAR 210C
ENCODING 8460
SWIDTH 642 0
DWIDTH 9 0
BBX 8 13 0 -3
BITMAP
0F
12
20
24
26
1B
11
11
21
F1
02
0E
08
ENDCHAR
STARTCHAR 210D
ENCODING 8461
SWIDTH 857 0
DWIDTH 12 0
BBX 9 10 2 0
BITMAP
E380
A280
A280
A280
BE80
A280
A280
A280
A280
E380
ENDCHAR
STARTCHAR 210E
ENCODING 8462
SWIDTH 714 0
DWIDTH 10 0
BBX 9 11 1 0
BITMAP
6000
2000
2000
2E00
5200
6200
6400
4400
4400
8480
8700
ENDCHAR
STARTCHAR 210F
ENCODING 8463
SWIDTH 714 0
DWIDTH 10 0
BBX 7 11 1 0
BITMAP
60
2C
38
EE
52
62
64
44
44
84
86
ENDCHAR
STARTCHAR 2110
ENCODING 8464
SWIDTH 642 0
DWIDTH 9 0
BBX 10 13 0 -3
BITMAP
0080
0300
0D00
3240
2240
3280
1F00
0400
0400
0400
0800
8800
F000
ENDCHAR
STARTCHAR 2111
ENCODING 8465
SWIDTH 714 0
DWIDTH 10 0
BBX 7 10 1 0
BITMAP
22
FC
C4
24
06
02
02
82
C4
38
ENDCHAR
STARTCHAR 2112
ENCODING 8466
SWIDTH 785 0
DWIDTH 11 0
BBX 10 10 0 0
BITMAP
01C0
2240
3480
1F00
0400
0800
0800
7840
8C80
F380
ENDCHAR
STARTCHAR 2113
ENCODING 8467
SWIDTH 571 0
DWIDTH 8 0
BBX 8 11 0 0
BITMAP
07
09
09
12
12
14
38
E0
22
24
38
ENDCHAR
STARTCHAR 2114
ENCODING 8468
SWIDTH 1000 0
DWIDTH 14 0
BBX 13 11 1 0
BITMAP
4200
FF80
4200
42F0
4310
4208
4208
4208
4208
4310
42E0
ENDCHAR
STARTCHAR 2115
ENCODING 8469
SWIDTH 785 0
DWIDTH 11 0
BBX 8 10 2 0
BITMAP
C1
E1
B1
D9
ED
B7
9B
8D
87
83
ENDCHAR
STARTCHAR 2116
ENCODING 8470
SWIDTH 1000 0
DWIDTH 14 0
BBX 12 10 1 0
BITMAP
8400
C400
C4E0
A510
A510
9510
94E0
8DF0
8C00
8400
ENDCHAR
STARTCHAR 2117
ENCODING 8471
SWIDTH 857 0
DWIDTH 12 0
BBX 11 10 1 0
BITMAP
1F00
2080
4F40
8920
8920
8E20
8820
4840
2080
1F00
ENDCHAR
STARTCHAR 2118
ENCODING 8472
SWIDTH 714 0
DWIDTH 10 0
BBX 9 11 0 -3
BITMAP
1380
2480
5880
6080
6080
2100
5A00
9C00
9000
9000
E000
ENDCHAR
STARTCHAR 2119
ENCODING 8473
SWIDTH 714 0
DWIDTH 10 0
BBX 8 10 2 0
BITMAP
FE
A9
A5
A5
AA
BC
A0
A0
A0
E0
ENDCHAR
STARTCHAR 211A
ENCODING 8474
SWIDTH 928 0
DWIDTH 13 0
BBX 11 12 1 -2
BITMAP
1F00
71C0
71C0
A0A0
A0A0
A0A0
A0A0
5140
71C0
1F00
0180
0060
ENDCHAR
STARTCHAR 211B
ENCODING 8475
SWIDTH 928 0
DWIDTH 13 0
BBX 12 10 0 0
BITMAP
0FC0
3260
2220
3220
0440
0780
6580
8490
88B0
F060
ENDCHAR
STARTCHAR 211C
ENCODING 8476
SWIDTH 928 0
DWIDTH 13 0
BBX 11 10 1 0
BITMAP
3300
DD00
C880
2900
2A00
0F00
1180
1080
20E0
7840
ENDCHAR
STARTCHAR 211D
ENCODING 8477
SWIDTH 785 0
DWIDTH 11 0
BBX 8 10 2 0
BITMAP
FC
AA
AA
AA
AC
B8
B4
B6
AA
E7
ENDCHAR
STARTCHAR 211E
ENCODING 8478
SWIDTH 642 0
DWIDTH 9 0
BBX 7 10 1 0
BITMAP
F8
8C
84
84
88
F0
96
8C
9C
B6
ENDCHAR
STARTCHAR 211F
ENCODING 8479
SWIDTH 642 0
DWIDTH 9 0
BBX 7 14 1 -2
BITMAP
10
0E
FE
8C
84
84
88
F0
90
A8
A4
C6
40
80
ENDCHAR
STARTCHAR 2120
ENCODING 8480
SWIDTH 785 0
DWIDTH 11 0
BBX 10 5 1 5
BITMAP
E6C0
86C0
46C0
2540
E540
ENDCHAR
STARTCHAR 2121
ENCODING 8481
SWIDTH 1500 0
DWIDTH 21 0
BBX 19 8 1 0
BITMAP
FEFA00
108200
108200
10F200
108200
108200
108200
10FBE0
ENDCHAR
STARTCHAR 2122
ENCODING 8482
SWIDTH 785 0
DWIDTH 11 0
BBX 11 5 0 5
BITMAP
FB20
2360
2360
22A0
22A0
ENDCHAR
STARTCHAR 2123
ENCODING 8483
SWIDTH 642 0
DWIDTH 9 0
BBX 9 14 0 -1
BITMAP
0800
0600
8680
4500
4D00
4900
3A00
3200
1600
3400
3400
4800
4000
8000
ENDCHAR
STARTCHAR 2124
ENCODING 8484
SWIDTH 642 0
DWIDTH 9 0
BBX 8 10 1 0
BITMAP
FF
05
0A
16
14
28
68
50
A0
FF
ENDCHAR
STARTCHAR 2125
ENCODING 8485
SWIDTH 500 0
DWIDTH 7 0
BBX 6 14 1 -3
BITMAP
FC
08
30
40
FC
08
10
20
70
0C
04
04
0C
F8
ENDCHAR
STARTCHAR 2126
ENCODING 8486
SWIDTH 857 0
DWIDTH 12 0
BBX 9 10 1 0
BITMAP
3E00
4100
8080
8080
8080
8080
4100
4100
A280
F780
ENDCHAR
STARTCHAR 2127
ENCODING 8487
SWIDTH 857 0
DWIDTH 12 0
BBX 10 10 1 0
BITMAP
F3C0
A240
4100
4080
8040
8040
8040
C0C0
6180
1E00
ENDCHAR
STARTCHAR 2128
ENCODING 8488
SWIDTH 571 0
DWIDTH 8 0
BBX 7 10 0 0
BITMAP
62
9C
08
10
3C
46
02
02
C4
78
ENDCHAR
STARTCHAR 2129
ENCODING 8489
SWIDTH 428 0
DWIDTH 6 0
BBX 3 8 1 0
BITMAP
C0
20
20
20
20
20
20
20
ENDCHAR
STARTCHAR 212A
ENCODING 8490
SWIDTH 642 0
DWIDTH 9 0
BBX 7 10 1 0
BITMAP
84
88
90
A0
C0
A0
90
88
84
82
ENDCHAR
STARTCHAR 212B
ENCODING 8491
SWIDTH 714 0
DWIDTH 10 0
BBX 9 13 0 0
BITMAP
1C00
1400
1C00
0800
1400
1400
3600
2200
2200
7F00
4100
4100
8080
ENDCHAR
STARTCHAR 212C
ENCODING 8492
SWIDTH 785 0
DWIDTH 11 0
BBX 10 10 0 0
BITMAP
1F80
6240
4440
3440
0480
0F00
08C0
7840
9C40
F780
ENDCHAR
STARTCHAR 212D
ENCODING 8493
SWIDTH 714 0
DWIDTH 10 0
BBX 9 10 0 0
BITMAP
1F80
7000
9800
8800
8400
8400
C800
4000
2180
1E00
ENDCHAR
STARTCHAR 212E
ENCODING 8494
SWIDTH 857 0
DWIDTH 12 0
BBX 11 10 1 0
BITMAP
1F00
2080
C040
8020
FFE0
8000
8000
8040
6180
1F00
ENDCHAR
STARTCHAR 212F
ENCODING 8495
SWIDTH 500 0
DWIDTH 7 0
BBX 6 8 1 0
BITMAP
1C
64
44
88
F0
80
8C
70
ENDCHAR
STARTCHAR 2130
ENCODING 8496
SWIDTH 571 0
DWIDTH 8 0
BBX 7 12 0 0
BITMAP
30
20
3E
7E
40
40
38
60
80
82
C4
78
ENDCHAR
STARTCHAR 2131
ENCODING 8497
SWIDTH 857 0
DWIDTH 12 0
BBX 12 11 0 0
BITMAP
0010
0FE0
3200
2400
3440
0F80
0800
6800
8800
9000
E000
ENDCHAR
STARTCHAR 2132
ENCODING 8498
SWIDTH 642 0
DWIDTH 9 0
BBX 6 10 2 0
BITMAP
04
04
04
04
FC
04
04
04
04
FC
ENDCHAR
STARTCHAR 2133
ENCODING 8499
SWIDTH 1071 0
DWIDTH 15 0
BBX 14 10 0 1
BITMAP
3338
DD48
9188
1118
2210
2210
2210
2220
442C
4438
ENDCHAR
STARTCHAR 2134
ENCODING 8500
SWIDTH 571 0
DWIDTH 8 0
BBX 7 8 1 0
BITMAP
1C
62
42
82
82
84
8C
70
ENDCHAR
STARTCHAR 2135
ENCODING 8501
SWIDTH 642 0
DWIDTH 9 0
BBX 7 9 1 0
BITMAP
08
CE
C6
64
B4
98
84
C2
E2
ENDCHAR
STARTCHAR 2136
ENCODING 8502
SWIDTH 642 0
DWIDTH 9 0
BBX 7 8 1 1
BITMAP
F8
04
04
04
04
04
04
FE
ENDCHAR
STARTCHAR 2137
ENCODING 8503
SWIDTH 428 0
DWIDTH 6 0
BBX 5 8 1 1
BITMAP
60
20
10
10
10
10
30
C8
ENDCHAR
STARTCHAR 2138
ENCODING 8504
SWIDTH 642 0
DWIDTH 9 0
BBX 8 9 0 0
BITMAP
80
FF
04
04
04
04
04
04
04
ENDCHAR
STARTCHAR 215B
ENCODING 8539
SWIDTH 785 0
DWIDTH 11 0
BBX 9 10 1 0
BITMAP
C100
4200
4400
4400
4F80
5480
2300
2580
4480
8700
ENDCHAR
STARTCHAR 215C
ENCODING 8540
SWIDTH 785 0
DWIDTH 11 0
BBX 9 10 1 0
BITMAP
E080
1100
6200
1200
1780
EC80
1300
1580
2480
4700
ENDCHAR
STARTCHAR 215D
ENCODING 8541
SWIDTH 785 0
DWIDTH 11 0
BBX 10 10 0 0
BITMAP
F080
8100
E200
1200
17C0
EA40
1180
12C0
2240
4380
ENDCHAR
STARTCHAR 215E
ENCODING 8542
SWIDTH 785 0
DWIDTH 11 0
BBX 9 10 1 0
BITMAP
F100
1200
2400
4400
8F80
9480
2300
2580
4480
8700
ENDCHAR
STARTCHAR 2190
ENCODING 8592
SWIDTH 928 0
DWIDTH 13 0
BBX 10 3 2 2
BITMAP
2000
FFC0
2000
ENDCHAR
STARTCHAR 2191
ENCODING 8593
SWIDTH 500 0
DWIDTH 7 0
BBX 3 10 2 0
BITMAP
40
40
E0
40
40
40
40
40
40
40
ENDCHAR
STARTCHAR 2192
ENCODING 8594
SWIDTH 928 0
DWIDTH 13 0
BBX 10 3 2 3
BITMAP
0100
FFC0
0100
ENDCHAR
STARTCHAR 2193
ENCODING 8595
SWIDTH 500 0
DWIDTH 7 0
BBX 1 10 3 0
BITMAP
80
80
80
80
80
80
80
80
80
80
ENDCHAR
STARTCHAR 2194
ENCODING 8596
SWIDTH 1214 0
DWIDTH 17 0
BBX 14 3 2 2
BITMAP
2010
FFFC
2010
ENDCHAR
STARTCHAR 2195
ENCODING 8597
SWIDTH 500 0
DWIDTH 7 0
BBX 3 14 2 -3
BITMAP
40
40
E0
40
40
40
40
40
40
40
40
E0
40
40
ENDCHAR
STARTCHAR 2196
ENCODING 8598
SWIDTH 714 0
DWIDTH 10 0
BBX 7 7 2 2
BITMAP
E0
C0
A0
10
08
04
02
ENDCHAR
STARTCHAR 2197
ENCODING 8599
SWIDTH 714 0
DWIDTH 10 0
BBX 7 7 2 2
BITMAP
0E
06
0A
10
20
40
80
ENDCHAR
STARTCHAR 2198
ENCODING 8600
SWIDTH 714 0
DWIDTH 10 0
BBX 7 7 2 1
BITMAP
80
40
20
10
0A
06
0E
ENDCHAR
STARTCHAR 2199
ENCODING 8601
SWIDTH 714 0
DWIDTH 10 0
BBX 7 7 2 1
BITMAP
02
04
08
10
A0
C0
E0
ENDCHAR
STARTCHAR 219A
ENCODING 8602
SWIDTH 928 0
DWIDTH 13 0
BBX 10 5 2 2
BITMAP
0200
2200
FFC0
2400
0400
ENDCHAR
STARTCHAR 219B
ENCODING 8603
SWIDTH 928 0
DWIDTH 13 0
BBX 10 5 2 2
BITMAP
0800
0900
FFC0
1100
1000
ENDCHAR
STARTCHAR 219C
ENCODING 8604
SWIDTH 785 0
DWIDTH 11 0
BBX 8 4 2 2
BITMAP
80
E6
C9
30
ENDCHAR
STARTCHAR 219D
ENCODING 8605
SWIDTH 785 0
DWIDTH 11 0
BBX 8 4 2 2
BITMAP
01
67
93
0C
ENDCHAR
STARTCHAR 219E
ENCODING 8606
SWIDTH 928 0
DWIDTH 13 0
BBX 10 3 2 2
BITMAP
2800
FFC0
2800
ENDCHAR
STARTCHAR 219F
ENCODING 8607
SWIDTH 500 0
DWIDTH 7 0
BBX 3 10 2 0
BITMAP
40
40
E0
40
E0
40
40
40
40
40
ENDCHAR
STARTCHAR 21A0
ENCODING 8608
SWIDTH 928 0
DWIDTH 13 0
BBX 10 3 2 2
BITMAP
0500
FFC0
0500
ENDCHAR
STARTCHAR 21A1
ENCODING 8609
SWIDTH 500 0
DWIDTH 7 0
BBX 3 10 2 0
BITMAP
40
40
40
40
40
E0
40
E0
40
40
ENDCHAR
STARTCHAR 21A2
ENCODING 8610
SWIDTH 928 0
DWIDTH 13 0
BBX 9 3 2 2
BITMAP
2080
FF00
2080
ENDCHAR
STARTCHAR 21A3
ENCODING 8611
SWIDTH 928 0
DWIDTH 13 0
BBX 9 3 3 2
BITMAP
8200
7F80
8200
ENDCHAR
STARTCHAR 21A4
ENCODING 8612
SWIDTH 928 0
DWIDTH 13 0
BBX 10 3 2 2
BITMAP
2040
FFC0
2040
ENDCHAR
STARTCHAR 21A5
ENCODING 8613
SWIDTH 500 0
DWIDTH 7 0
BBX 3 10 2 0
BITMAP
40
40
E0
40
40
40
40
40
40
E0
ENDCHAR
STARTCHAR 21A6
ENCODING 8614
SWIDTH 928 0
DWIDTH 13 0
BBX 10 3 2 2
BITMAP
8100
FFC0
8100
ENDCHAR
STARTCHAR 21A7
ENCODING 8615
SWIDTH 500 0
DWIDTH 7 0
BBX 3 10 2 0
BITMAP
E0
40
40
40
40
40
40
E0
40
40
ENDCHAR
STARTCHAR 21A8
ENCODING 8616
SWIDTH 500 0
DWIDTH 7 0
BBX 5 10 1 0
BITMAP
20
20
70
20
20
70
20
20
00
F8
ENDCHAR
STARTCHAR 21A9
ENCODING 8617
SWIDTH 928 0
DWIDTH 13 0
BBX 10 5 2 2
BITMAP
0080
0040
2040
FFC0
2000
ENDCHAR
STARTCHAR 21AA
ENCODING 8618
SWIDTH 928 0
DWIDTH 13 0
BBX 10 5 2 2
BITMAP
4000
8000
8100
FFC0
0100
ENDCHAR
STARTCHAR 21AB
ENCODING 8619
SWIDTH 928 0
DWIDTH 13 0
BBX 10 5 2 2
BITMAP
0180
0140
2140
FFC0
2100
ENDCHAR
STARTCHAR 21AC
ENCODING 8620
SWIDTH 928 0
DWIDTH 13 0
BBX 10 5 2 2
BITMAP
4000
A000
A100
FFC0
2100
ENDCHAR
STARTCHAR 21AD
ENCODING 8621
SWIDTH 1214 0
DWIDTH 17 0
BBX 14 3 2 2
BITMAP
2310
F53C
2CD0
ENDCHAR
STARTCHAR 21AE
ENCODING 8622
SWIDTH 1214 0
DWIDTH 17 0
BBX 14 5 2 1
BITMAP
0100
2110
FFFC
2210
0200
ENDCHAR
STARTCHAR 21AF
ENCODING 8623
SWIDTH 642 0
DWIDTH 9 0
BBX 6 10 2 0
BITMAP
08
10
20
40
FC
08
10
20
C0
C0
ENDCHAR
STARTCHAR 21B0
ENCODING 8624
SWIDTH 714 0
DWIDTH 10 0
BBX 6 10 2 0
BITMAP
20
FC
24
04
04
04
04
04
04
04
ENDCHAR
STARTCHAR 21B1
ENCODING 8625
SWIDTH 714 0
DWIDTH 10 0
BBX 6 10 2 0
BITMAP
10
FC
90
80
80
80
80
80
80
80
ENDCHAR
STARTCHAR 21B2
ENCODING 8626
SWIDTH 714 0
DWIDTH 10 0
BBX 6 10 2 0
BITMAP
04
04
04
04
04
04
04
24
FC
20
ENDCHAR
STARTCHAR 21B3
ENCODING 8627
SWIDTH 714 0
DWIDTH 10 0
BBX 6 10 2 0
BITMAP
80
80
80
80
80
80
80
90
FC
10
ENDCHAR
STARTCHAR 21B4
ENCODING 8628
SWIDTH 714 0
DWIDTH 10 0
BBX 6 10 2 0
BITMAP
F8
08
08
08
08
08
08
1C
08
08
ENDCHAR
STARTCHAR 21B5
ENCODING 8629
SWIDTH 928 0
DWIDTH 13 0
BBX 10 10 2 0
BITMAP
0040
0040
0040
0040
0040
0040
0040
2040
FFC0
2000
ENDCHAR
STARTCHAR 21B6
ENCODING 8630
SWIDTH 1000 0
DWIDTH 14 0
BBX 11 6 2 2
BITMAP
0F00
30C0
4040
C020
C020
8000
ENDCHAR
STARTCHAR 21B7
ENCODING 8631
SWIDTH 1000 0
DWIDTH 14 0
BBX 11 6 2 2
BITMAP
1E00
6180
4080
8060
8060
0020
ENDCHAR
STARTCHAR 21B8
ENCODING 8632
SWIDTH 928 0
DWIDTH 13 0
BBX 10 9 2 1
BITMAP
FFC0
0000
7000
2000
1000
0800
0400
0200
0100
ENDCHAR
STARTCHAR 21B9
ENCODING 8633
SWIDTH 928 0
DWIDTH 13 0
BBX 10 8 2 0
BITMAP
9000
FFC0
9000
0000
0040
0240
FFC0
0240
ENDCHAR
STARTCHAR 21BA
ENCODING 8634
SWIDTH 928 0
DWIDTH 13 0
BBX 10 10 2 0
BITMAP
0180
4080
4080
8040
8040
8040
8040
4080
2180
1E00
ENDCHAR
STARTCHAR 21BB
ENCODING 8635
SWIDTH 928 0
DWIDTH 13 0
BBX 10 10 2 0
BITMAP
6000
6080
8080
8040
8040
8040
8040
4080
6100
1E00
ENDCHAR
STARTCHAR 21BC
ENCODING 8636
SWIDTH 928 0
DWIDTH 13 0
BBX 9 2 3 3
BITMAP
2000
FF80
ENDCHAR
STARTCHAR 21BD
ENCODING 8637
SWIDTH 928 0
DWIDTH 13 0
BBX 9 2 3 2
BITMAP
FF80
2000
ENDCHAR
STARTCHAR 21BE
ENCODING 8638
SWIDTH 428 0
DWIDTH 6 0
BBX 2 9 2 1
BITMAP
80
80
C0
80
80
80
80
80
80
ENDCHAR
STARTCHAR 21BF
ENCODING 8639
SWIDTH 428 0
DWIDTH 6 0
BBX 2 9 2 1
BITMAP
40
40
C0
40
40
40
40
40
40
ENDCHAR
STARTCHAR 21C0
ENCODING 8640
SWIDTH 928 0
DWIDTH 13 0
BBX 9 2 2 3
BITMAP
0200
FF80
ENDCHAR
STARTCHAR 21C1
ENCODING 8641
SWIDTH 928 0
DWIDTH 13 0
BBX 9 2 2 2
BITMAP
FF80
0200
ENDCHAR
STARTCHAR 21C2
ENCODING 8642
SWIDTH 428 0
DWIDTH 6 0
BBX 2 9 2 0
BITMAP
80
80
80
80
80
80
C0
80
80
ENDCHAR
STARTCHAR 21C3
ENCODING 8643
SWIDTH 428 0
DWIDTH 6 0
BBX 2 9 2 0
BITMAP
40
40
40
40
40
40
C0
40
40
ENDCHAR
STARTCHAR 21C4
ENCODING 8644
SWIDTH 928 0
DWIDTH 13 0
BBX 10 6 2 1
BITMAP
0100
FFC0
0100
2000
FFC0
2000
ENDCHAR
STARTCHAR 21C5
ENCODING 8645
SWIDTH 785 0
DWIDTH 11 0
BBX 6 10 2 0
BITMAP
48
48
E8
48
48
48
48
5C
48
48
ENDCHAR
STARTCHAR 21C6
ENCODING 8646
SWIDTH 928 0
DWIDTH 13 0
BBX 10 6 2 1
BITMAP
2000
FFC0
2000
0100
FFC0
0100
ENDCHAR
STARTCHAR 21C7
ENCODING 8647
SWIDTH 928 0
DWIDTH 13 0
BBX 10 6 2 1
BITMAP
2000
FFC0
2000
2000
FFC0
2000
ENDCHAR
STARTCHAR 21C8
ENCODING 8648
SWIDTH 785 0
DWIDTH 11 0
BBX 6 10 2 0
BITMAP
48
48
FC
48
48
48
48
48
48
48
ENDCHAR
STARTCHAR 21C9
ENCODING 8649
SWIDTH 928 0
DWIDTH 13 0
BBX 10 6 2 1
BITMAP
0100
FFC0
0100
0100
FFC0
0100
ENDCHAR
STARTCHAR 21CA
ENCODING 8650
SWIDTH 785 0
DWIDTH 11 0
BBX 6 10 2 0
BITMAP
48
48
48
48
48
48
48
FC
48
48
ENDCHAR
STARTCHAR 21CB
ENCODING 8651
SWIDTH 928 0
DWIDTH 13 0
BBX 10 6 2 1
BITMAP
1000
7FC0
0000
0000
FF80
0200
ENDCHAR
STARTCHAR 21CC
ENCODING 8652
SWIDTH 928 0
DWIDTH 13 0
BBX 10 6 2 1
BITMAP
0200
FF80
0000
0000
7FC0
1000
ENDCHAR
STARTCHAR 21CD
ENCODING 8653
SWIDTH 928 0
DWIDTH 13 0
BBX 10 7 2 1
BITMAP
0880
1100
7FC0
C100
7FC0
1200
0A00
ENDCHAR
STARTCHAR 21CE
ENCODING 8654
SWIDTH 1214 0
DWIDTH 17 0
BBX 12 7 3 1
BITMAP
1080
2240
7FE0
8410
FFF0
6460
1080
ENDCHAR
STARTCHAR 21CF
ENCODING 8655
SWIDTH 928 0
DWIDTH 13 0
BBX 10 7 2 1
BITMAP
1400
1200
FF80
20C0
FF80
4200
4400
ENDCHAR
STARTCHAR 21D0
ENCODING 8656
SWIDTH 928 0
DWIDTH 13 0
BBX 10 7 2 1
BITMAP
0800
1000
7FC0
C000
7FC0
1000
0800
ENDCHAR
STARTCHAR 21D1
ENCODING 8657
SWIDTH 785 0
DWIDTH 11 0
BBX 7 10 2 0
BITMAP
10
38
28
6C
AA
28
28
28
28
28
ENDCHAR
STARTCHAR 21D2
ENCODING 8658
SWIDTH 928 0
DWIDTH 13 0
BBX 10 7 2 1
BITMAP
0400
0200
FF80
00C0
FF80
0200
0400
ENDCHAR
STARTCHAR 21D3
ENCODING 8659
SWIDTH 785 0
DWIDTH 11 0
BBX 7 10 2 0
BITMAP
28
28
28
28
28
AA
6C
28
38
10
ENDCHAR
STARTCHAR 21D4
ENCODING 8660
SWIDTH 1214 0
DWIDTH 17 0
BBX 14 7 2 1
BITMAP
0840
1020
7FF8
C00C
7FF8
1020
0840
ENDCHAR
STARTCHAR 21D5
ENCODING 8661
SWIDTH 785 0
DWIDTH 11 0
BBX 7 14 2 -3
BITMAP
10
38
28
6C
AA
28
28
28
28
AA
6C
28
38
10
ENDCHAR
STARTCHAR 21D6
ENCODING 8662
SWIDTH 785 0
DWIDTH 11 0
BBX 8 8 2 0
BITMAP
E0
B8
58
6C
76
1B
0D
06
ENDCHAR
STARTCHAR 21D7
ENCODING 8663
SWIDTH 785 0
DWIDTH 11 0
BBX 8 8 2 0
BITMAP
07
1D
1B
36
6E
D8
B0
60
ENDCHAR
STARTCHAR 21D8
ENCODING 8664
SWIDTH 785 0
DWIDTH 11 0
BBX 8 8 2 0
BITMAP
60
B0
D8
6E
36
1A
1D
07
ENDCHAR
STARTCHAR 21D9
ENCODING 8665
SWIDTH 785 0
DWIDTH 11 0
BBX 8 8 2 0
BITMAP
06
0D
1B
76
6C
D8
B8
E0
ENDCHAR
STARTCHAR 21DA
ENCODING 8666
SWIDTH 928 0
DWIDTH 13 0
BBX 10 9 2 -1
BITMAP
0800
1800
2FC0
4000
FFC0
4000
2FC0
1800
0800
ENDCHAR
STARTCHAR 21DB
ENCODING 8667
SWIDTH 928 0
DWIDTH 13 0
BBX 10 9 2 -1
BITMAP
0400
0600
FD00
0080
FFC0
0080
FD00
0600
0400
ENDCHAR
STARTCHAR 21DC
ENCODING 8668
SWIDTH 1214 0
DWIDTH 17 0
BBX 14 4 2 2
BITMAP
0330
22D0
FCCC
2000
ENDCHAR
STARTCHAR 21DD
ENCODING 8669
SWIDTH 1214 0
DWIDTH 17 0
BBX 14 4 2 2
BITMAP
3300
2D10
CCFC
0010
ENDCHAR
STARTCHAR 21DE
ENCODING 8670
SWIDTH 500 0
DWIDTH 7 0
BBX 3 10 2 0
BITMAP
40
40
E0
40
40
E0
40
E0
40
40
ENDCHAR
STARTCHAR 21DF
ENCODING 8671
SWIDTH 500 0
DWIDTH 7 0
BBX 3 10 2 0
BITMAP
40
40
E0
40
E0
40
40
E0
40
40
ENDCHAR
STARTCHAR 21E0
ENCODING 8672
SWIDTH 928 0
DWIDTH 13 0
BBX 10 3 2 2
BITMAP
2000
EB40
2000
ENDCHAR
STARTCHAR 21E1
ENCODING 8673
SWIDTH 500 0
DWIDTH 7 0
BBX 3 10 2 0
BITMAP
40
40
E0
00
40
00
40
40
00
40
ENDCHAR
STARTCHAR 21E2
ENCODING 8674
SWIDTH 928 0
DWIDTH 13 0
BBX 10 3 2 2
BITMAP
0100
B5C0
0100
ENDCHAR
STARTCHAR 21E3
ENCODING 8675
SWIDTH 500 0
DWIDTH 7 0
BBX 3 10 2 0
BITMAP
40
00
40
40
00
40
00
E0
40
40
ENDCHAR
STARTCHAR 21E4
ENCODING 8676
SWIDTH 928 0
DWIDTH 13 0
BBX 11 4 2 2
BITMAP
8000
8800
BFE0
8800
ENDCHAR
STARTCHAR 21E5
ENCODING 8677
SWIDTH 928 0
DWIDTH 13 0
BBX 10 4 2 2
BITMAP
0040
0040
FF40
0040
ENDCHAR
STARTCHAR 21E6
ENCODING 8678
SWIDTH 928 0
DWIDTH 13 0
BBX 10 7 2 1
BITMAP
1000
3000
7FC0
C040
7FC0
3000
1000
ENDCHAR
STARTCHAR 21E7
ENCODING 8679
SWIDTH 785 0
DWIDTH 11 0
BBX 7 10 1 0
BITMAP
10
38
6C
EE
28
28
28
28
28
38
ENDCHAR
STARTCHAR 21E8
ENCODING 8680
SWIDTH 928 0
DWIDTH 13 0
BBX 10 7 2 1
BITMAP
0200
0300
FF80
80C0
FF80
0300
0200
ENDCHAR
STARTCHAR 21E9
ENCODING 8681
SWIDTH 785 0
DWIDTH 11 0
BBX 7 10 1 0
BITMAP
38
28
28
28
28
28
EE
6C
38
10
ENDCHAR
STARTCHAR 21EA
ENCODING 8682
SWIDTH 785 0
DWIDTH 11 0
BBX 7 13 1 -3
BITMAP
10
38
6C
EE
28
28
28
28
38
00
38
28
38
ENDCHAR
STARTCHAR 2200
ENCODING 8704
SWIDTH 857 0
DWIDTH 12 0
BBX 9 10 2 0
BITMAP
8080
4100
7F00
4300
2200
2200
1400
1400
1400
0800
ENDCHAR
STARTCHAR 2201
ENCODING 8705
SWIDTH 714 0
DWIDTH 10 0
BBX 7 14 2 -2
BITMAP
38
44
82
82
80
80
80
80
80
80
82
82
44
38
ENDCHAR
STARTCHAR 2202
ENCODING 8706
SWIDTH 642 0
DWIDTH 9 0
BBX 6 11 2 0
BITMAP
70
88
04
04
34
4C
84
84
88
88
70
ENDCHAR
STARTCHAR 2203
ENCODING 8707
SWIDTH 642 0
DWIDTH 9 0
BBX 6 10 2 0
BITMAP
FC
04
04
04
FC
04
04
04
04
FC
ENDCHAR
STARTCHAR 2204
ENCODING 8708
SWIDTH 642 0
DWIDTH 9 0
BBX 6 13 2 -2
BITMAP
08
FC
14
14
24
FC
24
24
44
44
FC
80
80
ENDCHAR
STARTCHAR 2205
ENCODING 8709
SWIDTH 1000 0
DWIDTH 14 0
BBX 11 11 2 0
BITMAP
1F20
20C0
40C0
8120
8220
8420
8820
9020
6040
6080
9F00
ENDCHAR
STARTCHAR 2206
ENCODING 8710
SWIDTH 857 0
DWIDTH 12 0
BBX 9 10 2 0
BITMAP
0800
1400
1400
2400
2200
2200
4100
4100
8080
FF80
ENDCHAR
STARTCHAR 2207
ENCODING 8711
SWIDTH 857 0
DWIDTH 12 0
BBX 9 10 2 -1
BITMAP
FF80
8080
4100
4100
2200
2200
3400
1400
1800
0800
ENDCHAR
STARTCHAR 2208
ENCODING 8712
SWIDTH 785 0
DWIDTH 11 0
BBX 8 8 2 0
BITMAP
3F
60
C0
80
FF
80
40
3F
ENDCHAR
STARTCHAR 2209
ENCODING 8713
SWIDTH 785 0
DWIDTH 11 0
BBX 8 12 2 -2
BITMAP
02
02
3F
44
84
84
FF
88
48
3F
10
10
ENDCHAR
STARTCHAR 220A
ENCODING 8714
SWIDTH 642 0
DWIDTH 9 0
BBX 6 8 2 0
BITMAP
3C
60
40
80
F8
80
80
78
ENDCHAR
STARTCHAR 220B
ENCODING 8715
SWIDTH 785 0
DWIDTH 11 0
BBX 8 8 2 0
BITMAP
FC
06
03
01
FF
01
02
FC
ENDCHAR
STARTCHAR 220C
ENCODING 8716
SWIDTH 785 0
DWIDTH 11 0
BBX 8 12 2 -2
BITMAP
08
08
FC
12
11
11
FF
21
22
FC
40
40
ENDCHAR
STARTCHAR 220D
ENCODING 8717
SWIDTH 642 0
DWIDTH 9 0
BBX 6 8 2 0
BITMAP
78
04
04
04
7C
08
08
F0
ENDCHAR
STARTCHAR 220E
ENCODING 8718
SWIDTH 785 0
DWIDTH 11 0
BBX 8 8 2 0
BITMAP
FF
FF
FF
FF
FF
FF
FF
FF
ENDCHAR
STARTCHAR 220F
ENCODING 8719
SWIDTH 928 0
DWIDTH 13 0
BBX 9 10 2 0
BITMAP
FF80
4100
4100
4100
4100
4100
4100
4100
4100
E380
ENDCHAR
STARTCHAR 2210
ENCODING 8720
SWIDTH 928 0
DWIDTH 13 0
BBX 10 10 2 0
BITMAP
E1C0
4080
4080
4080
4080
4080
4080
4080
4080
FFC0
ENDCHAR
STARTCHAR 2211
ENCODING 8721
SWIDTH 785 0
DWIDTH 11 0
BBX 8 10 2 0
BITMAP
FF
41
20
10
08
08
10
20
41
FF
ENDCHAR
STARTCHAR 2212
ENCODING 8722
SWIDTH 785 0
DWIDTH 11 0
BBX 8 1 2 4
BITMAP
FF
ENDCHAR
STARTCHAR 2213
ENCODING 8723
SWIDTH 785 0
DWIDTH 11 0
BBX 9 9 2 0
BITMAP
FF80
0000
0800
0800
0800
FF80
0800
0800
0800
ENDCHAR
STARTCHAR 2214
ENCODING 8724
SWIDTH 785 0
DWIDTH 11 0
BBX 9 9 2 0
BITMAP
0800
0000
0800
0800
0800
FF80
0800
0800
0800
ENDCHAR
STARTCHAR 2215
ENCODING 8725
SWIDTH 500 0
DWIDTH 7 0
BBX 4 12 2 -2
BITMAP
10
10
20
20
20
40
40
40
40
80
80
80
ENDCHAR
STARTCHAR 2216
ENCODING 8726
SWIDTH 500 0
DWIDTH 7 0
BBX 4 12 2 -2
BITMAP
80
80
80
40
40
40
40
20
20
20
10
10
ENDCHAR
STARTCHAR 2217
ENCODING 8727
SWIDTH 785 0
DWIDTH 11 0
BBX 7 8 2 0
BITMAP
10
10
92
7C
38
D6
10
10
ENDCHAR
STARTCHAR 2218
ENCODING 8728
SWIDTH 571 0
DWIDTH 8 0
BBX 5 5 2 1
BITMAP
70
88
88
88
70
ENDCHAR
STARTCHAR 2219
ENCODING 8729
SWIDTH 571 0
DWIDTH 8 0
BBX 5 5 1 1
BITMAP
70
F8
F8
F8
70
ENDCHAR
STARTCHAR 221A
ENCODING 8730
SWIDTH 785 0
DWIDTH 11 0
BBX 10 14 1 -1
BITMAP
0040
0080
0080
0080
0100
0100
0200
0200
C200
2400
2400
2400
1800
0800
ENDCHAR
STARTCHAR 221B
ENCODING 8731
SWIDTH 785 0
DWIDTH 11 0
BBX 10 14 1 -1
BITMAP
1E40
0280
0280
0C80
0300
1F00
0200
0200
C200
2400
2400
2400
1800
0800
ENDCHAR
STARTCHAR 221C
ENCODING 8732
SWIDTH 785 0
DWIDTH 11 0
BBX 10 14 1 -1
BITMAP
0C40
1C80
3480
3E80
0500
0500
0200
0200
C200
2400
2400
2400
1800
0800
ENDCHAR
STARTCHAR 221D
ENCODING 8733
SWIDTH 928 0
DWIDTH 13 0
BBX 10 6 2 1
BITMAP
71C0
DE00
8C00
8C00
9600
73C0
ENDCHAR
STARTCHAR 221E
ENCODING 8734
SWIDTH 928 0
DWIDTH 13 0
BBX 11 6 1 1
BITMAP
71C0
8A20
8420
8620
8A20
71C0
ENDCHAR
STARTCHAR 221F
ENCODING 8735
SWIDTH 785 0
DWIDTH 11 0
BBX 8 8 2 0
BITMAP
80
80
80
80
80
80
80
FF
ENDCHAR
STARTCHAR 2220
ENCODING 8736
SWIDTH 785 0
DWIDTH 11 0
BBX 8 8 2 0
BITMAP
01
02
04
08
10
20
40
FF
ENDCHAR
STARTCHAR 2221
ENCODING 8737
SWIDTH 785 0
DWIDTH 11 0
BBX 8 10 2 -3
BITMAP
01
03
06
1C
18
34
64
FF
04
04
ENDCHAR
STARTCHAR 2222
ENCODING 8738
SWIDTH 785 0
DWIDTH 11 0
BBX 8 8 2 0
BITMAP
09
0E
34
C4
34
0E
09
08
ENDCHAR
STARTCHAR 2223
ENCODING 8739
SWIDTH 357 0
DWIDTH 5 0
BBX 1 13 2 -2
BITMAP
80
80
80
80
80
80
80
80
80
80
80
80
80
ENDCHAR
STARTCHAR 2224
ENCODING 8740
SWIDTH 500 0
DWIDTH 7 0
BBX 5 13 1 -2
BITMAP
20
20
20
20
28
38
20
E0
A0
20
20
20
20
ENDCHAR
STARTCHAR 2225
ENCODING 8741
SWIDTH 571 0
DWIDTH 8 0
BBX 4 13 2 -2
BITMAP
90
90
90
90
90
90
90
90
90
90
90
90
90
ENDCHAR
STARTCHAR 2226
ENCODING 8742
SWIDTH 714 0
DWIDTH 10 0
BBX 8 13 1 -2
BITMAP
24
24
24
25
26
2C
3C
34
64
A4
24
24
24
ENDCHAR
STARTCHAR 2227
ENCODING 8743
SWIDTH 785 0
DWIDTH 11 0
BBX 9 8 2 0
BITMAP
0800
0800
1400
1400
2200
4100
4100
8080
ENDCHAR
STARTCHAR 2228
ENCODING 8744
SWIDTH 785 0
DWIDTH 11 0
BBX 9 8 2 0
BITMAP
8080
4100
4100
2200
2400
1400
1800
0800
ENDCHAR
STARTCHAR 2229
ENCODING 8745
SWIDTH 785 0
DWIDTH 11 0
BBX 7 8 2 0
BITMAP
38
44
82
82
82
82
82
82
ENDCHAR
STARTCHAR 222A
ENCODING 8746
SWIDTH 785 0
DWIDTH 11 0
BBX 8 8 2 0
BITMAP
81
81
81
81
81
81
42
3C
ENDCHAR
STARTCHAR 222B
ENCODING 8747
SWIDTH 571 0
DWIDTH 8 0
BBX 5 13 1 -2
BITMAP
18
28
20
20
20
20
20
20
20
20
20
A0
C0
ENDCHAR
STARTCHAR 222C
ENCODING 8748
SWIDTH 857 0
DWIDTH 12 0
BBX 9 13 1 -2
BITMAP
1980
2A80
2200
2200
2200
2200
2200
2200
2200
2200
2200
AA00
CC00
ENDCHAR
STARTCHAR 222D
ENCODING 8749
SWIDTH 1142 0
DWIDTH 16 0
BBX 13 13 1 -2
BITMAP
1998
2AA8
2220
2220
2220
2220
2220
2220
2220
2220
2220
AAA0
CCC0
ENDCHAR
STARTCHAR 222E
ENCODING 8750
SWIDTH 642 0
DWIDTH 9 0
BBX 5 13 2 -2
BITMAP
18
28
20
20
70
A8
A8
A8
70
20
20
A0
C0
ENDCHAR
STARTCHAR 222F
ENCODING 8751
SWIDTH 857 0
DWIDTH 12 0
BBX 9 13 2 -2
BITMAP
1980
2A80
2200
3E00
6300
A280
A280
6300
3E00
2200
2200
AA00
CC00
ENDCHAR
STARTCHAR 2230
ENCODING 8752
SWIDTH 1142 0
DWIDTH 16 0
BBX 13 13 2 -2
BITMAP
1998
2AA8
2220
2220
3FE0
6230
A228
A228
6230
3FE0
2220
AAA0
CCC0
ENDCHAR
STARTCHAR 2231
ENCODING 8753
SWIDTH 642 0
DWIDTH 9 0
BBX 6 13 2 -2
BITMAP
18
28
20
20
70
A8
BC
28
20
20
20
A0
C0
ENDCHAR
STARTCHAR 2232
ENCODING 8754
SWIDTH 642 0
DWIDTH 9 0
BBX 6 13 2 -2
BITMAP
18
28
20
20
70
A8
BC
A8
70
20
20
A0
C0
ENDCHAR
STARTCHAR 2233
ENCODING 8755
SWIDTH 642 0
DWIDTH 9 0
BBX 6 13 2 -2
BITMAP
18
28
20
20
70
A8
BC
A8
70
20
20
A0
C0
ENDCHAR
STARTCHAR 2234
ENCODING 8756
SWIDTH 785 0
DWIDTH 11 0
BBX 8 8 2 0
BITMAP
10
00
00
00
00
00
00
81
ENDCHAR
STARTCHAR 2235
ENCODING 8757
SWIDTH 785 0
DWIDTH 11 0
BBX 8 8 2 0
BITMAP
81
00
00
00
00
00
00
10
ENDCHAR
STARTCHAR 2236
ENCODING 8758
SWIDTH 428 0
DWIDTH 6 0
BBX 1 8 2 0
BITMAP
80
00
00
80
00
00
00
80
ENDCHAR
STARTCHAR 2237
ENCODING 8759
SWIDTH 785 0
DWIDTH 11 0
BBX 8 8 2 0
BITMAP
81
00
00
00
00
00
00
81
ENDCHAR
STARTCHAR 2238
ENCODING 8760
SWIDTH 785 0
DWIDTH 11 0
BBX 8 4 2 4
BITMAP
10
00
00
FF
ENDCHAR
STARTCHAR 2239
ENCODING 8761
SWIDTH 785 0
DWIDTH 11 0
BBX 8 7 2 1
BITMAP
01
00
00
FC
00
00
01
ENDCHAR
STARTCHAR 223A
ENCODING 8762
SWIDTH 785 0
DWIDTH 11 0
BBX 8 7 2 1
BITMAP
81
00
00
FF
00
00
81
ENDCHAR
STARTCHAR 223B
ENCODING 8763
SWIDTH 785 0
DWIDTH 11 0
BBX 8 8 2 0
BITMAP
10
00
00
F1
8F
00
00
10
ENDCHAR
STARTCHAR 223C
ENCODING 8764
SWIDTH 785 0
DWIDTH 11 0
BBX 8 2 2 3
BITMAP
F1
8F
ENDCHAR
STARTCHAR 223D
ENCODING 8765
SWIDTH 785 0
DWIDTH 11 0
BBX 8 2 2 3
BITMAP
8F
F1
ENDCHAR
STARTCHAR 223E
ENCODING 8766
SWIDTH 785 0
DWIDTH 11 0
BBX 8 4 2 2
BITMAP
66
91
89
66
ENDCHAR
STARTCHAR 223F
ENCODING 8767
SWIDTH 785 0
DWIDTH 11 0
BBX 8 8 2 0
BITMAP
60
50
90
88
09
09
0A
06
ENDCHAR
STARTCHAR 2240
ENCODING 8768
SWIDTH 500 0
DWIDTH 7 0
BBX 3 11 1 -2
BITMAP
C0
20
20
20
20
40
40
40
40
40
20
ENDCHAR
STARTCHAR 2241
ENCODING 8769
SWIDTH 785 0
DWIDTH 11 0
BBX 8 6 2 1
BITMAP
08
08
E9
97
10
10
ENDCHAR
STARTCHAR 2242
ENCODING 8770
SWIDTH 785 0
DWIDTH 11 0
BBX 8 4 2 2
BITMAP
FF
00
F1
8F
ENDCHAR
STARTCHAR 2243
ENCODING 8771
SWIDTH 785 0
DWIDTH 11 0
BBX 8 4 2 2
BITMAP
F1
8F
00
FF
ENDCHAR
STARTCHAR 2244
ENCODING 8772
SWIDTH 785 0
DWIDTH 11 0
BBX 8 7 2 0
BITMAP
04
F9
8F
18
FF
10
20
ENDCHAR
STARTCHAR 2245
ENCODING 8773
SWIDTH 785 0
DWIDTH 11 0
BBX 8 7 2 1
BITMAP
F1
8F
00
FF
00
00
FF
ENDCHAR
STARTCHAR 2246
ENCODING 8774
SWIDTH 785 0
DWIDTH 11 0
BBX 8 8 2 0
BITMAP
F1
8F
08
FF
10
10
FF
10
ENDCHAR
STARTCHAR 2247
ENCODING 8775
SWIDTH 785 0
DWIDTH 11 0
BBX 8 10 2 -1
BITMAP
04
F5
8F
08
FF
10
10
FF
20
20
ENDCHAR
STARTCHAR 2248
ENCODING 8776
SWIDTH 785 0
DWIDTH 11 0
BBX 8 5 2 1
BITMAP
F1
8F
00
F1
8F
ENDCHAR
STARTCHAR 2249
ENCODING 8777
SWIDTH 785 0
DWIDTH 11 0
BBX 8 7 2 0
BITMAP
04
F9
8F
10
F1
9F
20
ENDCHAR
STARTCHAR 224A
ENCODING 8778
SWIDTH 785 0
DWIDTH 11 0
BBX 8 7 2 0
BITMAP
F1
8F
00
F1
8F
00
FF
ENDCHAR
STARTCHAR 224B
ENCODING 8779
SWIDTH 785 0
DWIDTH 11 0
BBX 8 8 2 0
BITMAP
F1
8F
00
F1
8F
00
F1
8F
ENDCHAR
STARTCHAR 224C
ENCODING 8780
SWIDTH 785 0
DWIDTH 11 0
BBX 8 9 2 0
BITMAP
66
89
91
66
00
FF
00
00
FF
ENDCHAR
STARTCHAR 224D
ENCODING 8781
SWIDTH 785 0
DWIDTH 11 0
BBX 8 6 2 1
BITMAP
C3
3C
00
00
3C
C3
ENDCHAR
STARTCHAR 224E
ENCODING 8782
SWIDTH 785 0
DWIDTH 11 0
BBX 8 7 2 1
BITMAP
18
24
E7
00
E7
24
18
ENDCHAR
STARTCHAR 224F
ENCODING 8783
SWIDTH 785 0
DWIDTH 11 0
BBX 8 6 2 2
BITMAP
18
24
E7
00
00
FF
ENDCHAR
STARTCHAR 2250
ENCODING 8784
SWIDTH 785 0
DWIDTH 11 0
BBX 8 7 2 1
BITMAP
10
00
00
FF
00
00
FF
ENDCHAR
STARTCHAR 2251
ENCODING 8785
SWIDTH 785 0
DWIDTH 11 0
BBX 8 9 2 -1
BITMAP
10
00
00
FF
00
00
FF
00
10
ENDCHAR
STARTCHAR 2252
ENCODING 8786
SWIDTH 785 0
DWIDTH 11 0
BBX 8 9 2 -1
BITMAP
80
00
00
FF
00
00
FF
00
01
ENDCHAR
STARTCHAR 2253
ENCODING 8787
SWIDTH 785 0
DWIDTH 11 0
BBX 8 9 2 -1
BITMAP
01
00
00
FF
00
00
FF
00
80
ENDCHAR
STARTCHAR 2254
ENCODING 8788
SWIDTH 785 0
DWIDTH 11 0
BBX 8 3 2 3
BITMAP
9F
00
9F
ENDCHAR
STARTCHAR 2255
ENCODING 8789
SWIDTH 785 0
DWIDTH 11 0
BBX 8 3 2 3
BITMAP
F9
00
F9
ENDCHAR
STARTCHAR 2256
ENCODING 8790
SWIDTH 785 0
DWIDTH 11 0
BBX 8 4 2 2
BITMAP
FF
28
28
FF
ENDCHAR
STARTCHAR 2257
ENCODING 8791
SWIDTH 785 0
DWIDTH 11 0
BBX 8 9 2 0
BITMAP
18
24
24
18
00
FF
00
00
FF
ENDCHAR
STARTCHAR 2258
ENCODING 8792
SWIDTH 785 0
DWIDTH 11 0
BBX 8 8 2 0
BITMAP
3C
C3
00
00
FF
00
00
FF
ENDCHAR
STARTCHAR 2259
ENCODING 8793
SWIDTH 785 0
DWIDTH 11 0
BBX 8 10 2 0
BITMAP
08
08
14
14
22
00
FF
00
00
FF
ENDCHAR
STARTCHAR 225A
ENCODING 8794
SWIDTH 785 0
DWIDTH 11 0
BBX 8 10 2 0
BITMAP
41
22
36
14
08
08
FF
00
00
FF
ENDCHAR
STARTCHAR 225B
ENCODING 8795
SWIDTH 785 0
DWIDTH 11 0
BBX 8 10 2 0
BITMAP
08
08
3E
1C
14
00
FF
00
00
FF
ENDCHAR
STARTCHAR 225C
ENCODING 8796
SWIDTH 785 0
DWIDTH 11 0
BBX 8 9 2 1
BITMAP
18
28
24
7E
00
FF
00
00
FF
ENDCHAR
STARTCHAR 225D
ENCODING 8797
SWIDTH 785 0
DWIDTH 11 0
BBX 8 9 2 0
BITMAP
23
FB
BA
FA
00
FF
00
00
FF
ENDCHAR
STARTCHAR 225E
ENCODING 8798
SWIDTH 785 0
DWIDTH 11 0
BBX 8 9 2 0
BITMAP
7C
54
54
54
00
FF
00
00
FF
ENDCHAR
STARTCHAR 225F
ENCODING 8799
SWIDTH 785 0
DWIDTH 11 0
BBX 8 10 2 0
BITMAP
1C
04
08
08
08
00
FF
00
00
FF
ENDCHAR
STARTCHAR 2260
ENCODING 8800
SWIDTH 785 0
DWIDTH 11 0
BBX 8 8 2 0
BITMAP
04
08
FF
08
10
FF
10
20
ENDCHAR
STARTCHAR 2261
ENCODING 8801
SWIDTH 785 0
DWIDTH 11 0
BBX 8 7 2 1
BITMAP
FF
00
00
FF
00
00
FF
ENDCHAR
STARTCHAR 2262
ENCODING 8802
SWIDTH 785 0
DWIDTH 11 0
BBX 8 11 2 -1
BITMAP
04
04
FF
08
08
FF
10
10
FF
20
20
ENDCHAR
STARTCHAR 2263
ENCODING 8803
SWIDTH 785 0
DWIDTH 11 0
BBX 8 10 2 0
BITMAP
FF
00
00
FF
00
00
FF
00
00
FF
ENDCHAR
STARTCHAR 2264
ENCODING 8804
SWIDTH 785 0
DWIDTH 11 0
BBX 8 9 2 0
BITMAP
01
06
38
C0
30
0C
03
00
FF
ENDCHAR
STARTCHAR 2265
ENCODING 8805
SWIDTH 785 0
DWIDTH 11 0
BBX 8 9 2 0
BITMAP
80
60
1C
03
0C
30
C0
00
FF
ENDCHAR
STARTCHAR 2266
ENCODING 8806
SWIDTH 785 0
DWIDTH 11 0
BBX 8 12 2 0
BITMAP
01
06
38
C0
30
0C
03
00
FF
00
00
FF
ENDCHAR
STARTCHAR 2267
ENCODING 8807
SWIDTH 785 0
DWIDTH 11 0
BBX 8 12 2 0
BITMAP
80
60
1C
03
0C
30
C0
00
FF
00
00
FF
ENDCHAR
STARTCHAR 2268
ENCODING 8808
SWIDTH 785 0
DWIDTH 11 0
BBX 8 14 2 -2
BITMAP
01
06
38
C0
30
0C
03
08
FF
10
10
FF
20
20
ENDCHAR
STARTCHAR 2269
ENCODING 8809
SWIDTH 785 0
DWIDTH 11 0
BBX 8 14 2 -2
BITMAP
80
60
1C
03
0C
30
C0
08
FF
08
10
FF
10
10
ENDCHAR
STARTCHAR 226A
ENCODING 8810
SWIDTH 1142 0
DWIDTH 16 0
BBX 12 9 2 0
BITMAP
0110
0660
0880
3300
CC00
3300
0880
0660
0110
ENDCHAR
STARTCHAR 226B
ENCODING 8811
SWIDTH 1142 0
DWIDTH 16 0
BBX 12 9 2 0
BITMAP
8800
6600
1100
0CC0
0330
0CC0
1100
6600
8800
ENDCHAR
STARTCHAR 226C
ENCODING 8812
SWIDTH 571 0
DWIDTH 8 0
BBX 5 13 2 -2
BITMAP
50
20
60
50
88
88
88
88
88
50
60
20
50
ENDCHAR
STARTCHAR 226D
ENCODING 8813
SWIDTH 785 0
DWIDTH 11 0
BBX 8 10 2 -1
BITMAP
08
08
CB
3E
08
08
3E
CB
08
08
ENDCHAR
STARTCHAR 226E
ENCODING 8814
SWIDTH 785 0
DWIDTH 11 0
BBX 8 11 2 -1
BITMAP
04
05
0E
18
28
D8
30
18
16
21
20
ENDCHAR
STARTCHAR 226F
ENCODING 8815
SWIDTH 785 0
DWIDTH 11 0
BBX 8 11 2 -1
BITMAP
04
84
68
18
0C
13
14
18
70
A0
20
ENDCHAR
STARTCHAR 2270
ENCODING 8816
SWIDTH 785 0
DWIDTH 11 0
BBX 8 11 2 -1
BITMAP
04
05
0E
38
C8
38
9C
73
1C
23
20
ENDCHAR
STARTCHAR 2271
ENCODING 8817
SWIDTH 785 0
DWIDTH 11 0
BBX 8 11 2 -1
BITMAP
04
88
68
1C
13
1C
71
AE
30
E0
40
ENDCHAR
STARTCHAR 2272
ENCODING 8818
SWIDTH 785 0
DWIDTH 11 0
BBX 8 10 2 0
BITMAP
01
06
38
C0
30
0C
03
00
F1
8F
ENDCHAR
STARTCHAR 2273
ENCODING 8819
SWIDTH 785 0
DWIDTH 11 0
BBX 8 10 2 0
BITMAP
80
60
1C
03
0C
30
C0
00
F1
8F
ENDCHAR
STARTCHAR 2274
ENCODING 8820
SWIDTH 785 0
DWIDTH 11 0
BBX 8 11 2 -1
BITMAP
04
06
18
68
68
1C
13
10
71
AF
20
ENDCHAR
STARTCHAR 2275
ENCODING 8821
SWIDTH 785 0
DWIDTH 11 0
BBX 8 11 2 -1
BITMAP
84
78
0C
0B
1C
30
D0
20
F1
AF
40
ENDCHAR
STARTCHAR 2276
ENCODING 8822
SWIDTH 785 0
DWIDTH 11 0
BBX 8 12 2 -1
BITMAP
01
06
38
C0
30
8C
63
1C
03
0C
30
C0
ENDCHAR
STARTCHAR 2277
ENCODING 8823
SWIDTH 785 0
DWIDTH 11 0
BBX 8 12 2 -1
BITMAP
80
60
1C
03
0C
31
C6
38
C0
30
0C
03
ENDCHAR
STARTCHAR 2278
ENCODING 8824
SWIDTH 785 0
DWIDTH 11 0
BBX 8 13 2 -2
BITMAP
09
0E
38
C8
38
8E
79
0C
0B
0C
38
C8
08
ENDCHAR
STARTCHAR 2279
ENCODING 8825
SWIDTH 785 0
DWIDTH 11 0
BBX 8 13 2 -2
BITMAP
88
78
0C
0B
0C
39
CE
38
C8
38
0E
09
08
ENDCHAR
STARTCHAR 227A
ENCODING 8826
SWIDTH 785 0
DWIDTH 11 0
BBX 8 9 2 0
BITMAP
01
02
06
18
E0
18
06
02
01
ENDCHAR
STARTCHAR 227B
ENCODING 8827
SWIDTH 785 0
DWIDTH 11 0
BBX 8 9 2 0
BITMAP
80
40
20
18
07
18
20
40
80
ENDCHAR
STARTCHAR 227C
ENCODING 8828
SWIDTH 785 0
DWIDTH 11 0
BBX 8 10 2 -1
BITMAP
01
02
06
18
E0
18
E6
1A
05
02
ENDCHAR
STARTCHAR 227D
ENCODING 8829
SWIDTH 785 0
DWIDTH 11 0
BBX 8 10 2 -1
BITMAP
80
40
20
18
07
18
27
58
A0
40
ENDCHAR
STARTCHAR 227E
ENCODING 8830
SWIDTH 785 0
DWIDTH 11 0
BBX 8 12 2 0
BITMAP
01
02
06
18
E0
18
06
02
01
00
F1
8F
ENDCHAR
STARTCHAR 227F
ENCODING 8831
SWIDTH 785 0
DWIDTH 11 0
BBX 8 12 2 0
BITMAP
80
40
60
18
07
18
60
40
80
00
F1
8F
ENDCHAR
STARTCHAR 2280
ENCODING 8832
SWIDTH 785 0
DWIDTH 11 0
BBX 8 10 2 -1
BITMAP
05
06
06
1C
E4
1C
06
06
05
04
ENDCHAR
STARTCHAR 2281
ENCODING 8833
SWIDTH 785 0
DWIDTH 11 0
BBX 8 10 2 -1
BITMAP
A0
A0
60
30
2F
38
60
A0
A0
20
ENDCHAR
STARTCHAR 2282
ENCODING 8834
SWIDTH 785 0
DWIDTH 11 0
BBX 8 8 2 0
BITMAP
3F
40
80
80
80
80
40
3F
ENDCHAR
STARTCHAR 2283
ENCODING 8835
SWIDTH 785 0
DWIDTH 11 0
BBX 8 8 2 0
BITMAP
FC
02
01
01
01
01
02
FC
ENDCHAR
STARTCHAR 2284
ENCODING 8836
SWIDTH 785 0
DWIDTH 11 0
BBX 8 12 2 -2
BITMAP
02
02
3F
44
84
84
88
88
48
3F
10
10
ENDCHAR
STARTCHAR 2285
ENCODING 8837
SWIDTH 785 0
DWIDTH 11 0
BBX 8 12 2 -2
BITMAP
08
08
FC
12
11
11
21
21
22
FC
40
40
ENDCHAR
STARTCHAR 2286
ENCODING 8838
SWIDTH 785 0
DWIDTH 11 0
BBX 8 8 2 0
BITMAP
7F
C0
80
80
C0
7F
00
FF
ENDCHAR
STARTCHAR 2287
ENCODING 8839
SWIDTH 785 0
DWIDTH 11 0
BBX 8 8 2 0
BITMAP
FE
03
01
01
03
FE
00
FF
ENDCHAR
STARTCHAR 2288
ENCODING 8840
SWIDTH 785 0
DWIDTH 11 0
BBX 8 12 2 -2
BITMAP
04
04
7F
C8
88
88
D0
7F
10
FF
20
20
ENDCHAR
STARTCHAR 2289
ENCODING 8841
SWIDTH 785 0
DWIDTH 11 0
BBX 8 12 2 -2
BITMAP
04
0C
FE
0B
19
11
13
FE
20
FF
60
40
ENDCHAR
STARTCHAR 228A
ENCODING 8842
SWIDTH 785 0
DWIDTH 11 0
BBX 8 10 2 -2
BITMAP
7F
C0
80
80
C0
7F
08
FF
10
10
ENDCHAR
STARTCHAR 228B
ENCODING 8843
SWIDTH 785 0
DWIDTH 11 0
BBX 8 10 2 -2
BITMAP
FE
03
01
01
03
FE
08
FF
10
10
ENDCHAR
STARTCHAR 228C
ENCODING 8844
SWIDTH 785 0
DWIDTH 11 0
BBX 8 8 2 0
BITMAP
81
81
89
8F
81
81
42
3C
ENDCHAR
STARTCHAR 228D
ENCODING 8845
SWIDTH 785 0
DWIDTH 11 0
BBX 8 8 2 0
BITMAP
81
81
81
91
81
81
42
3C
ENDCHAR
STARTCHAR 228E
ENCODING 8846
SWIDTH 785 0
DWIDTH 11 0
BBX 8 8 2 0
BITMAP
81
89
89
BF
89
89
42
3C
ENDCHAR
STARTCHAR 228F
ENCODING 8847
SWIDTH 785 0
DWIDTH 11 0
BBX 8 8 2 0
BITMAP
FF
80
80
80
80
80
80
FF
ENDCHAR
STARTCHAR 2290
ENCODING 8848
SWIDTH 785 0
DWIDTH 11 0
BBX 8 8 2 0
BITMAP
FF
01
01
01
01
01
01
FF
ENDCHAR
STARTCHAR 2291
ENCODING 8849
SWIDTH 785 0
DWIDTH 11 0
BBX 8 8 2 0
BITMAP
FF
80
80
80
80
FF
00
FF
ENDCHAR
STARTCHAR 2292
ENCODING 8850
SWIDTH 785 0
DWIDTH 11 0
BBX 8 8 2 0
BITMAP
FF
01
01
01
01
FF
00
FF
ENDCHAR
STARTCHAR 2293
ENCODING 8851
SWIDTH 785 0
DWIDTH 11 0
BBX 8 8 2 0
BITMAP
FF
81
81
81
81
81
81
81
ENDCHAR
STARTCHAR 2294
ENCODING 8852
SWIDTH 785 0
DWIDTH 11 0
BBX 8 9 2 0
BITMAP
81
81
81
81
81
81
81
81
FF
ENDCHAR
STARTCHAR 2295
ENCODING 8853
SWIDTH 785 0
DWIDTH 11 0
BBX 8 8 2 0
BITMAP
3C
6A
C9
89
FF
89
4A
3C
ENDCHAR
STARTCHAR 2296
ENCODING 8854
SWIDTH 785 0
DWIDTH 11 0
BBX 8 8 2 0
BITMAP
3C
42
81
81
FF
81
42
3C
ENDCHAR
STARTCHAR 2297
ENCODING 8855
SWIDTH 785 0
DWIDTH 11 0
BBX 8 8 2 0
BITMAP
3C
42
A5
99
99
A5
42
3C
ENDCHAR
STARTCHAR 2298
ENCODING 8856
SWIDTH 785 0
DWIDTH 11 0
BBX 8 8 2 0
BITMAP
3C
42
85
89
91
A1
42
3C
ENDCHAR
STARTCHAR 2299
ENCODING 8857
SWIDTH 785 0
DWIDTH 11 0
BBX 8 8 2 0
BITMAP
3C
42
81
99
99
81
42
3C
ENDCHAR
STARTCHAR 229A
ENCODING 8858
SWIDTH 785 0
DWIDTH 11 0
BBX 8 8 2 0
BITMAP
3C
42
81
99
99
81
42
3C
ENDCHAR
STARTCHAR 229B
ENCODING 8859
SWIDTH 785 0
DWIDTH 11 0
BBX 8 8 2 0
BITMAP
3C
42
89
AB
9D
BF
4A
3C
ENDCHAR
STARTCHAR 229C
ENCODING 8860
SWIDTH 785 0
DWIDTH 11 0
BBX 8 8 2 0
BITMAP
3C
42
C3
FF
81
FF
42
3C
ENDCHAR
STARTCHAR 229D
ENCODING 8861
SWIDTH 785 0
DWIDTH 11 0
BBX 8 8 2 0
BITMAP
3C
42
81
81
BD
81
42
3C
ENDCHAR
STARTCHAR 229E
ENCODING 8862
SWIDTH 785 0
DWIDTH 11 0
BBX 8 8 2 0
BITMAP
FF
89
89
89
FF
89
89
FF
ENDCHAR
STARTCHAR 229F
ENCODING 8863
SWIDTH 785 0
DWIDTH 11 0
BBX 8 8 2 0
BITMAP
FF
81
81
81
FF
81
81
FF
ENDCHAR
STARTCHAR 22A0
ENCODING 8864
SWIDTH 785 0
DWIDTH 11 0
BBX 8 8 2 0
BITMAP
FF
C3
A5
99
99
A5
C3
FF
ENDCHAR
STARTCHAR 22A1
ENCODING 8865
SWIDTH 785 0
DWIDTH 11 0
BBX 8 8 2 0
BITMAP
FF
81
81
99
99
81
81
FF
ENDCHAR
STARTCHAR 22A2
ENCODING 8866
SWIDTH 785 0
DWIDTH 11 0
BBX 8 8 2 0
BITMAP
80
80
80
80
FF
80
80
80
ENDCHAR
STARTCHAR 22A3
ENCODING 8867
SWIDTH 785 0
DWIDTH 11 0
BBX 8 8 2 0
BITMAP
01
01
01
01
FF
01
01
01
ENDCHAR
STARTCHAR 22A4
ENCODING 8868
SWIDTH 785 0
DWIDTH 11 0
BBX 8 8 2 0
BITMAP
FF
08
08
08
08
08
08
08
ENDCHAR
STARTCHAR 22A5
ENCODING 8869
SWIDTH 785 0
DWIDTH 11 0
BBX 8 8 2 0
BITMAP
08
08
08
08
08
08
08
FF
ENDCHAR
STARTCHAR 22A6
ENCODING 8870
SWIDTH 571 0
DWIDTH 8 0
BBX 4 8 2 0
BITMAP
80
80
80
80
F0
80
80
80
ENDCHAR
STARTCHAR 22A7
ENCODING 8871
SWIDTH 571 0
DWIDTH 8 0
BBX 4 8 2 0
BITMAP
80
80
F0
80
80
F0
80
80
ENDCHAR
STARTCHAR 22A8
ENCODING 8872
SWIDTH 785 0
DWIDTH 11 0
BBX 8 8 2 0
BITMAP
80
80
FF
80
80
FF
80
80
ENDCHAR
STARTCHAR 22A9
ENCODING 8873
SWIDTH 785 0
DWIDTH 11 0
BBX 8 8 2 0
BITMAP
A0
A0
A0
A0
BF
A0
A0
A0
ENDCHAR
STARTCHAR 22AA
ENCODING 8874
SWIDTH 785 0
DWIDTH 11 0
BBX 8 8 2 0
BITMAP
A8
A8
A8
A8
AF
A8
A8
A8
ENDCHAR
STARTCHAR 22AB
ENCODING 8875
SWIDTH 785 0
DWIDTH 11 0
BBX 8 8 2 0
BITMAP
A0
A0
BF
A0
A0
BF
A0
A0
ENDCHAR
STARTCHAR 22AC
ENCODING 8876
SWIDTH 785 0
DWIDTH 11 0
BBX 8 10 2 -1
BITMAP
04
84
88
88
88
FF
90
90
A0
20
ENDCHAR
STARTCHAR 22AD
ENCODING 8877
SWIDTH 785 0
DWIDTH 11 0
BBX 8 10 2 -1
BITMAP
04
84
88
FF
88
90
FF
90
A0
20
ENDCHAR
STARTCHAR 22AE
ENCODING 8878
SWIDTH 785 0
DWIDTH 11 0
BBX 8 10 2 -1
BITMAP
02
A2
A4
A4
A4
BF
A8
A8
B0
10
ENDCHAR
STARTCHAR 22AF
ENCODING 8879
SWIDTH 785 0
DWIDTH 11 0
BBX 8 10 2 -1
BITMAP
02
A2
A4
BF
A4
A8
BF
A8
B0
10
ENDCHAR
STARTCHAR 22B0
ENCODING 8880
SWIDTH 785 0
DWIDTH 11 0
BBX 8 11 2 0
BITMAP
03
01
01
06
18
E0
38
06
01
01
03
ENDCHAR
STARTCHAR 22B1
ENCODING 8881
SWIDTH 785 0
DWIDTH 11 0
BBX 8 11 2 0
BITMAP
C0
80
80
60
18
07
1C
60
80
80
C0
ENDCHAR
STARTCHAR 22B2
ENCODING 8882
SWIDTH 785 0
DWIDTH 11 0
BBX 7 8 2 0
BITMAP
80
E0
98
86
86
98
A0
C0
ENDCHAR
STARTCHAR 22B3
ENCODING 8883
SWIDTH 785 0
DWIDTH 11 0
BBX 7 8 3 0
BITMAP
02
0E
32
C2
C2
32
0A
06
ENDCHAR
STARTCHAR 22B4
ENCODING 8884
SWIDTH 785 0
DWIDTH 11 0
BBX 8 9 2 0
BITMAP
01
07
39
C1
31
0D
03
00
FF
ENDCHAR
STARTCHAR 22B5
ENCODING 8885
SWIDTH 785 0
DWIDTH 11 0
BBX 8 9 2 0
BITMAP
80
E0
9C
83
8C
B0
C0
00
FF
ENDCHAR
STARTCHAR 22B6
ENCODING 8886
SWIDTH 928 0
DWIDTH 13 0
BBX 10 4 2 2
BITMAP
6180
93C0
9FC0
7380
ENDCHAR
STARTCHAR 22B7
ENCODING 8887
SWIDTH 928 0
DWIDTH 13 0
BBX 10 4 2 2
BITMAP
6180
F240
FE40
7380
ENDCHAR
STARTCHAR 22B8
ENCODING 8888
SWIDTH 785 0
DWIDTH 11 0
BBX 8 4 2 2
BITMAP
06
09
F9
0E
ENDCHAR
STARTCHAR 22B9
ENCODING 8889
SWIDTH 785 0
DWIDTH 11 0
BBX 9 9 1 -1
BITMAP
0800
0800
0800
0000
E380
0000
0800
0800
0800
ENDCHAR
STARTCHAR 22BA
ENCODING 8890
SWIDTH 642 0
DWIDTH 9 0
BBX 5 8 2 -3
BITMAP
F8
20
20
20
20
20
20
20
ENDCHAR
STARTCHAR 22BB
ENCODING 8891
SWIDTH 785 0
DWIDTH 11 0
BBX 8 8 2 0
BITMAP
41
22
36
14
08
08
00
FF
ENDCHAR
STARTCHAR 22BC
ENCODING 8892
SWIDTH 785 0
DWIDTH 11 0
BBX 8 8 2 0
BITMAP
FF
00
08
08
14
36
22
41
ENDCHAR
STARTCHAR 22BD
ENCODING 8893
SWIDTH 785 0
DWIDTH 11 0
BBX 8 8 2 0
BITMAP
FF
00
41
22
36
14
08
08
ENDCHAR
STARTCHAR 22BE
ENCODING 8894
SWIDTH 785 0
DWIDTH 11 0
BBX 8 8 2 0
BITMAP
80
80
E0
90
88
84
84
FF
ENDCHAR
STARTCHAR 22BF
ENCODING 8895
SWIDTH 785 0
DWIDTH 11 0
BBX 8 8 2 0
BITMAP
01
03
05
09
11
21
41
FF
ENDCHAR
STARTCHAR 22C0
ENCODING 8896
SWIDTH 785 0
DWIDTH 11 0
BBX 9 8 2 0
BITMAP
0800
0800
1C00
1400
3600
6300
6300
C180
ENDCHAR
STARTCHAR 22C1
ENCODING 8897
SWIDTH 785 0
DWIDTH 11 0
BBX 9 8 2 0
BITMAP
C180
6300
6300
3600
1400
1C00
0800
0800
ENDCHAR
STARTCHAR 22C2
ENCODING 8898
SWIDTH 785 0
DWIDTH 11 0
BBX 8 8 2 0
BITMAP
3C
42
81
81
81
81
81
81
ENDCHAR
STARTCHAR 22C3
ENCODING 8899
SWIDTH 785 0
DWIDTH 11 0
BBX 8 8 2 0
BITMAP
81
81
81
81
81
81
42
3C
ENDCHAR
STARTCHAR 22C4
ENCODING 8900
SWIDTH 785 0
DWIDTH 11 0
BBX 9 9 1 0
BITMAP
0800
1400
2200
4100
8080
4100
2200
1400
0800
ENDCHAR
STARTCHAR 22C5
ENCODING 8901
SWIDTH 428 0
DWIDTH 6 0
BBX 1 1 2 4
BITMAP
80
ENDCHAR
STARTCHAR 22C6
ENCODING 8902
SWIDTH 785 0
DWIDTH 11 0
BBX 5 6 3 1
BITMAP
20
20
20
F8
20
50
ENDCHAR
STARTCHAR 22C7
ENCODING 8903
SWIDTH 785 0
DWIDTH 11 0
BBX 9 9 2 -1
BITMAP
8080
5100
2200
1400
FF80
1400
2200
5100
8080
ENDCHAR
STARTCHAR 22C8
ENCODING 8904
SWIDTH 1000 0
DWIDTH 14 0
BBX 11 8 2 0
BITMAP
8020
C0E0
B120
8A20
8E20
9120
E0A0
8060
ENDCHAR
STARTCHAR 22C9
ENCODING 8905
SWIDTH 785 0
DWIDTH 11 0
BBX 8 8 2 0
BITMAP
81
C2
A4
98
98
A4
C2
81
ENDCHAR
STARTCHAR 22CA
ENCODING 8906
SWIDTH 785 0
DWIDTH 11 0
BBX 8 8 2 0
BITMAP
81
43
25
19
19
25
43
81
ENDCHAR
STARTCHAR 22CB
ENCODING 8907
SWIDTH 785 0
DWIDTH 11 0
BBX 8 8 2 0
BITMAP
80
40
20
10
18
24
42
81
ENDCHAR
STARTCHAR 22CC
ENCODING 8908
SWIDTH 785 0
DWIDTH 11 0
BBX 8 8 2 0
BITMAP
01
02
04
08
18
24
42
81
ENDCHAR
STARTCHAR 22CD
ENCODING 8909
SWIDTH 785 0
DWIDTH 11 0
BBX 8 4 2 2
BITMAP
8F
F1
00
FF
ENDCHAR
STARTCHAR 22CE
ENCODING 8910
SWIDTH 785 0
DWIDTH 11 0
BBX 9 8 2 0
BITMAP
8080
4300
2200
1400
1400
0800
0800
0800
ENDCHAR
STARTCHAR 22CF
ENCODING 8911
SWIDTH 785 0
DWIDTH 11 0
BBX 9 8 2 0
BITMAP
0800
0800
0800
1400
1400
2200
4300
8080
ENDCHAR
STARTCHAR 22D0
ENCODING 8912
SWIDTH 785 0
DWIDTH 11 0
BBX 8 8 2 0
BITMAP
3F
40
9F
A0
A0
9F
40
3F
ENDCHAR
STARTCHAR 22D1
ENCODING 8913
SWIDTH 785 0
DWIDTH 11 0
BBX 8 8 2 0
BITMAP
FC
02
F9
05
05
F9
02
FC
ENDCHAR
STARTCHAR 22D2
ENCODING 8914
SWIDTH 785 0
DWIDTH 11 0
BBX 8 8 2 0
BITMAP
A5
A5
A5
A5
A5
99
42
3C
ENDCHAR
STARTCHAR 22D3
ENCODING 8915
SWIDTH 785 0
DWIDTH 11 0
BBX 8 8 2 0
BITMAP
3C
42
99
A5
A5
A5
A5
A5
ENDCHAR
STARTCHAR 22D4
ENCODING 8916
SWIDTH 785 0
DWIDTH 11 0
BBX 8 11 2 0
BITMAP
08
08
08
3C
4A
89
89
89
89
89
89
ENDCHAR
STARTCHAR 22D5
ENCODING 8917
SWIDTH 785 0
DWIDTH 11 0
BBX 8 8 2 0
BITMAP
24
24
FF
24
24
FF
24
24
ENDCHAR
STARTCHAR 22D6
ENCODING 8918
SWIDTH 785 0
DWIDTH 11 0
BBX 8 9 2 0
BITMAP
01
06
08
30
C2
30
08
06
01
ENDCHAR
STARTCHAR 22D7
ENCODING 8919
SWIDTH 785 0
DWIDTH 11 0
BBX 8 9 2 0
BITMAP
80
60
10
0C
43
0C
10
60
80
ENDCHAR
STARTCHAR 22D8
ENCODING 8920
SWIDTH 1428 0
DWIDTH 20 0
BBX 16 9 2 0
BITMAP
0111
0666
0888
3330
CCC0
3330
0888
0666
0111
ENDCHAR
STARTCHAR 22D9
ENCODING 8921
SWIDTH 1428 0
DWIDTH 20 0
BBX 16 9 2 0
BITMAP
8880
6660
1110
0CCC
0333
0CCC
1110
6660
8880
ENDCHAR
STARTCHAR 22DA
ENCODING 8922
SWIDTH 785 0
DWIDTH 11 0
BBX 8 17 2 -3
BITMAP
01
06
38
C0
30
0C
03
00
FF
00
80
60
1C
03
0C
30
C0
ENDCHAR
STARTCHAR 22DB
ENCODING 8923
SWIDTH 785 0
DWIDTH 11 0
BBX 8 17 2 -3
BITMAP
80
60
1C
03
0C
30
C0
00
FF
00
01
06
38
C0
30
0C
03
ENDCHAR
STARTCHAR 22DC
ENCODING 8924
SWIDTH 785 0
DWIDTH 11 0
BBX 8 9 2 0
BITMAP
01
0E
31
C6
38
C0
30
0C
03
ENDCHAR
STARTCHAR 22DD
ENCODING 8925
SWIDTH 785 0
DWIDTH 11 0
BBX 8 9 2 0
BITMAP
80
70
8C
63
1C
03
0C
30
C0
ENDCHAR
STARTCHAR 22DE
ENCODING 8926
SWIDTH 785 0
DWIDTH 11 0
BBX 8 9 2 0
BITMAP
03
0E
F6
18
E0
18
06
02
01
ENDCHAR
STARTCHAR 22DF
ENCODING 8927
SWIDTH 785 0
DWIDTH 11 0
BBX 8 9 2 0
BITMAP
C0
70
2F
18
07
18
60
40
80
ENDCHAR
STARTCHAR 22E0
ENCODING 8928
SWIDTH 785 0
DWIDTH 11 0
BBX 8 13 2 -2
BITMAP
01
06
06
1C
E4
1C
06
06
05
04
FF
04
04
ENDCHAR
STARTCHAR 22E1
ENCODING 8929
SWIDTH 785 0
DWIDTH 11 0
BBX 8 13 2 -2
BITMAP
80
A0
60
30
2F
38
60
A0
A0
20
FF
20
20
ENDCHAR
STARTCHAR 22E2
ENCODING 8930
SWIDTH 785 0
DWIDTH 11 0
BBX 8 12 2 -2
BITMAP
04
04
FF
88
88
88
90
FF
10
FF
20
20
ENDCHAR
STARTCHAR 22E3
ENCODING 8931
SWIDTH 785 0
DWIDTH 11 0
BBX 8 12 2 -2
BITMAP
04
04
FF
09
09
09
11
FF
10
FF
20
20
ENDCHAR
STARTCHAR 22E4
ENCODING 8932
SWIDTH 785 0
DWIDTH 11 0
BBX 8 10 2 -2
BITMAP
FF
80
80
80
80
FF
08
FF
10
10
ENDCHAR
STARTCHAR 22E5
ENCODING 8933
SWIDTH 785 0
DWIDTH 11 0
BBX 8 10 2 -2
BITMAP
FF
01
01
01
01
FF
08
FF
10
10
ENDCHAR
STARTCHAR 22E6
ENCODING 8934
SWIDTH 785 0
DWIDTH 11 0
BBX 8 11 2 -1
BITMAP
01
06
38
C0
30
0C
03
08
F9
97
10
ENDCHAR
STARTCHAR 22E7
ENCODING 8935
SWIDTH 785 0
DWIDTH 11 0
BBX 8 11 2 -1
BITMAP
80
60
1C
03
0C
30
C0
08
F9
97
10
ENDCHAR
STARTCHAR 22E8
ENCODING 8936
SWIDTH 785 0
DWIDTH 11 0
BBX 8 13 2 -1
BITMAP
01
02
04
18
E0
18
06
02
01
08
F9
97
10
ENDCHAR
STARTCHAR 22E9
ENCODING 8937
SWIDTH 785 0
DWIDTH 11 0
BBX 8 13 2 -1
BITMAP
80
40
20
18
07
18
60
40
80
08
F9
97
10
ENDCHAR
STARTCHAR 22EA
ENCODING 8938
SWIDTH 785 0
DWIDTH 11 0
BBX 7 10 3 -1
BITMAP
04
0A
0E
3A
D2
D2
32
2A
26
40
ENDCHAR
STARTCHAR 22EB
ENCODING 8939
SWIDTH 785 0
DWIDTH 11 0
BBX 7 10 2 -1
BITMAP
04
8C
E8
98
8E
96
98
B0
F0
20
ENDCHAR
STARTCHAR 22EC
ENCODING 8940
SWIDTH 785 0
DWIDTH 11 0
BBX 8 11 2 -2
BITMAP
03
07
1D
E5
39
0D
0B
10
FF
10
20
ENDCHAR
STARTCHAR 22ED
ENCODING 8941
SWIDTH 785 0
DWIDTH 11 0
BBX 8 11 2 -2
BITMAP
88
E8
9C
93
AC
B0
E0
40
FF
C0
80
ENDCHAR
STARTCHAR 22EE
ENCODING 8942
SWIDTH 785 0
DWIDTH 11 0
BBX 1 7 5 0
BITMAP
80
00
00
80
00
00
80
ENDCHAR
STARTCHAR 22EF
ENCODING 8943
SWIDTH 785 0
DWIDTH 11 0
BBX 7 1 2 4
BITMAP
92
ENDCHAR
STARTCHAR 22F0
ENCODING 8944
SWIDTH 785 0
DWIDTH 11 0
BBX 7 7 2 0
BITMAP
02
00
00
10
00
00
80
ENDCHAR
STARTCHAR 22F1
ENCODING 8945
SWIDTH 785 0
DWIDTH 11 0
BBX 7 7 2 0
BITMAP
80
00
00
10
00
00
02
ENDCHAR
STARTCHAR 2302
ENCODING 8962
SWIDTH 857 0
DWIDTH 12 0
BBX 11 10 1 0
BITMAP
0400
0A00
1100
2080
4040
8020
8020
8020
8020
FFE0
ENDCHAR
STARTCHAR 2306
ENCODING 8966
SWIDTH 785 0
DWIDTH 11 0
BBX 8 10 2 0
BITMAP
FF
00
FF
00
08
08
14
36
22
41
ENDCHAR
STARTCHAR 2308
ENCODING 8968
SWIDTH 500 0
DWIDTH 7 0
BBX 3 13 3 -2
BITMAP
E0
80
80
80
80
80
80
80
80
80
80
80
80
ENDCHAR
STARTCHAR 2309
ENCODING 8969
SWIDTH 500 0
DWIDTH 7 0
BBX 3 13 1 -2
BITMAP
E0
20
20
20
20
20
20
20
20
20
20
20
20
ENDCHAR
STARTCHAR 230A
ENCODING 8970
SWIDTH 500 0
DWIDTH 7 0
BBX 3 13 3 -2
BITMAP
80
80
80
80
80
80
80
80
80
80
80
80
E0
ENDCHAR
STARTCHAR 230B
ENCODING 8971
SWIDTH 500 0
DWIDTH 7 0
BBX 3 13 1 -2
BITMAP
20
20
20
20
20
20
20
20
20
20
20
20
E0
ENDCHAR
STARTCHAR 2320
ENCODING 8992
SWIDTH 428 0
DWIDTH 6 0
BBX 4 14 2 -3
BITMAP
70
80
80
80
80
80
80
80
80
80
80
80
80
80
ENDCHAR
STARTCHAR 2321
ENCODING 8993
SWIDTH 428 0
DWIDTH 6 0
BBX 3 14 0 -3
BITMAP
20
20
20
20
20
20
20
20
20
20
20
20
40
C0
ENDCHAR
STARTCHAR 2322
ENCODING 8994
SWIDTH 785 0
DWIDTH 11 0
BBX 8 2 2 3
BITMAP
3C
C3
ENDCHAR
STARTCHAR 2323
ENCODING 8995
SWIDTH 785 0
DWIDTH 11 0
BBX 8 2 2 3
BITMAP
C3
3C
ENDCHAR
STARTCHAR 2400
ENCODING 9216
SWIDTH 1000 0
DWIDTH 14 0
BBX 13 5 1 0
BITMAP
A520
A520
E520
A520
A738
ENDCHAR
STARTCHAR 2401
ENCODING 9217
SWIDTH 1000 0
DWIDTH 14 0
BBX 12 5 1 0
BITMAP
E650
8950
4970
2950
E650
ENDCHAR
STARTCHAR 2402
ENCODING 9218
SWIDTH 1000 0
DWIDTH 14 0
BBX 13 5 1 0
BITMAP
EFF8
8230
4230
2230
E268
ENDCHAR
STARTCHAR 2403
ENCODING 9219
SWIDTH 1000 0
DWIDTH 14 0
BBX 13 5 1 0
BITMAP
EFD8
8230
E230
8230
E268
ENDCHAR
STARTCHAR 2404
ENCODING 9220
SWIDTH 1000 0
DWIDTH 14 0
BBX 13 5 1 0
BITMAP
E6F8
8920
E920
8920
E620
ENDCHAR
STARTCHAR 2405
ENCODING 9221
SWIDTH 1000 0
DWIDTH 14 0
BBX 12 6 1 -1
BITMAP
EA60
8A90
EE90
8A90
EA60
0010
ENDCHAR
STARTCHAR 2406
ENCODING 9222
SWIDTH 1000 0
DWIDTH 14 0
BBX 14 5 0 0
BITMAP
63A4
6428
6430
F428
93A4
ENDCHAR
STARTCHAR 2407
ENCODING 9223
SWIDTH 1000 0
DWIDTH 14 0
BBX 13 5 1 0
BITMAP
E720
A420
C720
A420
E738
ENDCHAR
STARTCHAR 2408
ENCODING 9224
SWIDTH 1000 0
DWIDTH 14 0
BBX 8 5 3 0
BITMAP
E7
A4
C2
A1
E7
ENDCHAR
STARTCHAR 2409
ENCODING 9225
SWIDTH 1000 0
DWIDTH 14 0
BBX 10 5 3 0
BITMAP
A7C0
A100
E100
A100
A100
ENDCHAR
STARTCHAR 240A
ENCODING 9226
SWIDTH 1000 0
DWIDTH 14 0
BBX 8 5 3 0
BITMAP
87
84
87
84
E4
ENDCHAR
STARTCHAR 240B
ENCODING 9227
SWIDTH 857 0
DWIDTH 12 0
BBX 9 5 2 0
BITMAP
9F80
F200
6200
6200
6200
ENDCHAR
STARTCHAR 240C
ENCODING 9228
SWIDTH 1000 0
DWIDTH 14 0
BBX 8 5 3 0
BITMAP
E7
84
E7
84
84
ENDCHAR
STARTCHAR 240D
ENCODING 9229
SWIDTH 1000 0
DWIDTH 14 0
BBX 8 5 2 0
BITMAP
77
85
87
86
75
ENDCHAR
STARTCHAR 240E
ENCODING 9230
SWIDTH 1000 0
DWIDTH 14 0
BBX 9 5 2 0
BITMAP
E300
8480
4480
2480
E300
ENDCHAR
STARTCHAR 240F
ENCODING 9231
SWIDTH 1000 0
DWIDTH 14 0
BBX 8 5 3 0
BITMAP
E7
82
42
22
E7
ENDCHAR
STARTCHAR 2410
ENCODING 9232
SWIDTH 1000 0
DWIDTH 14 0
BBX 12 5 1 0
BITMAP
E470
9440
9470
9440
E770
ENDCHAR
STARTCHAR 2411
ENCODING 9233
SWIDTH 1000 0
DWIDTH 14 0
BBX 12 5 1 0
BITMAP
E760
9820
9820
9820
E770
ENDCHAR
STARTCHAR 2412
ENCODING 9234
SWIDTH 1000 0
DWIDTH 14 0
BBX 12 5 1 0
BITMAP
E770
9810
9820
9840
E770
ENDCHAR
STARTCHAR 2413
ENCODING 9235
SWIDTH 1000 0
DWIDTH 14 0
BBX 12 5 1 0
BITMAP
E770
9810
9860
9810
E770
ENDCHAR
STARTCHAR 2414
ENCODING 9236
SWIDTH 1000 0
DWIDTH 14 0
BBX 12 5 1 0
BITMAP
E720
9860
98E0
98F0
E720
ENDCHAR
STARTCHAR 2415
ENCODING 9237
SWIDTH 1000 0
DWIDTH 14 0
BBX 13 5 1 0
BITMAP
A648
A650
E660
AF50
A948
ENDCHAR
STARTCHAR 2416
ENCODING 9238
SWIDTH 1000 0
DWIDTH 14 0
BBX 12 5 1 0
BITMAP
EDD0
8550
4270
2250
E250
ENDCHAR
STARTCHAR 2417
ENCODING 9239
SWIDTH 1000 0
DWIDTH 14 0
BBX 12 5 1 0
BITMAP
EFF0
8250
E260
8250
E270
ENDCHAR
STARTCHAR 2418
ENCODING 9240
SWIDTH 1000 0
DWIDTH 14 0
BBX 12 5 1 0
BITMAP
7650
8650
8670
8F50
7950
ENDCHAR
STARTCHAR 2419
ENCODING 9241
SWIDTH 1000 0
DWIDTH 14 0
BBX 9 5 3 0
BITMAP
E480
8780
E780
8680
E480
ENDCHAR
STARTCHAR 241A
ENCODING 9242
SWIDTH 1000 0
DWIDTH 14 0
BBX 12 5 1 0
BITMAP
EA70
8A50
4A60
2A50
EE70
ENDCHAR
STARTCHAR 241B
ENCODING 9243
SWIDTH 1000 0
DWIDTH 14 0
BBX 13 5 1 0
BITMAP
EE38
8840
E440
8240
EE38
ENDCHAR
STARTCHAR 241C
ENCODING 9244
SWIDTH 1000 0
DWIDTH 14 0
BBX 8 5 3 0
BITMAP
E7
84
E2
81
87
ENDCHAR
STARTCHAR 241D
ENCODING 9245
SWIDTH 1000 0
DWIDTH 14 0
BBX 9 5 2 0
BITMAP
7380
8200
8100
9080
7380
ENDCHAR
STARTCHAR 241E
ENCODING 9246
SWIDTH 1000 0
DWIDTH 14 0
BBX 8 5 3 0
BITMAP
E7
A4
E2
C1
A7
ENDCHAR
STARTCHAR 241F
ENCODING 9247
SWIDTH 1000 0
DWIDTH 14 0
BBX 8 5 3 0
BITMAP
A7
A4
A2
A1
E7
ENDCHAR
STARTCHAR 2420
ENCODING 9248
SWIDTH 1000 0
DWIDTH 14 0
BBX 9 5 2 0
BITMAP
E380
8280
4380
2200
E200
ENDCHAR
STARTCHAR 2421
ENCODING 9249
SWIDTH 1000 0
DWIDTH 14 0
BBX 12 5 1 0
BITMAP
E740
9440
9740
9440
E770
ENDCHAR
STARTCHAR 2422
ENCODING 9250
SWIDTH 1000 0
DWIDTH 14 0
BBX 10 11 2 0
BITMAP
1100
1200
1400
1780
18C0
1040
1040
3040
3040
5880
D700
ENDCHAR
STARTCHAR 2423
ENCODING 9251
SWIDTH 285 0
DWIDTH 4 0
BBX 5 2 0 -2
BITMAP
88
F8
ENDCHAR
STARTCHAR 2424
ENCODING 9252
SWIDTH 1000 0
DWIDTH 14 0
BBX 9 5 3 0
BITMAP
A200
A200
E200
A200
A380
ENDCHAR
STARTCHAR 2500
ENCODING 9472
SWIDTH 1000 0
DWIDTH 14 0
BBX 14 1 0 4
BITMAP
FFFC
ENDCHAR
STARTCHAR 2501
ENCODING 9473
SWIDTH 1000 0
DWIDTH 14 0
BBX 14 1 0 4
BITMAP
FFFC
ENDCHAR
STARTCHAR 2502
ENCODING 9474
SWIDTH 1000 0
DWIDTH 14 0
BBX 1 14 6 -3
BITMAP
80
80
80
80
80
80
80
80
80
80
80
80
80
80
ENDCHAR
STARTCHAR 2503
ENCODING 9475
SWIDTH 1000 0
DWIDTH 14 0
BBX 1 14 6 -3
BITMAP
80
80
80
80
80
80
80
80
80
80
80
80
80
80
ENDCHAR
STARTCHAR 2504
ENCODING 9476
SWIDTH 1000 0
DWIDTH 14 0
BBX 14 1 1 4
BITMAP
F7BC
ENDCHAR
STARTCHAR 2505
ENCODING 9477
SWIDTH 1000 0
DWIDTH 14 0
BBX 14 1 1 4
BITMAP
F7BC
ENDCHAR
STARTCHAR 2506
ENCODING 9478
SWIDTH 1000 0
DWIDTH 14 0
BBX 1 14 6 -3
BITMAP
80
80
80
80
00
80
80
80
80
00
80
80
80
80
ENDCHAR
STARTCHAR 2507
ENCODING 9479
SWIDTH 1000 0
DWIDTH 14 0
BBX 1 14 6 -3
BITMAP
80
80
80
80
00
80
80
80
80
00
80
80
80
80
ENDCHAR
STARTCHAR 2508
ENCODING 9480
SWIDTH 1000 0
DWIDTH 14 0
BBX 15 1 1 4
BITMAP
EEEE
ENDCHAR
STARTCHAR 2509
ENCODING 9481
SWIDTH 1000 0
DWIDTH 14 0
BBX 15 1 1 4
BITMAP
EEEE
ENDCHAR
STARTCHAR 250A
ENCODING 9482
SWIDTH 1000 0
DWIDTH 14 0
BBX 1 15 6 -4
BITMAP
80
80
80
00
80
80
80
00
80
80
80
00
80
80
80
ENDCHAR
STARTCHAR 250B
ENCODING 9483
SWIDTH 1000 0
DWIDTH 14 0
BBX 1 15 6 -4
BITMAP
80
80
80
00
80
80
80
00
80
80
80
00
80
80
80
ENDCHAR
STARTCHAR 250C
ENCODING 9484
SWIDTH 1000 0
DWIDTH 14 0
BBX 8 8 6 -3
BITMAP
FF
80
80
80
80
80
80
80
ENDCHAR
STARTCHAR 250D
ENCODING 9485
SWIDTH 1000 0
DWIDTH 14 0
BBX 8 8 6 -3
BITMAP
FF
80
80
80
80
80
80
80
ENDCHAR
STARTCHAR 250E
ENCODING 9486
SWIDTH 1000 0
DWIDTH 14 0
BBX 8 8 6 -3
BITMAP
FF
80
80
80
80
80
80
80
ENDCHAR
STARTCHAR 250F
ENCODING 9487
SWIDTH 1000 0
DWIDTH 14 0
BBX 8 8 6 -3
BITMAP
FF
80
80
80
80
80
80
80
ENDCHAR
STARTCHAR 2510
ENCODING 9488
SWIDTH 1000 0
DWIDTH 14 0
BBX 8 8 0 -3
BITMAP
FF
01
01
01
01
01
01
01
ENDCHAR
STARTCHAR 2511
ENCODING 9489
SWIDTH 1000 0
DWIDTH 14 0
BBX 8 8 0 -3
BITMAP
FF
01
01
01
01
01
01
01
ENDCHAR
STARTCHAR 2512
ENCODING 9490
SWIDTH 1000 0
DWIDTH 14 0
BBX 8 8 0 -3
BITMAP
FF
01
01
01
01
01
01
01
ENDCHAR
STARTCHAR 2513
ENCODING 9491
SWIDTH 1000 0
DWIDTH 14 0
BBX 8 8 0 -3
BITMAP
FF
01
01
01
01
01
01
01
ENDCHAR
STARTCHAR 2514
ENCODING 9492
SWIDTH 1000 0
DWIDTH 14 0
BBX 8 7 7 4
BITMAP
80
80
80
80
80
80
FF
ENDCHAR
STARTCHAR 2515
ENCODING 9493
SWIDTH 1000 0
DWIDTH 14 0
BBX 8 7 6 4
BITMAP
80
80
80
80
80
80
FF
ENDCHAR
STARTCHAR 2516
ENCODING 9494
SWIDTH 1000 0
DWIDTH 14 0
BBX 8 7 6 4
BITMAP
80
80
80
80
80
80
FF
ENDCHAR
STARTCHAR 2517
ENCODING 9495
SWIDTH 1000 0
DWIDTH 14 0
BBX 8 7 6 4
BITMAP
80
80
80
80
80
80
FF
ENDCHAR
STARTCHAR 2518
ENCODING 9496
SWIDTH 1000 0
DWIDTH 14 0
BBX 8 7 0 4
BITMAP
01
01
01
01
01
01
FF
ENDCHAR
STARTCHAR 2519
ENCODING 9497
SWIDTH 1000 0
DWIDTH 14 0
BBX 8 7 0 4
BITMAP
01
01
01
01
01
01
FF
ENDCHAR
STARTCHAR 251A
ENCODING 9498
SWIDTH 1000 0
DWIDTH 14 0
BBX 8 7 0 4
BITMAP
01
01
01
01
01
01
FF
ENDCHAR
STARTCHAR 251B
ENCODING 9499
SWIDTH 1000 0
DWIDTH 14 0
BBX 8 7 0 4
BITMAP
01
01
01
01
01
01
FF
ENDCHAR
STARTCHAR 251C
ENCODING 9500
SWIDTH 1000 0
DWIDTH 14 0
BBX 8 14 6 -3
BITMAP
80
80
80
80
80
80
FF
80
80
80
80
80
80
80
ENDCHAR
STARTCHAR 251D
ENCODING 9501
SWIDTH 1000 0
DWIDTH 14 0
BBX 8 14 6 -3
BITMAP
80
80
80
80
80
80
FF
80
80
80
80
80
80
80
ENDCHAR
STARTCHAR 251E
ENCODING 9502
SWIDTH 1000 0
DWIDTH 14 0
BBX 8 14 6 -3
BITMAP
80
80
80
80
80
80
FF
80
80
80
80
80
80
80
ENDCHAR
STARTCHAR 251F
ENCODING 9503
SWIDTH 1000 0
DWIDTH 14 0
BBX 8 14 6 -3
BITMAP
80
80
80
80
80
80
FF
80
80
80
80
80
80
80
ENDCHAR
STARTCHAR 2520
ENCODING 9504
SWIDTH 1000 0
DWIDTH 14 0
BBX 8 14 6 -3
BITMAP
80
80
80
80
80
80
FF
80
80
80
80
80
80
80
ENDCHAR
STARTCHAR 2521
ENCODING 9505
SWIDTH 1000 0
DWIDTH 14 0
BBX 8 14 6 -3
BITMAP
80
80
80
80
80
80
FF
80
80
80
80
80
80
80
ENDCHAR
STARTCHAR 2522
ENCODING 9506
SWIDTH 1000 0
DWIDTH 14 0
BBX 8 14 6 -3
BITMAP
80
80
80
80
80
80
FF
80
80
80
80
80
80
80
ENDCHAR
STARTCHAR 2523
ENCODING 9507
SWIDTH 1000 0
DWIDTH 14 0
BBX 8 14 6 -3
BITMAP
80
80
80
80
80
80
FF
80
80
80
80
80
80
80
ENDCHAR
STARTCHAR 2524
ENCODING 9508
SWIDTH 1000 0
DWIDTH 14 0
BBX 8 14 0 -3
BITMAP
01
01
01
01
01
01
FF
01
01
01
01
01
01
01
ENDCHAR
STARTCHAR 2525
ENCODING 9509
SWIDTH 1000 0
DWIDTH 14 0
BBX 7 14 0 -3
BITMAP
02
02
02
02
02
02
FE
02
02
02
02
02
02
02
ENDCHAR
STARTCHAR 2526
ENCODING 9510
SWIDTH 1000 0
DWIDTH 14 0
BBX 7 14 0 -3
BITMAP
02
02
02
02
02
02
FE
02
02
02
02
02
02
02
ENDCHAR
STARTCHAR 2527
ENCODING 9511
SWIDTH 1000 0
DWIDTH 14 0
BBX 7 14 0 -3
BITMAP
02
02
02
02
02
02
FE
02
02
02
02
02
02
02
ENDCHAR
STARTCHAR 2528
ENCODING 9512
SWIDTH 1000 0
DWIDTH 14 0
BBX 7 14 0 -3
BITMAP
02
02
02
02
02
02
FE
02
02
02
02
02
02
02
ENDCHAR
STARTCHAR 2529
ENCODING 9513
SWIDTH 1000 0
DWIDTH 14 0
BBX 7 14 0 -3
BITMAP
02
02
02
02
02
02
FE
02
02
02
02
02
02
02
ENDCHAR
STARTCHAR 252A
ENCODING 9514
SWIDTH 1000 0
DWIDTH 14 0
BBX 7 14 0 -3
BITMAP
02
02
02
02
02
02
FE
02
02
02
02
02
02
02
ENDCHAR
STARTCHAR 252B
ENCODING 9515
SWIDTH 1000 0
DWIDTH 14 0
BBX 7 14 0 -3
BITMAP
02
02
02
02
02
02
FE
02
02
02
02
02
02
02
ENDCHAR
STARTCHAR 252C
ENCODING 9516
SWIDTH 1000 0
DWIDTH 14 0
BBX 14 8 0 -3
BITMAP
FFFC
0200
0200
0200
0200
0200
0200
0200
ENDCHAR
STARTCHAR 252D
ENCODING 9517
SWIDTH 1000 0
DWIDTH 14 0
BBX 14 8 0 -3
BITMAP
FFFC
0200
0200
0200
0200
0200
0200
0200
ENDCHAR
STARTCHAR 252E
ENCODING 9518
SWIDTH 1000 0
DWIDTH 14 0
BBX 14 8 0 -3
BITMAP
FFFC
0200
0200
0200
0200
0200
0200
0200
ENDCHAR
STARTCHAR 252F
ENCODING 9519
SWIDTH 1000 0
DWIDTH 14 0
BBX 14 8 0 -3
BITMAP
FFFC
0200
0200
0200
0200
0200
0200
0200
ENDCHAR
STARTCHAR 2530
ENCODING 9520
SWIDTH 1000 0
DWIDTH 14 0
BBX 14 8 0 -3
BITMAP
FFFC
0200
0200
0200
0200
0200
0200
0200
ENDCHAR
STARTCHAR 2531
ENCODING 9521
SWIDTH 1000 0
DWIDTH 14 0
BBX 14 8 0 -3
BITMAP
FFFC
0200
0200
0200
0200
0200
0200
0200
ENDCHAR
STARTCHAR 2532
ENCODING 9522
SWIDTH 1000 0
DWIDTH 14 0
BBX 14 8 0 -3
BITMAP
FFFC
0200
0200
0200
0200
0200
0200
0200
ENDCHAR
STARTCHAR 2533
ENCODING 9523
SWIDTH 1000 0
DWIDTH 14 0
BBX 14 8 0 -3
BITMAP
FFFC
0200
0200
0200
0200
0200
0200
0200
ENDCHAR
STARTCHAR 2534
ENCODING 9524
SWIDTH 1000 0
DWIDTH 14 0
BBX 14 7 0 4
BITMAP
0200
0200
0200
0200
0200
0200
FFFC
ENDCHAR
STARTCHAR 2535
ENCODING 9525
SWIDTH 1000 0
DWIDTH 14 0
BBX 14 7 0 4
BITMAP
0200
0200
0200
0200
0200
0200
FFFC
ENDCHAR
STARTCHAR 2536
ENCODING 9526
SWIDTH 1000 0
DWIDTH 14 0
BBX 14 7 0 4
BITMAP
0200
0200
0200
0200
0200
0200
FFFC
ENDCHAR
STARTCHAR 2537
ENCODING 9527
SWIDTH 1000 0
DWIDTH 14 0
BBX 14 7 0 4
BITMAP
0200
0200
0200
0200
0200
0200
FFFC
ENDCHAR
STARTCHAR 2538
ENCODING 9528
SWIDTH 1000 0
DWIDTH 14 0
BBX 14 7 0 4
BITMAP
0200
0200
0200
0200
0200
0200
FFFC
ENDCHAR
STARTCHAR 2539
ENCODING 9529
SWIDTH 1000 0
DWIDTH 14 0
BBX 14 7 0 4
BITMAP
0200
0200
0200
0200
0200
0200
FFFC
ENDCHAR
STARTCHAR 253A
ENCODING 9530
SWIDTH 1000 0
DWIDTH 14 0
BBX 14 7 0 4
BITMAP
0200
0200
0200
0200
0200
0200
FFFC
ENDCHAR
STARTCHAR 253B
ENCODING 9531
SWIDTH 1000 0
DWIDTH 14 0
BBX 14 7 0 4
BITMAP
0200
0200
0200
0200
0200
0200
FFFC
ENDCHAR
STARTCHAR 253C
ENCODING 9532
SWIDTH 1000 0
DWIDTH 14 0
BBX 14 14 0 -3
BITMAP
0200
0200
0200
0200
0200
0200
FFFC
0200
0200
0200
0200
0200
0200
0200
ENDCHAR
STARTCHAR 253D
ENCODING 9533
SWIDTH 1000 0
DWIDTH 14 0
BBX 14 14 0 -3
BITMAP
0200
0200
0200
0200
0200
0200
FFFC
0200
0200
0200
0200
0200
0200
0200
ENDCHAR
STARTCHAR 253E
ENCODING 9534
SWIDTH 1000 0
DWIDTH 14 0
BBX 14 14 0 -3
BITMAP
0200
0200
0200
0200
0200
0200
FFFC
0200
0200
0200
0200
0200
0200
0200
ENDCHAR
STARTCHAR 253F
ENCODING 9535
SWIDTH 1000 0
DWIDTH 14 0
BBX 14 14 0 -3
BITMAP
0200
0200
0200
0200
0200
0200
FFFC
0200
0200
0200
0200
0200
0200
0200
ENDCHAR
STARTCHAR 2540
ENCODING 9536
SWIDTH 1000 0
DWIDTH 14 0
BBX 14 14 0 -3
BITMAP
0200
0200
0200
0200
0200
0200
FFFC
0200
0200
0200
0200
0200
0200
0200
ENDCHAR
STARTCHAR 2541
ENCODING 9537
SWIDTH 1000 0
DWIDTH 14 0
BBX 14 14 0 -3
BITMAP
0200
0200
0200
0200
0200
0200
FFFC
0200
0200
0200
0200
0200
0200
0200
ENDCHAR
STARTCHAR 2542
ENCODING 9538
SWIDTH 1000 0
DWIDTH 14 0
BBX 14 14 0 -3
BITMAP
0200
0200
0200
0200
0200
0200
FFFC
0200
0200
0200
0200
0200
0200
0200
ENDCHAR
STARTCHAR 2543
ENCODING 9539
SWIDTH 1000 0
DWIDTH 14 0
BBX 14 14 0 -3
BITMAP
0200
0200
0200
0200
0200
0200
FFFC
0200
0200
0200
0200
0200
0200
0200
ENDCHAR
STARTCHAR 2544
ENCODING 9540
SWIDTH 1000 0
DWIDTH 14 0
BBX 14 14 0 -3
BITMAP
0200
0200
0200
0200
0200
0200
FFFC
0200
0200
0200
0200
0200
0200
0200
ENDCHAR
STARTCHAR 2545
ENCODING 9541
SWIDTH 1000 0
DWIDTH 14 0
BBX 14 14 0 -3
BITMAP
0200
0200
0200
0200
0200
0200
FFFC
0200
0200
0200
0200
0200
0200
0200
ENDCHAR
STARTCHAR 2546
ENCODING 9542
SWIDTH 1000 0
DWIDTH 14 0
BBX 14 14 0 -3
BITMAP
0200
0200
0200
0200
0200
0200
FFFC
0200
0200
0200
0200
0200
0200
0200
ENDCHAR
STARTCHAR 2547
ENCODING 9543
SWIDTH 1000 0
DWIDTH 14 0
BBX 14 14 0 -3
BITMAP
0200
0200
0200
0200
0200
0200
FFFC
0200
0200
0200
0200
0200
0200
0200
ENDCHAR
STARTCHAR 2548
ENCODING 9544
SWIDTH 1000 0
DWIDTH 14 0
BBX 14 14 0 -3
BITMAP
0200
0200
0200
0200
0200
0200
FFFC
0200
0200
0200
0200
0200
0200
0200
ENDCHAR
STARTCHAR 2549
ENCODING 9545
SWIDTH 1000 0
DWIDTH 14 0
BBX 14 14 0 -3
BITMAP
0200
0200
0200
0200
0200
0200
FFFC
0200
0200
0200
0200
0200
0200
0200
ENDCHAR
STARTCHAR 254A
ENCODING 9546
SWIDTH 1000 0
DWIDTH 14 0
BBX 14 14 0 -3
BITMAP
0200
0200
0200
0200
0200
0200
FFFC
0200
0200
0200
0200
0200
0200
0200
ENDCHAR
STARTCHAR 254B
ENCODING 9547
SWIDTH 1000 0
DWIDTH 14 0
BBX 14 14 0 -3
BITMAP
0200
0200
0200
0200
0200
0200
FFFC
0200
0200
0200
0200
0200
0200
0200
ENDCHAR
STARTCHAR 254C
ENCODING 9548
SWIDTH 1000 0
DWIDTH 14 0
BBX 13 1 1 4
BITMAP
FBF8
ENDCHAR
STARTCHAR 254D
ENCODING 9549
SWIDTH 1000 0
DWIDTH 14 0
BBX 13 1 1 4
BITMAP
FBF8
ENDCHAR
STARTCHAR 254E
ENCODING 9550
SWIDTH 1000 0
DWIDTH 14 0
BBX 1 13 6 -2
BITMAP
80
80
80
80
80
80
00
80
80
80
80
80
80
ENDCHAR
STARTCHAR 254F
ENCODING 9551
SWIDTH 1000 0
DWIDTH 14 0
BBX 1 13 6 -2
BITMAP
80
80
80
80
80
80
00
80
80
80
80
80
80
ENDCHAR
STARTCHAR 2550
ENCODING 9552
SWIDTH 1000 0
DWIDTH 14 0
BBX 14 3 0 3
BITMAP
FFFC
0000
FFFC
ENDCHAR
STARTCHAR 2551
ENCODING 9553
SWIDTH 1000 0
DWIDTH 14 0
BBX 3 14 5 -3
BITMAP
A0
A0
A0
A0
A0
A0
A0
A0
A0
A0
A0
A0
A0
A0
ENDCHAR
STARTCHAR 2552
ENCODING 9554
SWIDTH 1000 0
DWIDTH 14 0
BBX 8 9 6 -3
BITMAP
FF
80
FF
80
80
80
80
80
80
ENDCHAR
STARTCHAR 2553
ENCODING 9555
SWIDTH 1000 0
DWIDTH 14 0
BBX 9 8 5 -3
BITMAP
FF80
A000
A000
A000
A000
A000
A000
A000
ENDCHAR
STARTCHAR 2554
ENCODING 9556
SWIDTH 1000 0
DWIDTH 14 0
BBX 9 9 5 -3
BITMAP
FF80
8000
BF80
A000
A000
A000
A000
A000
A000
ENDCHAR
STARTCHAR 2555
ENCODING 9557
SWIDTH 1000 0
DWIDTH 14 0
BBX 8 9 0 -3
BITMAP
FF
01
FF
01
01
01
01
01
01
ENDCHAR
STARTCHAR 2556
ENCODING 9558
SWIDTH 1000 0
DWIDTH 14 0
BBX 9 8 0 -3
BITMAP
FF80
0280
0280
0280
0280
0280
0280
0280
ENDCHAR
STARTCHAR 2557
ENCODING 9559
SWIDTH 1000 0
DWIDTH 14 0
BBX 9 9 0 -3
BITMAP
FF80
0080
FE80
0280
0280
0280
0280
0280
0280
ENDCHAR
STARTCHAR 2558
ENCODING 9560
SWIDTH 1000 0
DWIDTH 14 0
BBX 9 8 5 3
BITMAP
8000
8000
8000
8000
8000
FF80
8000
FF80
ENDCHAR
STARTCHAR 2559
ENCODING 9561
SWIDTH 1000 0
DWIDTH 14 0
BBX 9 7 5 4
BITMAP
A000
A000
A000
A000
A000
A000
FF80
ENDCHAR
STARTCHAR 255A
ENCODING 9562
SWIDTH 1000 0
DWIDTH 14 0
BBX 9 8 5 3
BITMAP
A000
A000
A000
A000
A000
BF80
8000
FF80
ENDCHAR
STARTCHAR 255B
ENCODING 9563
SWIDTH 1000 0
DWIDTH 14 0
BBX 8 8 0 3
BITMAP
01
01
01
01
01
FF
01
FF
ENDCHAR
STARTCHAR 255C
ENCODING 9564
SWIDTH 1000 0
DWIDTH 14 0
BBX 9 7 0 4
BITMAP
0280
0280
0280
0280
0280
0280
FF80
ENDCHAR
STARTCHAR 255D
ENCODING 9565
SWIDTH 1000 0
DWIDTH 14 0
BBX 9 8 0 3
BITMAP
0280
0280
0280
0280
0280
FE80
0080
FF80
ENDCHAR
STARTCHAR 255E
ENCODING 9566
SWIDTH 1000 0
DWIDTH 14 0
BBX 8 14 7 -3
BITMAP
80
80
80
80
80
FF
80
FF
80
80
80
80
80
80
ENDCHAR
STARTCHAR 255F
ENCODING 9567
SWIDTH 1000 0
DWIDTH 14 0
BBX 9 14 5 -3
BITMAP
A000
A000
A000
A000
A000
A000
BF80
A000
A000
A000
A000
A000
A000
A000
ENDCHAR
STARTCHAR 2560
ENCODING 9568
SWIDTH 1000 0
DWIDTH 14 0
BBX 9 14 5 -3
BITMAP
A000
A000
A000
A000
A000
BF80
8000
BF80
A000
A000
A000
A000
A000
A000
ENDCHAR
STARTCHAR 2561
ENCODING 9569
SWIDTH 1000 0
DWIDTH 14 0
BBX 8 14 0 -3
BITMAP
01
01
01
01
01
FF
01
FF
01
01
01
01
01
01
ENDCHAR
STARTCHAR 2562
ENCODING 9570
SWIDTH 1000 0
DWIDTH 14 0
BBX 9 14 0 -3
BITMAP
0280
0280
0280
0280
0280
0280
FE80
0280
0280
0280
0280
0280
0280
0280
ENDCHAR
STARTCHAR 2563
ENCODING 9571
SWIDTH 1000 0
DWIDTH 14 0
BBX 9 14 0 -3
BITMAP
0280
0280
0280
0280
0280
FE80
0080
FE80
0280
0280
0280
0280
0280
0280
ENDCHAR
STARTCHAR 2564
ENCODING 9572
SWIDTH 1000 0
DWIDTH 14 0
BBX 14 9 0 -3
BITMAP
FFFC
0000
FFFC
0200
0200
0200
0200
0200
0200
ENDCHAR
STARTCHAR 2565
ENCODING 9573
SWIDTH 1000 0
DWIDTH 14 0
BBX 14 8 0 -3
BITMAP
FFFC
0500
0500
0500
0500
0500
0500
0500
ENDCHAR
STARTCHAR 2566
ENCODING 9574
SWIDTH 1000 0
DWIDTH 14 0
BBX 14 9 0 -3
BITMAP
FFFC
0000
FDFC
0500
0500
0500
0500
0500
0500
ENDCHAR
STARTCHAR 2567
ENCODING 9575
SWIDTH 1000 0
DWIDTH 14 0
BBX 14 8 0 3
BITMAP
0200
0200
0200
0200
0200
FFFC
0000
FFFC
ENDCHAR
STARTCHAR 2568
ENCODING 9576
SWIDTH 1000 0
DWIDTH 14 0
BBX 14 7 0 4
BITMAP
0500
0500
0500
0500
0500
0500
FFFC
ENDCHAR
STARTCHAR 2569
ENCODING 9577
SWIDTH 1000 0
DWIDTH 14 0
BBX 14 8 0 4
BITMAP
0500
0500
0500
0500
0500
FDFC
0000
FFFC
ENDCHAR
STARTCHAR 256A
ENCODING 9578
SWIDTH 1000 0
DWIDTH 14 0
BBX 14 14 0 -3
BITMAP
0200
0200
0200
0200
0200
FFFC
0200
FFFC
0200
0200
0200
0200
0200
0200
ENDCHAR
STARTCHAR 256B
ENCODING 9579
SWIDTH 1000 0
DWIDTH 14 0
BBX 13 14 0 -3
BITMAP
0500
0500
0500
0500
0500
0500
FFF8
0500
0500
0500
0500
0500
0500
0500
ENDCHAR
STARTCHAR 256C
ENCODING 9580
SWIDTH 1000 0
DWIDTH 14 0
BBX 14 14 0 -3
BITMAP
0500
0500
0500
0500
0500
FDFC
0000
FDFC
0500
0500
0500
0500
0500
0500
ENDCHAR
STARTCHAR 256D
ENCODING 9581
SWIDTH 1000 0
DWIDTH 14 0
BBX 8 8 7 -3
BITMAP
07
18
30
60
40
80
80
80
ENDCHAR
STARTCHAR 256E
ENCODING 9582
SWIDTH 1000 0
DWIDTH 14 0
BBX 8 8 0 -3
BITMAP
E0
18
0C
06
02
01
01
01
ENDCHAR
STARTCHAR 256F
ENCODING 9583
SWIDTH 1000 0
DWIDTH 14 0
BBX 8 7 0 4
BITMAP
01
01
03
02
04
18
E0
ENDCHAR
STARTCHAR 2570
ENCODING 9584
SWIDTH 1000 0
DWIDTH 14 0
BBX 8 7 7 4
BITMAP
80
80
C0
40
20
18
07
ENDCHAR
STARTCHAR 2571
ENCODING 9585
SWIDTH 1000 0
DWIDTH 14 0
BBX 15 15 0 -4
BITMAP
0002
0004
0008
0010
0020
0040
0080
0100
0200
0400
0800
1000
2000
4000
8000
ENDCHAR
STARTCHAR 2572
ENCODING 9586
SWIDTH 1000 0
DWIDTH 14 0
BBX 15 15 0 -4
BITMAP
8000
4000
2000
1000
0800
0400
0200
0100
0080
0040
0020
0010
0008
0004
0002
ENDCHAR
STARTCHAR 2573
ENCODING 9587
SWIDTH 1000 0
DWIDTH 14 0
BBX 15 15 0 -3
BITMAP
8002
4004
2008
1010
0820
0440
0280
0100
0280
0440
0820
1010
2008
4004
8002
ENDCHAR
STARTCHAR 2574
ENCODING 9588
SWIDTH 1000 0
DWIDTH 14 0
BBX 7 1 0 4
BITMAP
FE
ENDCHAR
STARTCHAR 2575
ENCODING 9589
SWIDTH 1000 0
DWIDTH 14 0
BBX 1 7 6 4
BITMAP
80
80
80
80
80
80
80
ENDCHAR
STARTCHAR 2576
ENCODING 9590
SWIDTH 1000 0
DWIDTH 14 0
BBX 7 1 7 4
BITMAP
FE
ENDCHAR
STARTCHAR 2577
ENCODING 9591
SWIDTH 1000 0
DWIDTH 14 0
BBX 1 7 7 -3
BITMAP
80
80
80
80
80
80
80
ENDCHAR
STARTCHAR 2578
ENCODING 9592
SWIDTH 1000 0
DWIDTH 14 0
BBX 7 1 0 4
BITMAP
FE
ENDCHAR
STARTCHAR 2579
ENCODING 9593
SWIDTH 1000 0
DWIDTH 14 0
BBX 1 7 6 4
BITMAP
80
80
80
80
80
80
80
ENDCHAR
STARTCHAR 257A
ENCODING 9594
SWIDTH 1000 0
DWIDTH 14 0
BBX 7 1 7 4
BITMAP
FE
ENDCHAR
STARTCHAR 257B
ENCODING 9595
SWIDTH 1000 0
DWIDTH 14 0
BBX 1 7 6 -3
BITMAP
80
80
80
80
80
80
80
ENDCHAR
STARTCHAR 257C
ENCODING 9596
SWIDTH 1000 0
DWIDTH 14 0
BBX 14 1 0 4
BITMAP
FFFC
ENDCHAR
STARTCHAR 257D
ENCODING 9597
SWIDTH 1000 0
DWIDTH 14 0
BBX 1 14 6 -3
BITMAP
80
80
80
80
80
80
80
80
80
80
80
80
80
80
ENDCHAR
STARTCHAR 257E
ENCODING 9598
SWIDTH 1000 0
DWIDTH 14 0
BBX 14 1 0 4
BITMAP
FFFC
ENDCHAR
STARTCHAR 257F
ENCODING 9599
SWIDTH 1000 0
DWIDTH 14 0
BBX 1 14 6 -3
BITMAP
80
80
80
80
80
80
80
80
80
80
80
80
80
80
ENDCHAR
STARTCHAR 2580
ENCODING 9600
SWIDTH 1000 0
DWIDTH 14 0
BBX 14 7 0 4
BITMAP
FFFC
FFFC
FFFC
FFFC
FFFC
FFFC
FFFC
ENDCHAR
STARTCHAR 2582
ENCODING 9602
SWIDTH 1000 0
DWIDTH 14 0
BBX 14 4 0 -3
BITMAP
FFFC
FFFC
FFFC
FFFC
ENDCHAR
STARTCHAR 2583
ENCODING 9603
SWIDTH 1000 0
DWIDTH 14 0
BBX 14 5 0 -3
BITMAP
FFFC
FFFC
FFFC
FFFC
FFFC
ENDCHAR
STARTCHAR 2584
ENCODING 9604
SWIDTH 1000 0
DWIDTH 14 0
BBX 14 7 0 -3
BITMAP
FFFC
FFFC
FFFC
FFFC
FFFC
FFFC
FFFC
ENDCHAR
STARTCHAR 2585
ENCODING 9605
SWIDTH 1000 0
DWIDTH 14 0
BBX 14 9 0 -3
BITMAP
FFFC
FFFC
FFFC
FFFC
FFFC
FFFC
FFFC
FFFC
FFFC
ENDCHAR
STARTCHAR 2586
ENCODING 9606
SWIDTH 1000 0
DWIDTH 14 0
BBX 14 11 0 -3
BITMAP
FFFC
FFFC
FFFC
FFFC
FFFC
FFFC
FFFC
FFFC
FFFC
FFFC
FFFC
ENDCHAR
STARTCHAR 2587
ENCODING 9607
SWIDTH 1000 0
DWIDTH 14 0
BBX 14 12 0 -3
BITMAP
FFFC
FFFC
FFFC
FFFC
FFFC
FFFC
FFFC
FFFC
FFFC
FFFC
FFFC
FFFC
ENDCHAR
STARTCHAR 2588
ENCODING 9608
SWIDTH 1000 0
DWIDTH 14 0
BBX 14 14 0 -3
BITMAP
FFFC
FFFC
FFFC
FFFC
FFFC
FFFC
FFFC
FFFC
FFFC
FFFC
FFFC
FFFC
FFFC
FFFC
ENDCHAR
STARTCHAR 2589
ENCODING 9609
SWIDTH 1000 0
DWIDTH 14 0
BBX 12 14 0 -3
BITMAP
FFF0
FFF0
FFF0
FFF0
FFF0
FFF0
FFF0
FFF0
FFF0
FFF0
FFF0
FFF0
FFF0
FFF0
ENDCHAR
STARTCHAR 258A
ENCODING 9610
SWIDTH 1000 0
DWIDTH 14 0
BBX 11 14 0 -3
BITMAP
FFE0
FFE0
FFE0
FFE0
FFE0
FFE0
FFE0
FFE0
FFE0
FFE0
FFE0
FFE0
FFE0
FFE0
ENDCHAR
STARTCHAR 258B
ENCODING 9611
SWIDTH 1000 0
DWIDTH 14 0
BBX 9 14 0 -3
BITMAP
FF80
FF80
FF80
FF80
FF80
FF80
FF80
FF80
FF80
FF80
FF80
FF80
FF80
FF80
ENDCHAR
STARTCHAR 258C
ENCODING 9612
SWIDTH 1000 0
DWIDTH 14 0
BBX 7 14 0 -3
BITMAP
FE
FE
FE
FE
FE
FE
FE
FE
FE
FE
FE
FE
FE
FE
ENDCHAR
STARTCHAR 258D
ENCODING 9613
SWIDTH 1000 0
DWIDTH 14 0
BBX 5 14 0 -3
BITMAP
F8
F8
F8
F8
F8
F8
F8
F8
F8
F8
F8
F8
F8
F8
ENDCHAR
STARTCHAR 258E
ENCODING 9614
SWIDTH 1000 0
DWIDTH 14 0
BBX 4 14 0 -3
BITMAP
F0
F0
F0
F0
F0
F0
F0
F0
F0
F0
F0
F0
F0
F0
ENDCHAR
STARTCHAR 258F
ENCODING 9615
SWIDTH 1000 0
DWIDTH 14 0
BBX 2 14 0 -3
BITMAP
C0
C0
C0
C0
C0
C0
C0
C0
C0
C0
C0
C0
C0
C0
ENDCHAR
STARTCHAR 2590
ENCODING 9616
SWIDTH 1000 0
DWIDTH 14 0
BBX 7 14 7 -3
BITMAP
FE
FE
FE
FE
FE
FE
FE
FE
FE
FE
FE
FE
FE
FE
ENDCHAR
STARTCHAR 2591
ENCODING 9617
SWIDTH 1000 0
DWIDTH 14 0
BBX 10 10 0 1
BITMAP
FFC0
FFC0
FFC0
FFC0
FFC0
FFC0
FFC0
FFC0
FFC0
FFC0
ENDCHAR
STARTCHAR 2592
ENCODING 9618
SWIDTH 1000 0
DWIDTH 14 0
BBX 14 14 0 -2
BITMAP
D9B0
D9B0
366C
366C
D9B0
366C
366C
D9B0
D9B0
366C
366C
D9B0
366C
366C
ENDCHAR
STARTCHAR 2593
ENCODING 9619
SWIDTH 1000 0
DWIDTH 14 0
BBX 10 10 0 1
BITMAP
FFC0
FFC0
FFC0
FFC0
FFC0
FFC0
FFC0
FFC0
FFC0
FFC0
ENDCHAR
STARTCHAR 2594
ENCODING 9620
SWIDTH 1000 0
DWIDTH 14 0
BBX 14 2 0 9
BITMAP
FFFC
FFFC
ENDCHAR
STARTCHAR 2595
ENCODING 9621
SWIDTH 1000 0
DWIDTH 14 0
BBX 2 14 12 -3
BITMAP
C0
C0
C0
C0
C0
C0
C0
C0
C0
C0
C0
C0
C0
C0
ENDCHAR
STARTCHAR 25A0
ENCODING 9632
SWIDTH 785 0
DWIDTH 11 0
BBX 8 8 2 0
BITMAP
FF
FF
FF
FF
FF
FF
FF
FF
ENDCHAR
STARTCHAR 25A1
ENCODING 9633
SWIDTH 785 0
DWIDTH 11 0
BBX 8 8 2 0
BITMAP
FF
81
81
81
81
81
81
FF
ENDCHAR
STARTCHAR 25A2
ENCODING 9634
SWIDTH 785 0
DWIDTH 11 0
BBX 8 8 2 0
BITMAP
7E
81
81
81
81
81
81
7E
ENDCHAR
STARTCHAR 25A3
ENCODING 9635
SWIDTH 785 0
DWIDTH 11 0
BBX 8 8 2 0
BITMAP
FF
81
BD
BD
BD
BD
81
FF
ENDCHAR
STARTCHAR 25A4
ENCODING 9636
SWIDTH 785 0
DWIDTH 11 0
BBX 8 8 2 0
BITMAP
FF
81
FF
81
FF
FF
81
FF
ENDCHAR
STARTCHAR 25A5
ENCODING 9637
SWIDTH 785 0
DWIDTH 11 0
BBX 8 8 2 0
BITMAP
FF
AB
AB
AB
AB
AB
AB
FF
ENDCHAR
STARTCHAR 25A6
ENCODING 9638
SWIDTH 785 0
DWIDTH 11 0
BBX 8 8 2 0
BITMAP
FF
AB
FF
AB
FF
FF
AB
FF
ENDCHAR
STARTCHAR 25A7
ENCODING 9639
SWIDTH 785 0
DWIDTH 11 0
BBX 8 8 2 0
BITMAP
FF
D3
A9
D5
AB
95
CB
FF
ENDCHAR
STARTCHAR 25A8
ENCODING 9640
SWIDTH 785 0
DWIDTH 11 0
BBX 8 8 2 0
BITMAP
FF
CB
95
AB
D5
A9
D3
FF
ENDCHAR
STARTCHAR 25A9
ENCODING 9641
SWIDTH 785 0
DWIDTH 11 0
BBX 9 8 1 0
BITMAP
FF80
C980
B680
F780
FF80
B680
C980
FF80
ENDCHAR
STARTCHAR 25AA
ENCODING 9642
SWIDTH 500 0
DWIDTH 7 0
BBX 4 4 2 2
BITMAP
F0
F0
F0
F0
ENDCHAR
STARTCHAR 25AB
ENCODING 9643
SWIDTH 500 0
DWIDTH 7 0
BBX 4 4 2 2
BITMAP
F0
90
90
F0
ENDCHAR
STARTCHAR 25AC
ENCODING 9644
SWIDTH 785 0
DWIDTH 11 0
BBX 6 4 2 2
BITMAP
FC
FC
FC
FC
ENDCHAR
STARTCHAR 25AD
ENCODING 9645
SWIDTH 785 0
DWIDTH 11 0
BBX 8 4 2 2
BITMAP
FF
81
81
FF
ENDCHAR
STARTCHAR 25AE
ENCODING 9646
SWIDTH 500 0
DWIDTH 7 0
BBX 4 8 2 0
BITMAP
F0
F0
F0
F0
F0
F0
F0
F0
ENDCHAR
STARTCHAR 25AF
ENCODING 9647
SWIDTH 500 0
DWIDTH 7 0
BBX 4 9 2 0
BITMAP
F0
90
90
90
90
90
90
90
F0
ENDCHAR
STARTCHAR 25B0
ENCODING 9648
SWIDTH 785 0
DWIDTH 11 0
BBX 8 4 2 2
BITMAP
3F
7E
7E
FC
ENDCHAR
STARTCHAR 25B1
ENCODING 9649
SWIDTH 785 0
DWIDTH 11 0
BBX 8 4 2 2
BITMAP
3F
42
42
FC
ENDCHAR
STARTCHAR 25B2
ENCODING 9650
SWIDTH 785 0
DWIDTH 11 0
BBX 8 7 2 1
BITMAP
18
18
3C
3C
7E
7E
FF
ENDCHAR
STARTCHAR 25B3
ENCODING 9651
SWIDTH 785 0
DWIDTH 11 0
BBX 8 7 2 1
BITMAP
18
18
24
24
42
82
FF
ENDCHAR
STARTCHAR 25B4
ENCODING 9652
SWIDTH 571 0
DWIDTH 8 0
BBX 5 4 2 2
BITMAP
20
20
70
F8
ENDCHAR
STARTCHAR 25B5
ENCODING 9653
SWIDTH 571 0
DWIDTH 8 0
BBX 5 4 2 2
BITMAP
20
60
50
F8
ENDCHAR
STARTCHAR 25B6
ENCODING 9654
SWIDTH 785 0
DWIDTH 11 0
BBX 7 8 2 0
BITMAP
80
E0
F8
FE
FE
F8
E0
80
ENDCHAR
STARTCHAR 25B7
ENCODING 9655
SWIDTH 785 0
DWIDTH 11 0
BBX 7 8 2 0
BITMAP
80
E0
98
86
86
98
A0
C0
ENDCHAR
STARTCHAR 25B8
ENCODING 9656
SWIDTH 571 0
DWIDTH 8 0
BBX 4 5 2 1
BITMAP
80
C0
F0
C0
80
ENDCHAR
STARTCHAR 25B9
ENCODING 9657
SWIDTH 571 0
DWIDTH 8 0
BBX 4 5 2 1
BITMAP
80
C0
B0
E0
80
ENDCHAR
STARTCHAR 25BA
ENCODING 9658
SWIDTH 857 0
DWIDTH 12 0
BBX 9 5 2 1
BITMAP
C000
F800
FF80
F800
C000
ENDCHAR
STARTCHAR 25BB
ENCODING 9659
SWIDTH 857 0
DWIDTH 12 0
BBX 8 5 2 1
BITMAP
C0
B8
87
B8
C0
ENDCHAR
STARTCHAR 25BC
ENCODING 9660
SWIDTH 785 0
DWIDTH 11 0
BBX 8 7 2 0
BITMAP
FF
7E
7E
3C
3C
18
18
ENDCHAR
STARTCHAR 25BD
ENCODING 9661
SWIDTH 785 0
DWIDTH 11 0
BBX 8 7 2 0
BITMAP
FF
82
42
24
24
18
18
ENDCHAR
STARTCHAR 25BE
ENCODING 9662
SWIDTH 571 0
DWIDTH 8 0
BBX 5 4 2 2
BITMAP
F8
70
20
20
ENDCHAR
STARTCHAR 25BF
ENCODING 9663
SWIDTH 571 0
DWIDTH 8 0
BBX 5 4 2 2
BITMAP
F8
50
60
20
ENDCHAR
STARTCHAR 25C0
ENCODING 9664
SWIDTH 785 0
DWIDTH 11 0
BBX 7 8 3 0
BITMAP
02
0E
3E
FE
FE
3E
0E
02
ENDCHAR
STARTCHAR 25C1
ENCODING 9665
SWIDTH 785 0
DWIDTH 11 0
BBX 7 8 3 0
BITMAP
02
0E
32
C2
C2
32
0A
06
ENDCHAR
STARTCHAR 25C2
ENCODING 9666
SWIDTH 571 0
DWIDTH 8 0
BBX 4 5 2 1
BITMAP
10
30
F0
30
10
ENDCHAR
STARTCHAR 25C3
ENCODING 9667
SWIDTH 571 0
DWIDTH 8 0
BBX 4 5 2 1
BITMAP
10
30
D0
70
10
ENDCHAR
STARTCHAR 25C4
ENCODING 9668
SWIDTH 857 0
DWIDTH 12 0
BBX 9 5 2 1
BITMAP
0180
0F80
FF80
0F80
0180
ENDCHAR
STARTCHAR 25C5
ENCODING 9669
SWIDTH 857 0
DWIDTH 12 0
BBX 8 5 2 1
BITMAP
03
1D
E1
1D
03
ENDCHAR
STARTCHAR 25C6
ENCODING 9670
SWIDTH 785 0
DWIDTH 11 0
BBX 8 8 2 0
BITMAP
10
3C
7E
FF
FF
7E
3C
10
ENDCHAR
STARTCHAR 25C7
ENCODING 9671
SWIDTH 785 0
DWIDTH 11 0
BBX 9 9 1 0
BITMAP
0800
1400
2200
4100
8080
4100
2200
1400
0800
ENDCHAR
STARTCHAR 25C8
ENCODING 9672
SWIDTH 785 0
DWIDTH 11 0
BBX 9 9 1 0
BITMAP
0800
1400
2A00
5D00
BE80
5D00
2A00
1400
0800
ENDCHAR
STARTCHAR 25C9
ENCODING 9673
SWIDTH 785 0
DWIDTH 11 0
BBX 8 8 2 0
BITMAP
3C
42
99
BD
BD
99
42
3C
ENDCHAR
STARTCHAR 25CA
ENCODING 9674
SWIDTH 785 0
DWIDTH 11 0
BBX 7 11 2 0
BITMAP
10
28
28
44
44
82
44
44
28
28
10
ENDCHAR
STARTCHAR 25CB
ENCODING 9675
SWIDTH 785 0
DWIDTH 11 0
BBX 8 8 2 0
BITMAP
3C
42
81
81
81
81
42
3C
ENDCHAR
STARTCHAR 25CC
ENCODING 9676
SWIDTH 785 0
DWIDTH 11 0
BBX 8 8 2 0
BITMAP
2C
42
81
80
01
81
42
34
ENDCHAR
STARTCHAR 25CD
ENCODING 9677
SWIDTH 785 0
DWIDTH 11 0
BBX 8 8 2 0
BITMAP
3C
6A
AB
AB
AB
AB
6A
3C
ENDCHAR
STARTCHAR 25CE
ENCODING 9678
SWIDTH 785 0
DWIDTH 11 0
BBX 8 8 2 0
BITMAP
3C
42
99
A5
A5
99
42
3C
ENDCHAR
STARTCHAR 25CF
ENCODING 9679
SWIDTH 785 0
DWIDTH 11 0
BBX 8 8 2 0
BITMAP
3C
7E
FF
FF
FF
FF
7E
3C
ENDCHAR
STARTCHAR 25D0
ENCODING 9680
SWIDTH 785 0
DWIDTH 11 0
BBX 8 8 2 0
BITMAP
3C
72
F1
F1
F1
F1
72
3C
ENDCHAR
STARTCHAR 25D1
ENCODING 9681
SWIDTH 785 0
DWIDTH 11 0
BBX 8 8 2 0
BITMAP
3C
4E
8F
8F
8F
8F
4E
3C
ENDCHAR
STARTCHAR 25D2
ENCODING 9682
SWIDTH 785 0
DWIDTH 11 0
BBX 8 8 2 0
BITMAP
3C
42
81
81
FF
FF
7E
3C
ENDCHAR
STARTCHAR 25D3
ENCODING 9683
SWIDTH 785 0
DWIDTH 11 0
BBX 8 8 2 0
BITMAP
3C
7E
FF
FF
81
81
42
3C
ENDCHAR
STARTCHAR 25D4
ENCODING 9684
SWIDTH 785 0
DWIDTH 11 0
BBX 8 8 2 0
BITMAP
3C
4E
8F
8F
81
81
42
3C
ENDCHAR
STARTCHAR 25D5
ENCODING 9685
SWIDTH 785 0
DWIDTH 11 0
BBX 8 8 2 0
BITMAP
3C
4E
8F
8F
FF
FF
7E
3C
ENDCHAR
STARTCHAR 25D6
ENCODING 9686
SWIDTH 500 0
DWIDTH 7 0
BBX 4 8 2 0
BITMAP
30
70
F0
F0
F0
F0
70
30
ENDCHAR
STARTCHAR 25D7
ENCODING 9687
SWIDTH 500 0
DWIDTH 7 0
BBX 4 8 2 0
BITMAP
C0
E0
F0
F0
F0
F0
E0
C0
ENDCHAR
STARTCHAR 25D8
ENCODING 9688
SWIDTH 1000 0
DWIDTH 14 0
BBX 14 14 0 -3
BITMAP
FFFC
FFFC
FFFC
FFFC
FFFC
FCFC
F87C
F87C
FCFC
FFFC
FFFC
FFFC
FFFC
FFFC
ENDCHAR
STARTCHAR 25D9
ENCODING 9689
SWIDTH 1000 0
DWIDTH 14 0
BBX 14 14 0 -3
BITMAP
FFFC
FFFC
F87C
E79C
EFDC
DFEC
DFEC
DFEC
DFEC
EFDC
E79C
F87C
FFFC
FFFC
ENDCHAR
STARTCHAR 25DA
ENCODING 9690
SWIDTH 1000 0
DWIDTH 14 0
BBX 14 7 0 4
BITMAP
FFFC
FFFC
F87C
E79C
EFDC
DFEC
DFEC
ENDCHAR
STARTCHAR 25DB
ENCODING 9691
SWIDTH 1000 0
DWIDTH 14 0
BBX 14 7 0 -3
BITMAP
DFEC
DFEC
EFDC
E79C
F87C
FFFC
FFFC
ENDCHAR
STARTCHAR 25DC
ENCODING 9692
SWIDTH 571 0
DWIDTH 8 0
BBX 5 5 2 4
BITMAP
18
60
40
80
80
ENDCHAR
STARTCHAR 25DD
ENCODING 9693
SWIDTH 571 0
DWIDTH 8 0
BBX 5 5 2 4
BITMAP
C0
30
10
08
08
ENDCHAR
STARTCHAR 25DE
ENCODING 9694
SWIDTH 571 0
DWIDTH 8 0
BBX 6 5 2 -1
BITMAP
04
04
08
30
E0
ENDCHAR
STARTCHAR 25DF
ENCODING 9695
SWIDTH 571 0
DWIDTH 8 0
BBX 5 5 2 -1
BITMAP
80
80
40
60
18
ENDCHAR
STARTCHAR 25E0
ENCODING 9696
SWIDTH 1000 0
DWIDTH 14 0
BBX 11 5 2 4
BITMAP
1F00
2080
4040
8020
8020
ENDCHAR
STARTCHAR 25E1
ENCODING 9697
SWIDTH 1000 0
DWIDTH 14 0
BBX 11 5 2 -1
BITMAP
8020
8020
4040
2080
1F00
ENDCHAR
STARTCHAR 25E2
ENCODING 9698
SWIDTH 785 0
DWIDTH 11 0
BBX 8 8 2 0
BITMAP
01
03
07
0F
1F
3F
7F
FF
ENDCHAR
STARTCHAR 25E3
ENCODING 9699
SWIDTH 785 0
DWIDTH 11 0
BBX 8 8 2 0
BITMAP
80
C0
E0
F0
F8
FC
FE
FF
ENDCHAR
STARTCHAR 25E4
ENCODING 9700
SWIDTH 785 0
DWIDTH 11 0
BBX 8 8 2 0
BITMAP
FF
FE
FC
F8
F0
E0
C0
80
ENDCHAR
STARTCHAR 25E5
ENCODING 9701
SWIDTH 785 0
DWIDTH 11 0
BBX 8 8 2 0
BITMAP
FF
7F
3F
1F
0F
07
03
01
ENDCHAR
STARTCHAR 25E6
ENCODING 9702
SWIDTH 571 0
DWIDTH 8 0
BBX 5 5 2 1
BITMAP
70
88
88
88
70
ENDCHAR
STARTCHAR 25E7
ENCODING 9703
SWIDTH 785 0
DWIDTH 11 0
BBX 8 8 2 0
BITMAP
FF
F1
F1
F1
F1
F1
F1
FF
ENDCHAR
STARTCHAR 25E8
ENCODING 9704
SWIDTH 785 0
DWIDTH 11 0
BBX 8 8 2 0
BITMAP
FF
8F
8F
8F
8F
8F
8F
FF
ENDCHAR
STARTCHAR 25E9
ENCODING 9705
SWIDTH 785 0
DWIDTH 11 0
BBX 8 8 2 0
BITMAP
FF
FF
FD
F9
F1
E1
C1
FF
ENDCHAR
STARTCHAR 25EA
ENCODING 9706
SWIDTH 785 0
DWIDTH 11 0
BBX 8 8 2 0
BITMAP
FF
83
87
8F
9F
BF
FF
FF
ENDCHAR
STARTCHAR 25EB
ENCODING 9707
SWIDTH 785 0
DWIDTH 11 0
BBX 8 8 2 0
BITMAP
FF
89
89
89
89
89
89
FF
ENDCHAR
STARTCHAR 25EC
ENCODING 9708
SWIDTH 785 0
DWIDTH 11 0
BBX 8 7 2 1
BITMAP
18
18
24
24
5A
9A
FF
ENDCHAR
STARTCHAR 25ED
ENCODING 9709
SWIDTH 785 0
DWIDTH 11 0
BBX 8 7 2 1
BITMAP
18
18
34
34
72
72
FF
ENDCHAR
STARTCHAR 25EE
ENCODING 9710
SWIDTH 785 0
DWIDTH 11 0
BBX 8 7 2 1
BITMAP
18
18
2C
2C
4E
8E
FF
ENDCHAR
STARTCHAR 263A
ENCODING 9786
SWIDTH 857 0
DWIDTH 12 0
BBX 10 10 1 0
BITMAP
1E00
6180
4080
9E40
9E40
8040
A140
5E80
6180
1E00
ENDCHAR
STARTCHAR 263B
ENCODING 9787
SWIDTH 857 0
DWIDTH 12 0
BBX 10 10 1 0
BITMAP
1E00
7F80
7F80
E9C0
E9C0
FFC0
DEC0
6180
7F80
1E00
ENDCHAR
STARTCHAR 263C
ENCODING 9788
SWIDTH 785 0
DWIDTH 11 0
BBX 11 11 0 0
BITMAP
0400
0400
2E80
1100
2080
E0E0
2080
1100
2E80
0400
0400
ENDCHAR
STARTCHAR 2640
ENCODING 9792
SWIDTH 857 0
DWIDTH 12 0
BBX 9 14 1 -3
BITMAP
3E00
6300
C180
8080
8080
8080
C180
6300
3E00
0800
0800
7F00
0800
0800
ENDCHAR
STARTCHAR 2642
ENCODING 9794
SWIDTH 857 0
DWIDTH 12 0
BBX 11 11 0 0
BITMAP
01E0
0060
3EA0
6320
C180
8080
8080
8080
C180
6300
3E00
ENDCHAR
STARTCHAR 2660
ENCODING 9824
SWIDTH 857 0
DWIDTH 12 0
BBX 10 10 1 0
BITMAP
0400
0E00
1F00
7F80
FFC0
FFC0
FFC0
7B80
0C00
0C00
ENDCHAR
STARTCHAR 2663
ENCODING 9827
SWIDTH 857 0
DWIDTH 12 0
BBX 10 10 1 0
BITMAP
0C00
1E00
1E00
1E00
7F80
FFC0
FBC0
7F80
0C00
0C00
ENDCHAR
STARTCHAR 2665
ENCODING 9829
SWIDTH 857 0
DWIDTH 12 0
BBX 10 10 1 0
BITMAP
7380
FFC0
FFC0
FFC0
FFC0
7F80
7F80
3F00
1E00
0C00
ENDCHAR
STARTCHAR 2666
ENCODING 9830
SWIDTH 857 0
DWIDTH 12 0
BBX 10 10 1 0
BITMAP
0800
1C00
3E00
7F00
FFC0
7F80
3E00
1C00
0C00
0800
ENDCHAR
STARTCHAR 266A
ENCODING 9834
SWIDTH 642 0
DWIDTH 9 0
BBX 7 10 1 0
BITMAP
10
18
1C
16
12
12
10
10
F0
E0
ENDCHAR
STARTCHAR 266B
ENCODING 9835
SWIDTH 642 0
DWIDTH 9 0
BBX 8 12 0 -2
BITMAP
01
07
1D
11
11
11
11
11
1F
7E
F0
E0
ENDCHAR
STARTCHAR 266D
ENCODING 9837
SWIDTH 642 0
DWIDTH 9 0
BBX 5 10 3 0
BITMAP
80
80
80
80
80
B8
C8
88
90
E0
ENDCHAR
STARTCHAR 266E
ENCODING 9838
SWIDTH 642 0
DWIDTH 9 0
BBX 4 12 3 -2
BITMAP
80
80
90
F0
90
90
90
F0
90
10
10
10
ENDCHAR
STARTCHAR 266F
ENCODING 9839
SWIDTH 642 0
DWIDTH 9 0
BBX 6 12 2 -2
BITMAP
08
08
4C
58
68
C8
4C
58
68
C8
40
40
ENDCHAR
STARTCHAR FB01
ENCODING 64257
SWIDTH 642 0
DWIDTH 9 0
BBX 7 11 0 0
BITMAP
38
42
40
FE
42
42
42
42
42
42
42
ENDCHAR
STARTCHAR FB02
ENCODING 64258
SWIDTH 642 0
DWIDTH 9 0
BBX 7 11 0 0
BITMAP
3E
42
42
F2
42
42
42
42
42
42
42
ENDCHAR
STARTCHAR FB1E
ENCODING 64286
SWIDTH 0 0
DWIDTH 0 0
BBX 5 2 3 9
BITMAP
88
70
ENDCHAR
STARTCHAR FEFF
ENCODING 65279
SWIDTH 0 0
DWIDTH 0 0
BBX 0 0 0 0
BITMAP
ENDCHAR
ENDFONT
